<svg width="148" height="82" viewBox="0 0 148 82" fill="none" xmlns="http://www.w3.org/2000/svg">
<path d="M49.6504 40.1C49.8837 40.2667 50.0171 40.4833 50.0504 40.75C50.0837 41.0167 50.0337 41.25 49.9004 41.45C49.7004 41.7167 49.4337 41.85 49.1004 41.85C48.9671 41.85 48.8337 41.8167 48.7004 41.75C48.0337 41.6167 44.7337 41.45 38.8004 41.25C37.1671 48.0833 35.8504 53.8667 34.8504 58.6C32.8171 68.0333 31.8004 74.0833 31.8004 76.75C31.9337 76.5167 32.0837 76.2667 32.2504 76C32.3837 75.7667 32.5837 75.6167 32.8504 75.55C33.1171 75.4833 33.3504 75.5167 33.5504 75.65C33.7837 75.7833 33.9337 75.9667 34.0004 76.2C34.0671 76.4667 34.0337 76.7167 33.9004 76.95C32.9337 78.5833 32.1004 79.4 31.4004 79.4C31.2337 79.4 31.0671 79.3667 30.9004 79.3C30.5004 79.1333 30.2171 78.7667 30.0504 78.2C29.9171 77.6667 29.8837 76.6167 29.9504 75.05C30.0504 73.5167 30.3504 71.3833 30.8504 68.65C31.3504 65.9167 32.0837 62.2833 33.0504 57.75C34.0504 53.25 35.3171 47.7333 36.8504 41.2C34.5837 41.1333 31.2004 41.05 26.7004 40.95C26.0337 40.9167 25.2837 40.9 24.4504 40.9C19.4171 50.4667 15.5171 57.15 12.7504 60.95C12.0171 61.9167 11.2837 62.6667 10.5504 63.2C9.81706 63.7333 9.13372 64.0333 8.50039 64.1C7.86706 64.2 7.33372 64.2 6.90039 64.1C6.46706 64 6.05039 63.8333 5.65039 63.6C3.91706 62.6 2.53372 60.5667 1.50039 57.5C0.500391 54.4667 0.0503907 51.1 0.150391 47.4C0.250391 43.6667 0.900391 40.4167 2.10039 37.65C3.60039 34.25 5.78372 31.9667 8.65039 30.8C11.5504 29.6333 14.9504 29.6667 18.8504 30.9C19.1171 30.9667 19.3004 31.1167 19.4004 31.35C19.5337 31.5833 19.5504 31.8333 19.4504 32.1C19.3837 32.3333 19.2337 32.5167 19.0004 32.65C18.7671 32.7833 18.5171 32.8 18.2504 32.7C16.9504 32.3 15.6837 32.05 14.4504 31.95C13.2171 31.85 11.9171 31.95 10.5504 32.25C9.21706 32.5167 7.96706 33.1833 6.80039 34.25C5.63372 35.2833 4.65039 36.6833 3.85039 38.45C3.25039 39.8167 2.80039 41.3333 2.50039 43C2.20039 44.6667 2.05039 46.3 2.05039 47.9C2.05039 49.5 2.16706 51.0667 2.40039 52.6C2.63372 54.1667 2.95039 55.5667 3.35039 56.8C3.78372 58.0667 4.26706 59.15 4.80039 60.05C5.36706 60.95 5.96706 61.5833 6.60039 61.95C8.00039 62.75 9.53372 62.0333 11.2004 59.8C13.8671 56.2 17.5671 49.8833 22.3004 40.85C13.6337 40.6167 8.90039 40.4167 8.10039 40.25C7.83372 40.1833 7.61706 40.05 7.45039 39.85C7.31706 39.6167 7.26706 39.3667 7.30039 39.1C7.36706 38.8333 7.51706 38.6333 7.75039 38.5C7.98372 38.3667 8.21706 38.3167 8.45039 38.35C9.18372 38.5167 14.1337 38.7167 23.3004 38.95C24.7671 36.0833 26.9837 31.75 29.9504 25.95C31.8837 22.0833 33.4671 18.95 34.7004 16.55C35.9337 14.15 37.1337 11.8667 38.3004 9.7C39.5004 7.53334 40.4504 5.9 41.1504 4.8C41.8504 3.66667 42.5171 2.7 43.1504 1.9C43.7837 1.06667 44.3004 0.550006 44.7004 0.350006C45.1337 0.11667 45.5504 0.0666695 45.9504 0.200005C46.4837 0.400004 46.8171 0.850004 46.9504 1.55C47.1171 2.25 47.1337 3.21667 47.0004 4.45C46.8004 6.61667 46.2171 9.85 45.2504 14.15C44.8504 16.05 43.8337 20.35 42.2004 27.05C40.9337 32.3167 39.9504 36.4167 39.2504 39.35C45.7504 39.55 49.2171 39.8 49.6504 40.1ZM26.7504 39C31.1171 39.1333 34.6337 39.2333 37.3004 39.3C38.2004 35.4333 39.2004 31.2 40.3004 26.6C41.9337 19.9333 42.9671 15.65 43.4004 13.75C44.7004 7.85 45.2837 4.06667 45.1504 2.4C44.6171 2.93334 43.8671 3.98334 42.9004 5.55C41.9671 7.08334 40.7671 9.21667 39.3004 11.95C37.8671 14.6833 36.6671 17 35.7004 18.9C34.7337 20.7667 33.3837 23.4 31.6504 26.8C28.9171 32.2 26.8504 36.2667 25.4504 39C25.5837 39 25.7837 39 26.0504 39C26.3504 39 26.5837 39 26.7504 39ZM72.9332 39.05C73.1999 38.9833 73.4499 39.0167 73.6832 39.15C73.9165 39.2833 74.0665 39.4833 74.1332 39.75C74.1999 40.0167 74.1499 40.25 73.9832 40.45C72.6499 42.6167 71.0665 44.6167 69.2332 46.45C67.3999 48.25 65.5165 49.75 63.5832 50.95C61.6499 52.1833 59.8999 53.1667 58.3332 53.9C56.7999 54.6667 55.2499 55.3167 53.6832 55.85C53.2165 56.0167 52.8499 55.8833 52.5832 55.45C52.0499 56.7833 51.5832 58.1 51.1832 59.4C51.0499 59.8333 50.7332 60.05 50.2332 60.05C50.1999 60.05 50.1499 60.05 50.0832 60.05C49.8499 60.0167 49.6665 59.9 49.5332 59.7C49.3665 59.5333 49.2832 59.3333 49.2832 59.1C49.3165 58.3333 50.1332 54.3667 51.7332 47.2C53.2999 40.0333 54.8832 33.0333 56.4832 26.2C56.4832 26.1 56.4999 26 56.5332 25.9C57.0999 23.5 57.5665 21.5667 57.9332 20.1C59.0665 15.5 60.3665 11.5833 61.8332 8.35C63.3332 5.08334 64.6165 3.35 65.6832 3.15C66.2499 3.05 66.6832 3.21667 66.9832 3.65001C67.7165 4.61667 67.2999 7.18334 65.7332 11.35C64.1665 15.5167 61.7165 20.6 58.3832 26.6C56.5832 34.1667 54.8832 41.65 53.2832 49.05C54.2165 47.1167 55.1165 45.55 55.9832 44.35C58.5832 40.7167 60.6499 39.1333 62.1832 39.6C63.1832 39.9 63.6999 40.7833 63.7332 42.25C63.7332 42.95 63.6165 43.75 63.3832 44.65C63.1832 45.5167 62.8332 46.4833 62.3332 47.55C61.8332 48.6167 61.2332 49.6333 60.5332 50.6C65.7332 47.5333 69.6832 43.8167 72.3832 39.45C72.5165 39.2167 72.6999 39.0833 72.9332 39.05ZM65.3332 5.9C63.5332 8.56667 61.8332 12.9167 60.2332 18.95C63.1332 13.0833 64.8332 8.73334 65.3332 5.9ZM53.1332 54C54.3332 53.5667 55.4499 52.9167 56.4832 52.05C57.5499 51.2167 58.4165 50.3 59.0832 49.3C59.7832 48.3 60.3332 47.3333 60.7332 46.4C61.1665 45.4333 61.4665 44.5333 61.6332 43.7C61.8665 42.5333 61.8665 41.7833 61.6332 41.45C61.4999 41.45 61.3165 41.5167 61.0832 41.65C60.8832 41.75 60.4499 42.1333 59.7832 42.8C59.1165 43.4333 58.3832 44.3167 57.5832 45.45C56.1499 47.45 54.6665 50.3 53.1332 54ZM88.782 39.25C89.0487 39.2167 89.282 39.2833 89.482 39.45C89.7154 39.6167 89.8487 39.8333 89.882 40.1C89.9154 40.3667 89.8487 40.6 89.682 40.8C88.3154 42.5667 86.682 43.95 84.782 44.95C82.882 45.95 81.0987 46.2667 79.432 45.9C78.9654 47.0333 78.3154 47.9333 77.482 48.6C76.6487 49.2333 75.782 49.55 74.882 49.55H74.832C73.932 49.5167 73.132 49.2167 72.432 48.65C71.7654 48.05 71.2987 47.2333 71.032 46.2C70.5987 44.5667 70.682 43.0167 71.282 41.55C71.8487 40.05 72.682 38.95 73.782 38.25C74.0154 38.0833 74.282 38.05 74.582 38.15C74.882 37.4167 75.2987 36.85 75.832 36.45C76.3987 36.05 76.982 35.9 77.582 36C77.9154 36.0667 78.2154 36.2167 78.482 36.45C78.782 36.65 79.0654 36.9833 79.332 37.45C79.632 37.9167 79.8487 38.6333 79.982 39.6C80.1154 40.5667 80.1487 41.7167 80.082 43.05C80.0487 43.3833 79.9987 43.7167 79.932 44.05C81.1987 44.3167 82.5987 44 84.132 43.1C85.6987 42.2 87.032 41.0333 88.132 39.6C88.2987 39.4 88.5154 39.2833 88.782 39.25ZM74.882 47.6C75.3487 47.6 75.832 47.3833 76.332 46.95C76.8654 46.5167 77.2987 45.9333 77.632 45.2C75.4654 44 74.332 42.3667 74.232 40.3C73.5654 40.9333 73.0987 41.7833 72.832 42.85C72.5987 43.9167 72.6154 44.85 72.882 45.65C73.2487 46.95 73.9154 47.6 74.882 47.6ZM78.132 42.95C78.1987 42.15 78.1987 41.4667 78.132 40.9C78.0987 40.3 78.0487 39.8167 77.982 39.45C77.9154 39.0833 77.832 38.7833 77.732 38.55C77.632 38.3167 77.532 38.15 77.432 38.05C77.3654 37.95 77.3154 37.9 77.282 37.9H77.232C77.0987 37.9 76.932 38.0167 76.732 38.25C76.532 38.45 76.382 38.7333 76.282 39.1C76.082 39.8 76.1154 40.5167 76.382 41.25C76.6487 41.9833 77.232 42.65 78.132 43.25C78.132 43.15 78.132 43.05 78.132 42.95ZM106.598 39.45C106.864 39.3833 107.098 39.4167 107.298 39.55C107.531 39.6833 107.681 39.8833 107.748 40.15C107.814 40.4167 107.781 40.65 107.648 40.85C107.248 41.4833 106.814 42.1667 106.348 42.9C105.881 43.6 105.181 44.5667 104.248 45.8C103.348 47.0333 102.481 48.1167 101.648 49.05C100.814 49.95 99.9143 50.75 98.9477 51.45C97.981 52.15 97.1477 52.5 96.4477 52.5C96.181 52.5 95.9477 52.45 95.7477 52.35C94.1477 51.75 93.6977 49.2 94.3977 44.7C93.2977 46.2 92.2977 47.3333 91.3977 48.1C90.0977 49.2 88.9643 49.3333 87.9977 48.5C87.0977 47.7667 86.6977 46.4667 86.7977 44.6C86.8643 42.7333 87.3977 40.9333 88.3977 39.2C88.531 38.9667 88.731 38.8167 88.9977 38.75C89.2643 38.6833 89.5143 38.7167 89.7477 38.85C89.981 38.9833 90.131 39.1833 90.1977 39.45C90.2643 39.6833 90.231 39.9167 90.0977 40.15C89.531 41.0833 89.131 42.0667 88.8977 43.1C88.6977 44.1333 88.631 45 88.6977 45.7C88.7977 46.3667 88.9643 46.8 89.1977 47C89.3643 47.1667 89.681 47.05 90.1477 46.65C91.0143 45.9167 92.0977 44.6 93.3977 42.7C93.631 42.4 93.7977 42.1833 93.8977 42.05C94.031 41.8833 94.181 41.7 94.3477 41.5C94.5143 41.2667 94.6477 41.1167 94.7477 41.05C94.8477 40.9833 94.9643 40.9167 95.0977 40.85C95.231 40.75 95.3643 40.7167 95.4977 40.75C95.631 40.75 95.781 40.7833 95.9477 40.85C96.381 41.0167 96.6143 41.4 96.6477 42C96.681 42.5667 96.5977 43.3167 96.3977 44.25C96.031 46.0833 95.881 47.4833 95.9477 48.45C96.0477 49.4167 96.131 50.0167 96.1977 50.25C96.2643 50.45 96.3477 50.55 96.4477 50.55C96.5477 50.6167 96.7143 50.5833 96.9477 50.45C97.2143 50.35 97.5143 50.1667 97.8477 49.9C98.2143 49.6333 98.6143 49.3 99.0477 48.9C99.481 48.4667 99.9643 47.95 100.498 47.35C101.064 46.75 101.631 46.1 102.198 45.4C102.764 44.6667 103.381 43.8333 104.048 42.9C104.714 41.9333 105.364 40.9167 105.998 39.85C106.131 39.6167 106.331 39.4833 106.598 39.45ZM147.225 20.85C147.391 21.05 147.458 21.2833 147.425 21.55C147.391 21.8167 147.258 22.0333 147.025 22.2C146.625 22.4667 146.241 22.45 145.875 22.15C144.275 21.5833 133.041 21.5333 112.175 22C110.008 31.1 107.808 40.9667 105.575 51.6C102.908 64.4333 101.291 73.25 100.725 78.05C100.791 78.05 100.858 78.0667 100.925 78.1C101.191 78.1667 101.375 78.3167 101.475 78.55C101.575 78.8167 101.575 79.0667 101.475 79.3C101.308 79.8333 101.175 80.2167 101.075 80.45C100.941 80.7167 100.758 80.9667 100.525 81.2C100.291 81.4667 100.041 81.6 99.7746 81.6C99.6746 81.6 99.5579 81.5833 99.4246 81.55C98.9913 81.4167 98.7413 81.0667 98.6746 80.5C98.5746 79.9333 98.6079 79.1667 98.7746 78.2C98.9079 76.8 99.2079 74.7833 99.6746 72.15C100.508 67.15 101.758 60.65 103.425 52.65C105.658 41.85 107.908 31.65 110.175 22.05C107.908 22.0833 105.091 22.15 101.725 22.25C96.3913 22.3833 93.2579 22.45 92.3246 22.45C92.0579 22.45 91.8413 22.3667 91.6746 22.2C91.4746 22 91.3746 21.7667 91.3746 21.5C91.3746 21.3333 91.4246 21.1833 91.5246 21.05C91.5913 20.8833 91.7079 20.7667 91.8746 20.7C92.0079 20.6 92.1579 20.55 92.3246 20.55C93.2579 20.55 96.3746 20.4667 101.675 20.3C104.975 20.2333 107.975 20.1667 110.675 20.1C111.741 15.7 112.691 11.9667 113.525 8.9C113.591 8.63334 113.741 8.43334 113.975 8.30001C114.208 8.16667 114.441 8.13334 114.675 8.2C114.941 8.26667 115.141 8.41667 115.275 8.65C115.408 8.88334 115.441 9.13334 115.375 9.4C114.575 12.3667 113.658 15.9167 112.625 20.05C122.625 19.7833 130.175 19.6833 135.275 19.75C140.375 19.8167 143.575 19.9333 144.875 20.1C146.208 20.2333 146.991 20.4833 147.225 20.85Z" fill="white" fill-opacity="0.33"/>
</svg>
