<svg width="1440" height="564" viewBox="0 0 1440 564" fill="none" xmlns="http://www.w3.org/2000/svg">
<rect y="49" width="1440" height="515" fill="#304730"/>
<mask id="mask0_153_70" style="mask-type:alpha" maskUnits="userSpaceOnUse" x="0" y="49" width="1440" height="515">
<rect y="49" width="1440" height="515" fill="#507850"/>
</mask>
<g mask="url(#mask0_153_70)">
<path d="M749.768 -85.7922C753.806 -88.1282 757.925 -91.7554 760.543 -96.2555C763.161 -100.756 764.488 -105.338 764.315 -110.793C764.351 -115.457 763.095 -120.203 760.258 -124.532C757.711 -129.36 753.291 -133.27 747.289 -136.762C741.788 -139.963 735.704 -142.165 730.248 -141.992C724.583 -142.612 719.836 -141.358 715.799 -139.022C711.762 -136.685 707.934 -133.558 705.025 -128.558C702.406 -124.058 700.788 -118.976 701.252 -114.021C701.217 -109.356 702.472 -104.61 705.519 -99.4908C708.356 -95.1626 712.776 -91.2524 718.778 -87.7602C724.78 -84.2681 730.364 -82.358 735.529 -82.0299C740.985 -82.2019 745.731 -83.4561 749.768 -85.7922Z" fill="url(#paint0_linear_153_70)"/>
<path d="M801.679 -41.5339C853.963 -64.6567 865.239 -140.419 865.239 -140.419C865.239 -140.419 849.636 -127.41 831.359 -121.312C818.911 -117.177 800.17 -116.034 789.896 -105.28C779.622 -94.5253 772.021 -76.8606 777.396 -75.7415C782.77 -74.6224 799.2 -92.504 804.956 -85.1387C807.876 -82.1015 801.639 -73.6833 793.11 -65.929C791.737 -64.7199 790.364 -63.5109 788.7 -61.8018C785.954 -59.3837 782.999 -57.7566 780.253 -55.3385C779.171 -54.6295 778.089 -53.9205 776.507 -53.5025C773.261 -51.3755 769.515 -49.5393 766.56 -47.9123C752.366 -40.777 740.581 -38.933 740.581 -38.933C776.246 -28.8904 801.679 -41.5339 801.679 -41.5339Z" fill="url(#paint1_linear_153_70)"/>
<path d="M552.286 -34.0408C556.323 -36.3769 560.442 -40.004 563.06 -44.5042C565.678 -49.0043 567.006 -53.5865 566.832 -59.0418C566.868 -63.706 565.613 -68.4523 562.775 -72.7805C560.228 -77.6087 555.809 -81.5188 549.807 -85.011C544.305 -88.2122 538.221 -90.4133 532.765 -90.2413C527.1 -90.8604 522.353 -89.6062 518.316 -87.2702C514.279 -84.9341 510.451 -81.8069 507.542 -76.8067C504.923 -72.3065 503.305 -67.2244 503.77 -62.2691C503.734 -57.6049 504.989 -52.8588 508.036 -47.7396C510.874 -43.4114 515.293 -39.5012 521.295 -36.009C527.297 -32.5168 532.881 -30.6068 538.046 -30.2787C543.211 -29.9507 547.958 -31.2047 552.286 -34.0408Z" fill="url(#paint2_linear_153_70)"/>
<path d="M604.406 11.0088C656.689 -12.114 667.966 -87.8761 667.966 -87.8761C667.966 -87.8761 652.363 -74.8676 634.086 -68.7694C621.638 -64.6343 602.897 -63.4913 592.623 -52.7369C582.348 -41.9824 574.748 -24.3177 580.123 -23.1987C585.497 -22.0796 601.926 -39.9613 607.683 -32.596C610.603 -29.5588 604.366 -21.1405 595.837 -13.3862C594.464 -12.1772 593.091 -10.9681 591.427 -9.25909C588.681 -6.84096 585.726 -5.21381 582.98 -2.79577C581.898 -2.08671 580.816 -1.37786 579.234 -0.959812C575.988 1.16725 572.242 3.00339 569.287 4.63049C555.093 11.7658 543.308 13.6098 543.308 13.6098C579.264 23.1523 604.406 11.0088 604.406 11.0088Z" fill="url(#paint3_linear_153_70)"/>
<path d="M355.013 18.502C359.05 16.1659 363.169 12.5388 365.787 8.03856C368.406 3.53838 369.733 -1.04376 369.559 -6.49899C369.595 -11.1632 368.34 -15.9095 365.502 -20.2376C362.956 -25.0659 358.536 -28.9762 352.534 -32.4683C347.032 -35.6695 340.948 -37.8705 335.492 -37.6985C329.827 -38.3176 325.08 -37.0635 321.043 -34.7274C317.006 -32.3912 313.178 -29.2642 310.269 -24.264C307.65 -19.7638 306.033 -14.6816 306.497 -9.72635C306.461 -5.06215 307.716 -0.316041 310.763 4.80316C313.601 9.13139 318.021 13.0416 324.023 16.5337C330.025 20.0259 335.608 21.936 340.773 22.264C346.229 22.092 350.976 20.8381 355.013 18.502Z" fill="url(#paint4_linear_153_70)"/>
<path d="M406.632 63.2602C458.916 40.1374 470.192 -35.6246 470.192 -35.6246C470.192 -35.6246 454.589 -22.6162 436.313 -16.518C423.864 -12.3829 405.123 -11.2399 394.849 -0.48547C384.575 10.269 376.975 27.9336 382.349 29.0527C387.723 30.1718 404.153 12.2902 409.91 19.6555C412.829 22.6926 406.592 31.1109 398.063 38.8652C396.69 40.0743 395.317 41.2833 393.653 42.9924C390.908 45.4105 387.952 47.0376 385.206 49.4557C384.124 50.1647 383.043 50.8736 381.46 51.2916C378.214 53.4187 374.468 55.2548 371.513 56.8819C357.319 64.0171 345.534 65.8612 345.534 65.8612C381.49 75.4037 406.632 63.2602 406.632 63.2602Z" fill="url(#paint5_linear_153_70)"/>
<path d="M157.239 70.7533C161.276 68.4172 165.395 64.7901 168.013 60.2899C170.632 55.7897 171.959 51.2076 171.786 45.7524C171.821 41.0881 170.566 36.3419 167.728 32.0137C165.182 27.1855 160.762 23.2753 154.76 19.7832C149.258 16.582 143.174 14.3809 137.718 14.5529C132.053 13.9338 127.307 15.1879 123.27 17.524C119.232 19.86 115.404 22.9871 112.495 27.9874C109.877 32.4875 108.259 37.5697 108.723 42.5249C108.687 47.1891 109.943 51.9353 112.989 57.0546C115.827 61.3828 120.247 65.293 126.249 68.7852C132.251 72.2773 137.834 74.1874 142.999 74.5154C148.455 74.3434 153.202 73.0894 157.239 70.7533Z" fill="url(#paint6_linear_153_70)"/>
<path d="M209.149 115.012C261.433 91.8889 272.709 16.1267 272.709 16.1267C272.709 16.1267 257.107 29.1351 238.83 35.2333C226.381 39.3684 207.64 40.5116 197.366 51.266C187.092 62.0204 179.492 79.6851 184.866 80.8041C190.24 81.9232 206.67 64.0415 212.427 71.4068C215.346 74.444 209.109 82.8623 200.58 90.6166C199.207 91.8256 197.834 93.0347 196.171 94.7437C193.425 97.1618 190.47 98.7889 187.724 101.207C186.642 101.916 185.56 102.625 183.977 103.043C180.731 105.17 176.985 107.006 174.03 108.633C159.836 115.768 148.051 117.613 148.051 117.613C183.716 127.655 209.149 115.012 209.149 115.012Z" fill="url(#paint7_linear_153_70)"/>
<path d="M-40.2438 122.505C-36.2067 120.169 -32.0878 116.542 -29.4694 112.041C-26.8511 107.541 -25.5239 102.959 -25.6973 97.5038C-25.6615 92.8396 -26.9169 88.0933 -29.7545 83.7651C-32.3011 78.9369 -36.7209 75.0267 -42.7229 71.5346C-48.2247 68.3334 -54.3084 66.1323 -59.7643 66.3043C-65.4295 65.6852 -70.1762 66.9393 -74.2133 69.2754C-78.2505 71.6115 -82.0784 74.7386 -84.9877 79.7388C-87.6061 84.239 -89.2241 89.3212 -88.7598 94.2764C-88.7957 98.9406 -87.5402 103.687 -84.4934 108.806C-81.6558 113.134 -77.236 117.044 -71.234 120.537C-65.2321 124.029 -59.6486 125.939 -54.4835 126.267C-49.3185 126.595 -44.5719 125.341 -40.2438 122.505Z" fill="url(#paint8_linear_153_70)"/>
<path d="M11.876 167.554C64.1599 144.432 75.4362 68.6695 75.4362 68.6695C75.4362 68.6695 59.8335 81.678 41.5567 87.7762C29.1084 91.9113 10.3672 93.0542 0.0929824 103.809C-10.1813 114.563 -17.7813 132.228 -12.407 133.347C-7.03274 134.466 9.39688 116.584 15.1538 123.95C18.0731 126.987 11.836 135.405 3.30734 143.159C1.93437 144.368 0.561461 145.577 -1.10242 147.286C-3.84832 149.705 -6.80355 151.332 -9.54944 153.75C-10.6315 154.459 -11.7135 155.168 -13.2957 155.586C-16.5418 157.713 -20.288 159.549 -23.2431 161.176C-37.437 168.311 -49.2217 170.155 -49.2217 170.155C-13.2657 179.698 11.876 167.554 11.876 167.554Z" fill="url(#paint9_linear_153_70)"/>
<path d="M-237.517 175.048C-233.48 172.711 -229.361 169.084 -226.742 164.584C-224.124 160.084 -222.797 155.502 -222.97 150.047C-222.935 145.382 -224.19 140.636 -227.027 136.308C-229.574 131.48 -233.994 127.57 -239.996 124.077C-245.498 120.876 -251.581 118.675 -257.037 118.847C-262.703 118.228 -267.449 119.482 -271.486 121.818C-275.524 124.154 -279.351 127.281 -282.261 132.282C-284.879 136.782 -286.497 141.864 -286.033 146.819C-286.069 151.483 -284.813 156.23 -281.766 161.349C-278.929 165.677 -274.509 169.587 -268.507 173.079C-262.505 176.572 -256.922 178.482 -251.757 178.81C-246.301 178.638 -241.554 177.384 -237.517 175.048Z" fill="url(#paint10_linear_153_70)"/>
<path d="M-185.898 219.806C-133.614 196.683 -122.337 120.921 -122.337 120.921C-122.337 120.921 -137.94 133.929 -156.217 140.028C-168.665 144.163 -187.406 145.306 -197.681 156.06C-207.955 166.815 -215.555 184.479 -210.181 185.598C-204.806 186.717 -188.377 168.836 -182.62 176.201C-179.701 179.238 -185.938 187.657 -194.466 195.411C-195.839 196.62 -197.212 197.829 -198.876 199.538C-201.622 201.956 -204.577 203.583 -207.323 206.001C-208.405 206.71 -209.487 207.419 -211.069 207.837C-214.315 209.964 -218.062 211.8 -221.017 213.427C-235.211 220.563 -246.995 222.407 -246.995 222.407C-211.039 231.949 -185.898 219.806 -185.898 219.806Z" fill="url(#paint11_linear_153_70)"/>
<path d="M-435.29 227.299C-431.253 224.963 -427.134 221.336 -424.516 216.836C-421.898 212.336 -420.57 207.753 -420.744 202.298C-420.708 197.634 -421.963 192.888 -424.801 188.559C-427.348 183.731 -431.767 179.821 -437.769 176.329C-443.271 173.128 -449.355 170.927 -454.811 171.099C-460.476 170.48 -465.223 171.734 -469.26 174.07C-473.297 176.406 -477.125 179.533 -480.034 184.533C-482.653 189.033 -484.271 194.116 -483.806 199.071C-483.842 203.735 -482.587 208.481 -479.54 213.6C-476.702 217.929 -472.283 221.839 -466.281 225.331C-460.279 228.823 -454.695 230.733 -449.53 231.061C-444.074 230.889 -439.328 229.635 -435.29 227.299Z" fill="url(#paint12_linear_153_70)"/>
<path d="M-383.38 271.557C-331.096 248.435 -319.82 172.672 -319.82 172.672C-319.82 172.672 -335.423 185.681 -353.7 191.779C-366.148 195.914 -384.889 197.057 -395.163 207.812C-405.437 218.566 -413.038 236.231 -407.663 237.35C-402.289 238.469 -385.859 220.587 -380.103 227.953C-377.183 230.99 -383.42 239.408 -391.949 247.162C-393.322 248.371 -394.695 249.58 -396.359 251.29C-399.105 253.708 -402.06 255.335 -404.806 257.753C-405.888 258.462 -406.97 259.171 -408.552 259.589C-411.798 261.716 -415.544 263.552 -418.499 265.179C-432.693 272.314 -444.478 274.158 -444.478 274.158C-408.813 284.201 -383.38 271.557 -383.38 271.557Z" fill="url(#paint13_linear_153_70)"/>
<path d="M915.323 10.5337C919.36 8.19769 923.479 4.57055 926.098 0.0703683C928.716 -4.42981 930.043 -9.01201 929.87 -14.4673C929.906 -19.1315 928.65 -23.8776 925.813 -28.2057C923.266 -33.034 918.846 -36.9442 912.844 -40.4364C907.342 -43.6375 901.259 -45.8386 895.803 -45.6666C890.138 -46.2857 885.391 -45.0317 881.354 -42.6956C877.317 -40.3595 873.489 -37.2324 870.579 -32.2322C867.961 -27.732 866.343 -22.6497 866.807 -17.6946C866.772 -13.0304 868.027 -8.28416 871.074 -3.1649C873.911 1.1633 878.331 5.07351 884.333 8.56567C890.335 12.0578 895.918 13.9679 901.084 14.296C906.039 13.8329 910.786 12.5788 915.323 10.5337Z" fill="url(#paint14_linear_153_70)"/>
<path d="M967.233 54.792C1019.52 31.6692 1030.79 -44.0929 1030.79 -44.0929C1030.79 -44.0929 1015.19 -31.0845 996.914 -24.9864C984.466 -20.8513 965.725 -19.7082 955.451 -8.95375C945.176 1.80059 937.576 19.4653 942.951 20.5844C948.325 21.7035 964.754 3.82181 970.511 11.1872C973.431 14.2243 967.193 22.6426 958.665 30.3969C957.292 31.606 955.919 32.8149 954.255 34.5241C951.509 36.9421 948.554 38.5692 945.808 40.9874C944.726 41.6963 943.644 42.4053 942.062 42.8233C938.816 44.9504 935.069 46.7865 932.114 48.4135C917.92 55.5488 906.136 57.3929 906.136 57.3929C941.801 67.4354 967.233 54.792 967.233 54.792Z" fill="url(#paint15_linear_153_70)"/>
<path d="M717.841 62.2851C721.878 59.949 725.997 56.3219 728.615 51.8218C731.233 47.3216 732.56 42.7393 732.387 37.2841C732.423 32.6199 731.168 27.8736 728.33 23.5455C725.783 18.7172 721.363 14.807 715.361 11.3149C709.86 8.11372 703.776 5.91261 698.32 6.08461C692.655 5.46556 687.908 6.71964 683.871 9.05575C679.834 11.3919 676.006 14.5189 673.097 19.5192C670.478 24.0194 668.86 29.1015 669.325 34.0568C669.289 38.7209 670.544 43.4671 673.591 48.5863C676.429 52.9145 680.848 56.8247 686.85 60.3169C692.852 63.8091 698.436 65.7192 703.601 66.0472C708.766 66.3752 713.512 65.1212 717.841 62.2851Z" fill="url(#paint16_linear_153_70)"/>
<path d="M769.46 107.043C821.744 83.9205 833.02 8.15849 833.02 8.15849C833.02 8.15849 817.417 21.167 799.14 27.2652C786.692 31.4003 767.951 32.5433 757.677 43.2977C747.403 54.0521 739.802 71.7168 745.177 72.8359C750.551 73.9549 766.981 56.0733 772.738 63.4386C775.657 66.4757 769.42 74.8941 760.891 82.6483C759.518 83.8573 758.145 85.0664 756.481 86.7755C753.735 89.1936 750.78 90.8207 748.034 93.2388C746.952 93.9478 745.87 94.6567 744.288 95.0747C741.042 97.2018 737.296 99.0379 734.341 100.665C720.147 107.8 708.362 109.644 708.362 109.644C744.318 119.187 769.46 107.043 769.46 107.043Z" fill="url(#paint17_linear_153_70)"/>
<path d="M520.067 114.537C524.104 112.2 528.223 108.573 530.841 104.073C533.46 99.5729 534.787 94.9908 534.613 89.5355C534.649 84.8713 533.394 80.125 530.556 75.7969C528.01 70.9686 523.59 67.0584 517.588 63.5662C512.086 60.3651 506.002 58.164 500.546 58.336C494.881 57.7169 490.135 58.9711 486.097 61.3072C482.06 63.6433 478.232 66.7703 475.323 71.7705C472.705 76.2707 471.087 81.353 471.551 86.3082C471.515 90.9724 472.77 95.7185 475.817 100.838C478.655 105.166 483.075 109.076 489.077 112.568C495.079 116.06 500.662 117.971 505.827 118.299C511.283 118.127 516.03 116.873 520.067 114.537Z" fill="url(#paint18_linear_153_70)"/>
<path d="M571.686 159.295C623.97 136.172 635.246 60.4099 635.246 60.4099C635.246 60.4099 619.644 73.4183 601.367 79.5165C588.918 83.6516 570.177 84.7947 559.903 95.5491C549.629 106.303 542.029 123.968 547.403 125.087C552.777 126.206 569.207 108.325 574.964 115.69C577.883 118.727 571.646 127.145 563.117 134.9C561.744 136.109 560.371 137.318 558.708 139.027C555.962 141.445 553.006 143.072 550.261 145.49C549.179 146.199 548.097 146.908 546.514 147.326C543.268 149.453 539.522 151.289 536.567 152.916C522.373 160.052 510.588 161.896 510.588 161.896C546.544 171.438 571.686 159.295 571.686 159.295Z" fill="url(#paint19_linear_153_70)"/>
<path d="M322.293 166.788C326.33 164.452 330.449 160.825 333.068 156.324C335.686 151.824 337.013 147.242 336.84 141.787C336.876 137.123 335.62 132.376 332.782 128.048C330.236 123.22 325.816 119.31 319.814 115.818C314.312 112.617 308.229 110.415 302.773 110.587C297.107 109.968 292.361 111.222 288.324 113.559C284.287 115.895 280.459 119.022 277.549 124.022C274.931 128.522 273.313 133.604 273.777 138.559C273.741 143.224 274.997 147.97 278.044 153.089C280.881 157.417 285.301 161.328 291.303 164.82C297.305 168.312 302.888 170.222 308.053 170.55C313.509 170.378 318.256 169.124 322.293 166.788Z" fill="url(#paint20_linear_153_70)"/>
<path d="M374.704 211.337C426.988 188.215 438.264 112.453 438.264 112.453C438.264 112.453 422.661 125.461 404.385 131.559C391.936 135.694 373.195 136.837 362.921 147.592C352.647 158.346 345.047 176.011 350.421 177.13C355.795 178.249 372.225 160.367 377.982 167.733C380.901 170.77 374.664 179.188 366.135 186.942C364.762 188.151 363.389 189.361 361.725 191.07C358.979 193.488 356.024 195.115 353.278 197.533C352.196 198.242 351.114 198.951 349.532 199.369C346.286 201.496 342.54 203.332 339.585 204.959C325.391 212.094 313.606 213.938 313.606 213.938C349.271 223.981 374.704 211.337 374.704 211.337Z" fill="url(#paint21_linear_153_70)"/>
<path d="M125.311 218.831C129.348 216.495 133.467 212.868 136.086 208.367C138.704 203.867 140.031 199.285 139.858 193.83C139.894 189.166 138.638 184.419 135.801 180.091C133.254 175.263 128.834 171.353 122.832 167.861C117.33 164.659 111.247 162.458 105.791 162.63C100.126 162.011 95.379 163.265 91.3418 165.601C87.3047 167.938 83.4767 171.065 80.5674 176.065C77.9491 180.565 76.331 185.647 76.7953 190.602C76.7595 195.267 78.0149 200.013 81.0618 205.132C83.8994 209.46 88.3192 213.37 94.3212 216.863C100.323 220.355 105.907 222.265 111.072 222.593C116.237 222.921 120.983 221.667 125.311 218.831Z" fill="url(#paint22_linear_153_70)"/>
<path d="M176.93 263.589C229.214 240.466 240.491 164.704 240.491 164.704C240.491 164.704 224.888 177.713 206.611 183.811C194.163 187.946 175.422 189.089 165.147 199.843C154.873 210.598 147.273 228.263 152.647 229.382C158.022 230.501 174.451 212.619 180.208 219.984C183.128 223.021 176.891 231.44 168.362 239.194C166.989 240.403 165.616 241.612 163.952 243.321C161.206 245.739 158.251 247.366 155.505 249.785C154.423 250.494 153.341 251.203 151.759 251.621C148.513 253.748 144.766 255.584 141.811 257.211C127.617 264.346 115.833 266.19 115.833 266.19C151.789 275.733 176.93 263.589 176.93 263.589Z" fill="url(#paint23_linear_153_70)"/>
<path d="M-72.4625 271.082C-68.4253 268.746 -64.3064 265.119 -61.6881 260.619C-59.0697 256.119 -57.7426 251.537 -57.916 246.081C-57.8801 241.417 -59.1355 236.671 -61.9731 232.343C-64.5197 227.514 -68.9396 223.604 -74.9415 220.112C-80.4434 216.911 -86.527 214.71 -91.9829 214.882C-97.6481 214.263 -102.395 215.517 -106.432 217.853C-110.469 220.189 -114.297 223.316 -117.206 228.316C-119.825 232.816 -121.443 237.899 -120.978 242.854C-121.014 247.518 -119.759 252.264 -116.712 257.383C-113.874 261.712 -109.455 265.622 -103.453 269.114C-97.4507 272.606 -91.8672 274.516 -86.7021 274.844C-81.2462 274.672 -76.4996 273.418 -72.4625 271.082Z" fill="url(#paint24_linear_153_70)"/>
<path d="M-20.8433 315.841C31.4406 292.718 42.717 216.956 42.717 216.956C42.717 216.956 27.1143 229.964 8.83742 236.062C-3.61086 240.197 -22.352 241.34 -32.6263 252.095C-42.9005 262.849 -50.5006 280.514 -45.1263 281.633C-39.752 282.752 -23.3224 264.87 -17.5655 272.236C-14.6462 275.273 -20.8833 283.691 -29.4119 291.446C-30.7849 292.655 -32.1578 293.864 -33.8217 295.573C-36.5676 297.991 -39.5228 299.618 -42.2687 302.036C-43.3507 302.745 -44.4328 303.454 -46.0149 303.872C-49.261 305.999 -53.0072 307.835 -55.9624 309.462C-70.1562 316.597 -81.941 318.441 -81.941 318.441C-45.985 327.984 -20.8433 315.841 -20.8433 315.841Z" fill="url(#paint25_linear_153_70)"/>
<path d="M-270.236 323.334C-266.199 320.998 -262.08 317.37 -259.462 312.87C-256.843 308.37 -255.516 303.788 -255.69 298.333C-255.654 293.669 -256.909 288.922 -259.747 284.594C-262.293 279.766 -266.713 275.856 -272.715 272.363C-278.217 269.162 -284.301 266.961 -289.757 267.133C-295.422 266.514 -300.169 267.768 -304.206 270.104C-308.243 272.44 -312.071 275.568 -314.98 280.568C-317.598 285.068 -319.216 290.15 -318.752 295.105C-318.788 299.77 -317.533 304.516 -314.486 309.635C-311.648 313.963 -307.228 317.873 -301.226 321.365C-295.224 324.858 -289.641 326.768 -284.476 327.096C-279.02 326.924 -274.273 325.67 -270.236 323.334Z" fill="url(#paint26_linear_153_70)"/>
<path d="M-217.825 367.883C-165.542 344.761 -154.265 268.998 -154.265 268.998C-154.265 268.998 -169.868 282.007 -188.145 288.105C-200.593 292.24 -219.334 293.383 -229.608 304.138C-239.883 314.892 -247.483 332.557 -242.108 333.676C-236.734 334.795 -220.305 316.913 -214.548 324.278C-211.628 327.316 -217.865 335.734 -226.394 343.488C-227.767 344.697 -229.14 345.906 -230.804 347.615C-233.55 350.034 -236.505 351.661 -239.251 354.079C-240.333 354.788 -241.415 355.497 -242.997 355.915C-246.243 358.042 -249.989 359.878 -252.945 361.505C-267.138 368.64 -278.923 370.484 -278.923 370.484C-243.258 380.527 -217.825 367.883 -217.825 367.883Z" fill="url(#paint27_linear_153_70)"/>
<path d="M1080.38 106.568C1084.41 104.232 1088.53 100.605 1091.15 96.1049C1093.77 91.6047 1095.1 87.0225 1094.92 81.5673C1094.96 76.9031 1093.7 72.157 1090.87 67.8288C1088.32 63.0006 1083.9 59.0904 1077.9 55.5982C1072.4 52.397 1066.31 50.1959 1060.86 50.368C1055.19 49.7489 1050.45 51.0029 1046.41 53.3389C1042.37 55.6751 1038.54 58.8021 1035.63 63.8023C1033.02 68.3025 1031.4 73.3848 1031.86 78.34C1031.83 83.0042 1033.08 87.7504 1036.13 92.8697C1038.97 97.1978 1043.39 101.108 1049.39 104.6C1055.39 108.092 1060.97 110.002 1066.14 110.33C1071.59 110.159 1076.34 108.904 1080.38 106.568Z" fill="url(#paint28_linear_153_70)"/>
<path d="M1132.29 150.826C1184.57 127.704 1195.85 51.9416 1195.85 51.9416C1195.85 51.9416 1180.25 64.95 1161.97 71.0482C1149.52 75.1833 1130.78 76.3264 1120.5 87.0808C1110.23 97.8352 1102.63 115.5 1108 116.619C1113.38 117.738 1129.81 99.8564 1135.57 107.222C1138.48 110.259 1132.25 118.677 1123.72 126.431C1122.35 127.641 1120.97 128.85 1119.31 130.559C1116.56 132.977 1113.61 134.604 1110.86 137.022C1109.78 137.731 1108.7 138.44 1107.12 138.858C1103.87 140.985 1100.12 142.821 1097.17 144.448C1082.97 151.583 1071.19 153.427 1071.19 153.427C1106.85 163.47 1132.29 150.826 1132.29 150.826Z" fill="url(#paint29_linear_153_70)"/>
<path d="M882.895 158.32C886.932 155.984 891.051 152.356 893.669 147.856C896.287 143.356 897.615 138.774 897.441 133.319C897.477 128.654 896.222 123.908 893.384 119.58C890.837 114.752 886.418 110.842 880.416 107.349C874.914 104.148 868.83 101.947 863.374 102.119C857.709 101.5 852.962 102.754 848.925 105.09C844.888 107.426 841.06 110.553 838.151 115.554C835.532 120.054 833.914 125.136 834.379 130.091C834.343 134.755 835.598 139.502 838.645 144.621C841.483 148.949 845.902 152.859 851.904 156.351C857.906 159.844 863.49 161.754 868.655 162.082C873.82 162.41 878.567 161.156 882.895 158.32Z" fill="url(#paint30_linear_153_70)"/>
<path d="M935.014 203.369C987.298 180.246 998.575 104.484 998.575 104.484C998.575 104.484 982.972 117.493 964.695 123.591C952.247 127.726 933.506 128.869 923.231 139.623C912.957 150.378 905.357 168.043 910.731 169.162C916.106 170.281 932.535 152.399 938.292 159.764C941.212 162.802 934.974 171.22 926.446 178.974C925.073 180.183 923.7 181.392 922.036 183.101C919.29 185.519 916.335 187.147 913.589 189.565C912.507 190.274 911.425 190.983 909.843 191.401C906.597 193.528 902.85 195.364 899.895 196.991C885.701 204.126 873.917 205.97 873.917 205.97C909.373 215.222 935.014 203.369 935.014 203.369Z" fill="url(#paint31_linear_153_70)"/>
<path d="M685.622 210.862C689.659 208.526 693.778 204.899 696.396 200.399C699.014 195.899 700.341 191.317 700.168 185.861C700.204 181.197 698.949 176.451 696.111 172.123C693.564 167.295 689.145 163.384 683.143 159.892C677.641 156.691 671.557 154.49 666.101 154.662C660.436 154.043 655.689 155.297 651.652 157.633C647.615 159.969 643.787 163.096 640.878 168.096C638.259 172.597 636.641 177.679 637.106 182.634C637.07 187.298 638.325 192.044 641.372 197.164C644.21 201.492 648.629 205.402 654.631 208.894C660.633 212.386 666.217 214.296 671.382 214.624C676.338 214.161 681.584 213.198 685.622 210.862Z" fill="url(#paint32_linear_153_70)"/>
<path d="M737.241 255.621C789.525 232.498 800.801 156.736 800.801 156.736C800.801 156.736 785.198 169.744 766.921 175.842C754.473 179.977 735.732 181.12 725.458 191.875C715.184 202.629 707.583 220.294 712.958 221.413C718.332 222.532 734.762 204.651 740.519 212.016C743.438 215.053 737.201 223.471 728.672 231.226C727.299 232.435 725.926 233.644 724.262 235.353C721.516 237.771 718.561 239.398 715.815 241.816C714.733 242.525 713.651 243.234 712.069 243.652C708.823 245.779 705.077 247.615 702.122 249.242C687.928 256.377 676.143 258.222 676.143 258.222C712.099 267.764 737.241 255.621 737.241 255.621Z" fill="url(#paint33_linear_153_70)"/>
<path d="M487.848 263.114C491.885 260.778 496.004 257.151 498.622 252.65C501.241 248.15 502.568 243.568 502.394 238.113C502.43 233.449 501.175 228.702 498.337 224.374C495.791 219.546 491.371 215.636 485.369 212.144C479.867 208.942 473.783 206.741 468.327 206.913C462.662 206.294 457.916 207.548 453.878 209.884C449.841 212.22 446.013 215.348 443.104 220.348C440.486 224.848 438.868 229.93 439.332 234.885C439.296 239.55 440.552 244.296 443.598 249.415C446.436 253.743 450.856 257.653 456.858 261.146C462.86 264.638 468.443 266.548 473.608 266.876C479.064 266.704 483.811 265.45 487.848 263.114Z" fill="url(#paint34_linear_153_70)"/>
<path d="M539.758 307.372C592.042 284.249 603.318 208.487 603.318 208.487C603.318 208.487 587.716 221.496 569.439 227.594C556.99 231.729 538.249 232.872 527.975 243.626C517.701 254.381 510.101 272.045 515.475 273.165C520.849 274.284 537.279 256.402 543.036 263.767C545.955 266.804 539.718 275.223 531.189 282.977C529.816 284.186 528.443 285.395 526.78 287.104C524.034 289.522 521.079 291.149 518.333 293.567C517.251 294.277 516.169 294.985 514.586 295.403C511.34 297.531 507.594 299.367 504.639 300.994C490.445 308.129 478.66 309.973 478.66 309.973C514.325 320.016 539.758 307.372 539.758 307.372Z" fill="url(#paint35_linear_153_70)"/>
<path d="M290.366 314.866C294.403 312.529 298.522 308.902 301.14 304.402C303.759 299.902 305.086 295.32 304.912 289.865C304.948 285.2 303.693 280.454 300.855 276.126C298.308 271.298 293.889 267.388 287.887 263.895C282.385 260.694 276.301 258.493 270.845 258.665C265.18 258.046 260.433 259.3 256.396 261.636C252.359 263.972 248.531 267.099 245.622 272.1C243.003 276.6 241.385 281.682 241.85 286.637C241.814 291.301 243.069 296.048 246.116 301.167C248.954 305.495 253.374 309.405 259.376 312.897C265.378 316.389 270.961 318.3 276.126 318.628C281.291 318.956 286.038 317.702 290.366 314.866Z" fill="url(#paint36_linear_153_70)"/>
<path d="M341.985 359.624C394.269 336.501 405.545 260.739 405.545 260.739C405.545 260.739 389.942 273.747 371.666 279.846C359.217 283.981 340.476 285.124 330.202 295.878C319.928 306.633 312.328 324.297 317.702 325.416C323.076 326.535 339.506 308.654 345.263 316.019C348.182 319.056 341.945 327.475 333.416 335.229C332.043 336.438 330.67 337.647 329.006 339.356C326.26 341.774 323.305 343.401 320.559 345.819C319.477 346.528 318.395 347.237 316.813 347.655C313.567 349.782 309.821 351.618 306.866 353.245C292.672 360.381 280.887 362.225 280.887 362.225C316.843 371.767 341.985 359.624 341.985 359.624Z" fill="url(#paint37_linear_153_70)"/>
<path d="M92.5919 367.117C96.6291 364.781 100.748 361.154 103.366 356.654C105.985 352.153 107.312 347.571 107.138 342.116C107.174 337.452 105.919 332.706 103.081 328.377C100.535 323.549 96.1149 319.639 90.1129 316.147C84.6111 312.946 78.5275 310.745 73.0715 310.916C67.4063 310.297 62.6597 311.552 58.6225 313.888C54.5853 316.224 50.7574 319.351 47.8481 324.351C45.2297 328.851 43.6117 333.933 44.076 338.889C44.0401 343.553 45.2956 348.299 48.3424 353.418C51.18 357.746 55.5998 361.657 61.6018 365.149C67.6037 368.641 73.1873 370.551 78.3523 370.879C83.8083 370.707 88.5547 369.453 92.5919 367.117Z" fill="url(#paint38_linear_153_70)"/>
<path d="M144.712 412.167C196.996 389.044 208.272 313.282 208.272 313.282C208.272 313.282 192.669 326.29 174.393 332.388C161.944 336.524 143.203 337.667 132.929 348.421C122.655 359.175 115.055 376.84 120.429 377.959C125.803 379.078 142.233 361.196 147.99 368.562C150.909 371.599 144.672 380.017 136.143 387.772C134.77 388.981 133.397 390.19 131.733 391.899C128.987 394.317 126.032 395.944 123.286 398.362C122.204 399.071 121.122 399.78 119.54 400.198C116.294 402.325 112.548 404.161 109.593 405.788C95.3988 412.923 83.6141 414.768 83.6141 414.768C119.57 424.31 144.712 412.167 144.712 412.167Z" fill="url(#paint39_linear_153_70)"/>
<path d="M-104.681 419.66C-100.644 417.324 -96.525 413.697 -93.9067 409.196C-91.2883 404.696 -89.9612 400.114 -90.1346 394.659C-90.0987 389.995 -91.3541 385.248 -94.1917 380.92C-96.7383 376.092 -101.158 372.182 -107.16 368.69C-112.662 365.488 -118.746 363.287 -124.202 363.459C-129.867 362.84 -134.613 364.094 -138.651 366.43C-142.688 368.767 -146.516 371.894 -149.425 376.894C-152.043 381.394 -153.661 386.476 -153.197 391.431C-153.233 396.096 -151.977 400.842 -148.931 405.961C-146.093 410.289 -141.673 414.199 -135.671 417.692C-129.669 421.184 -124.086 423.094 -118.921 423.422C-113.465 423.25 -108.718 421.996 -104.681 419.66Z" fill="url(#paint40_linear_153_70)"/>
<path d="M-52.7709 463.918C-0.48701 440.795 10.7893 365.033 10.7893 365.033C10.7893 365.033 -4.81334 378.042 -23.0902 384.14C-35.5385 388.275 -54.2797 389.418 -64.5539 400.172C-74.8282 410.927 -82.4282 428.591 -77.0539 429.711C-71.6797 430.83 -55.25 412.948 -49.4931 420.313C-46.5739 423.35 -52.811 431.769 -61.3396 439.523C-62.7126 440.732 -64.0855 441.941 -65.7494 443.65C-68.4953 446.068 -71.4505 447.695 -74.1964 450.113C-75.2784 450.822 -76.3604 451.532 -77.9426 451.95C-81.1887 454.077 -84.9349 455.913 -87.89 457.54C-102.084 464.675 -113.869 466.519 -113.869 466.519C-78.2036 476.561 -52.7709 463.918 -52.7709 463.918Z" fill="url(#paint41_linear_153_70)"/>
<path d="M1245.43 202.603C1249.47 200.267 1253.59 196.64 1256.21 192.14C1258.82 187.64 1260.15 183.057 1259.98 177.602C1260.01 172.938 1258.76 168.192 1255.92 163.864C1253.37 159.036 1248.96 155.125 1242.95 151.633C1237.45 148.432 1231.37 146.231 1225.91 146.403C1220.25 145.784 1215.5 147.038 1211.46 149.374C1207.43 151.71 1203.6 154.837 1200.69 159.837C1198.07 164.337 1196.45 169.42 1196.92 174.375C1196.88 179.039 1198.14 183.785 1201.18 188.905C1204.02 193.233 1208.44 197.143 1214.44 200.635C1220.44 204.127 1226.03 206.037 1231.19 206.365C1236.65 206.193 1241.39 204.939 1245.43 202.603Z" fill="url(#paint42_linear_153_70)"/>
<path d="M1297.84 247.153C1350.13 224.03 1361.4 148.268 1361.4 148.268C1361.4 148.268 1345.8 161.276 1327.52 167.374C1315.08 171.509 1296.33 172.653 1286.06 183.407C1275.79 194.161 1268.19 211.826 1273.56 212.945C1278.93 214.064 1295.36 196.183 1301.12 203.548C1304.04 206.585 1297.8 215.003 1289.27 222.758C1287.9 223.967 1286.53 225.176 1284.86 226.885C1282.12 229.303 1279.16 230.93 1276.42 233.348C1275.34 234.057 1274.25 234.766 1272.67 235.184C1269.43 237.311 1265.68 239.147 1262.72 240.774C1248.53 247.91 1236.75 249.754 1236.75 249.754C1272.41 259.796 1297.84 247.153 1297.84 247.153Z" fill="url(#paint43_linear_153_70)"/>
<path d="M1048.45 254.646C1052.49 252.31 1056.61 248.683 1059.22 244.183C1061.84 239.682 1063.17 235.1 1063 229.645C1063.03 224.981 1061.78 220.234 1058.94 215.906C1056.39 211.078 1051.97 207.168 1045.97 203.676C1040.47 200.475 1034.39 198.273 1028.93 198.445C1023.26 197.826 1018.52 199.08 1014.48 201.417C1010.44 203.753 1006.62 206.88 1003.71 211.88C1001.09 216.38 999.47 221.462 999.934 226.418C999.898 231.082 1001.15 235.828 1004.2 240.947C1007.04 245.275 1011.46 249.186 1017.46 252.678C1023.46 256.17 1029.05 258.08 1034.21 258.408C1039.38 258.736 1044.12 257.482 1048.45 254.646Z" fill="url(#paint44_linear_153_70)"/>
<path d="M1100.07 299.404C1152.35 276.281 1163.63 200.519 1163.63 200.519C1163.63 200.519 1148.03 213.528 1129.75 219.626C1117.3 223.761 1098.56 224.904 1088.29 235.658C1078.01 246.413 1070.41 264.077 1075.79 265.197C1081.16 266.316 1097.59 248.434 1103.35 255.799C1106.27 258.836 1100.03 267.255 1091.5 275.009C1090.13 276.218 1088.75 277.427 1087.09 279.136C1084.34 281.554 1081.39 283.181 1078.64 285.6C1077.56 286.309 1076.48 287.017 1074.9 287.435C1071.65 289.563 1067.91 291.399 1064.95 293.026C1050.76 300.161 1038.97 302.005 1038.97 302.005C1074.93 311.548 1100.07 299.404 1100.07 299.404Z" fill="url(#paint45_linear_153_70)"/>
<path d="M850.676 306.897C854.713 304.561 858.832 300.934 861.451 296.434C864.069 291.934 865.396 287.351 865.223 281.896C865.259 277.232 864.003 272.486 861.166 268.158C858.619 263.329 854.199 259.419 848.197 255.927C842.696 252.726 836.612 250.525 831.156 250.697C825.491 250.078 820.744 251.332 816.707 253.668C812.67 256.004 808.842 259.131 805.932 264.131C803.314 268.631 801.696 273.714 802.16 278.669C802.124 283.333 803.38 288.079 806.427 293.198C809.264 297.527 813.684 301.437 819.686 304.929C825.688 308.421 831.272 310.331 836.437 310.659C841.893 310.487 846.639 309.233 850.676 306.897Z" fill="url(#paint46_linear_153_70)"/>
<path d="M902.295 351.655C954.579 328.533 965.856 252.771 965.856 252.771C965.856 252.771 950.253 265.779 931.976 271.877C919.528 276.012 900.787 277.155 890.513 287.91C880.238 298.664 872.638 316.329 878.012 317.448C883.387 318.567 899.816 300.685 905.573 308.051C908.493 311.088 902.256 319.506 893.727 327.261C892.354 328.47 890.981 329.679 889.317 331.388C886.571 333.806 883.616 335.433 880.87 337.851C879.788 338.56 878.706 339.269 877.124 339.687C873.878 341.814 870.132 343.65 867.176 345.277C852.983 352.412 841.198 354.256 841.198 354.256C877.154 363.799 902.295 351.655 902.295 351.655Z" fill="url(#paint47_linear_153_70)"/>
<path d="M652.903 359.149C656.94 356.812 661.059 353.185 663.677 348.685C666.295 344.185 667.623 339.603 667.449 334.148C667.485 329.483 666.23 324.737 663.392 320.409C660.845 315.581 656.426 311.671 650.424 308.178C644.922 304.977 638.838 302.776 633.382 302.948C627.717 302.329 622.97 303.583 618.933 305.919C614.896 308.255 611.068 311.382 608.159 316.383C605.54 320.883 603.922 325.965 604.387 330.92C604.351 335.584 605.606 340.331 608.653 345.45C611.491 349.778 615.91 353.688 621.912 357.18C627.914 360.673 633.498 362.583 638.663 362.911C644.119 362.739 648.865 361.485 652.903 359.149Z" fill="url(#paint48_linear_153_70)"/>
<path d="M705.313 403.698C757.597 380.575 768.874 304.813 768.874 304.813C768.874 304.813 753.271 317.822 734.994 323.92C722.546 328.055 703.805 329.198 693.53 339.953C683.256 350.707 675.656 368.372 681.03 369.491C686.405 370.61 702.834 352.728 708.591 360.093C711.511 363.131 705.273 371.549 696.745 379.303C695.372 380.512 693.999 381.721 692.335 383.43C689.589 385.848 686.634 387.476 683.888 389.894C682.806 390.603 681.724 391.312 680.142 391.73C676.896 393.857 673.149 395.693 670.194 397.32C656 404.455 644.216 406.299 644.216 406.299C679.881 416.342 705.313 403.698 705.313 403.698Z" fill="url(#paint49_linear_153_70)"/>
<path d="M455.921 411.191C459.958 408.855 464.077 405.228 466.695 400.728C469.313 396.228 470.64 391.646 470.467 386.19C470.503 381.526 469.247 376.78 466.41 372.452C463.863 367.624 459.443 363.713 453.441 360.221C447.94 357.02 441.856 354.819 436.4 354.991C430.735 354.372 425.988 355.626 421.951 357.962C417.914 360.298 414.086 363.425 411.177 368.425C408.558 372.926 406.94 378.008 407.405 382.963C407.369 387.627 408.624 392.373 411.671 397.493C414.509 401.821 418.928 405.731 424.93 409.223C430.932 412.715 436.516 414.625 441.681 414.953C446.346 414.99 451.592 414.028 455.921 411.191Z" fill="url(#paint50_linear_153_70)"/>
<path d="M507.54 455.95C559.824 432.827 571.1 357.065 571.1 357.065C571.1 357.065 555.497 370.073 537.22 376.172C524.772 380.307 506.031 381.45 495.757 392.204C485.482 402.958 477.882 420.623 483.257 421.742C488.631 422.861 505.061 404.98 510.817 412.345C513.737 415.382 507.5 423.8 498.971 431.555C497.598 432.764 496.225 433.973 494.561 435.682C491.815 438.1 488.86 439.727 486.114 442.145C485.032 442.854 483.95 443.563 482.368 443.981C479.122 446.108 475.376 447.944 472.421 449.571C458.227 456.707 446.442 458.551 446.442 458.551C482.398 468.093 507.54 455.95 507.54 455.95Z" fill="url(#paint51_linear_153_70)"/>
<path d="M258.147 463.443C262.184 461.107 266.303 457.48 268.921 452.979C271.539 448.479 272.867 443.897 272.693 438.442C272.729 433.778 271.474 429.031 268.636 424.703C266.089 419.875 261.67 415.965 255.668 412.473C250.166 409.271 244.082 407.07 238.626 407.242C232.961 406.623 228.214 407.877 224.177 410.213C220.14 412.55 216.312 415.677 213.403 420.677C210.785 425.177 209.166 430.259 209.631 435.214C209.595 439.879 210.85 444.625 213.897 449.744C216.735 454.072 221.154 457.982 227.156 461.475C233.158 464.967 238.742 466.877 243.907 467.205C249.363 467.033 254.11 465.779 258.147 463.443Z" fill="url(#paint52_linear_153_70)"/>
<path d="M309.766 508.201C362.05 485.078 373.326 409.316 373.326 409.316C373.326 409.316 357.724 422.325 339.447 428.423C326.998 432.558 308.257 433.701 297.983 444.456C287.709 455.21 280.109 472.875 285.483 473.994C290.857 475.113 307.287 457.231 313.044 464.596C315.963 467.634 309.726 476.052 301.197 483.806C299.824 485.015 298.451 486.224 296.787 487.933C294.042 490.351 291.086 491.978 288.34 494.397C287.258 495.106 286.177 495.815 284.594 496.233C281.348 498.36 277.602 500.196 274.647 501.823C260.453 508.958 248.668 510.802 248.668 510.802C284.624 520.345 309.766 508.201 309.766 508.201Z" fill="url(#paint53_linear_153_70)"/>
<path d="M60.373 515.694C64.4101 513.358 68.529 509.731 71.1473 505.231C73.7657 500.731 75.0929 496.148 74.9195 490.693C74.9553 486.029 73.7 481.283 70.8624 476.955C68.3157 472.126 63.8959 468.216 57.894 464.724C52.3921 461.523 46.3085 459.322 40.8525 459.494C35.1873 458.875 30.4407 460.129 26.4035 462.465C22.3663 464.801 18.5384 467.928 15.6291 472.928C13.0108 477.428 11.3927 482.511 11.857 487.466C11.8212 492.13 13.0766 496.876 16.1234 501.995C18.961 506.324 23.3808 510.234 29.3828 513.726C35.3848 517.218 40.9683 519.128 46.1333 519.456C51.5893 519.284 56.3358 518.03 60.373 515.694Z" fill="url(#paint54_linear_153_70)"/>
<path d="M112.283 559.953C164.567 536.83 175.843 461.068 175.843 461.068C175.843 461.068 160.241 474.076 141.964 480.174C129.516 484.309 110.774 485.452 100.5 496.207C90.2259 506.961 82.6259 524.626 88.0002 525.745C93.3744 526.864 109.804 508.982 115.561 516.348C118.48 519.385 112.243 527.803 103.714 535.558C102.341 536.767 100.969 537.976 99.3046 539.685C96.5588 542.103 93.6036 543.73 90.8577 546.148C89.7757 546.857 88.6937 547.566 87.1115 547.984C83.8654 550.111 80.1192 551.947 77.164 553.574C62.9702 560.709 51.1855 562.553 51.1855 562.553C86.8505 572.596 112.283 559.953 112.283 559.953Z" fill="url(#paint55_linear_153_70)"/>
<path d="M1410.99 298.929C1415.02 296.593 1419.14 292.966 1421.76 288.466C1424.38 283.965 1425.71 279.383 1425.53 273.928C1425.57 269.264 1424.31 264.518 1421.48 260.19C1418.93 255.361 1414.51 251.451 1408.51 247.959C1403.01 244.758 1396.92 242.557 1391.47 242.729C1385.8 242.11 1381.05 243.364 1377.02 245.7C1372.98 248.036 1369.15 251.163 1366.24 256.163C1363.62 260.663 1362.01 265.746 1362.47 270.701C1362.44 275.365 1363.69 280.111 1366.74 285.23C1369.57 289.559 1373.99 293.469 1380 296.961C1386 300.453 1391.58 302.363 1396.75 302.691C1402.2 302.519 1406.95 301.265 1410.99 298.929Z" fill="url(#paint56_linear_153_70)"/>
<path d="M1462.9 343.187C1515.18 320.064 1526.46 244.302 1526.46 244.302C1526.46 244.302 1510.85 257.311 1492.58 263.409C1480.13 267.544 1461.39 268.687 1451.11 279.442C1440.84 290.196 1433.24 307.861 1438.61 308.98C1443.99 310.099 1460.42 292.217 1466.17 299.582C1469.09 302.62 1462.86 311.038 1454.33 318.792C1452.96 320.001 1451.58 321.21 1449.92 322.919C1447.17 325.337 1444.22 326.965 1441.47 329.383C1440.39 330.092 1439.31 330.801 1437.73 331.219C1434.48 333.346 1430.73 335.182 1427.78 336.809C1413.58 343.944 1401.8 345.788 1401.8 345.788C1437.46 355.831 1462.9 343.187 1462.9 343.187Z" fill="url(#paint57_linear_153_70)"/>
<path d="M1213.5 350.68C1217.54 348.344 1221.66 344.717 1224.28 340.217C1226.9 335.717 1228.22 331.135 1228.05 325.679C1228.09 321.015 1226.83 316.269 1223.99 311.941C1221.45 307.113 1217.03 303.202 1211.03 299.71C1205.52 296.509 1199.44 294.308 1193.98 294.48C1188.32 293.861 1183.57 295.115 1179.53 297.451C1175.5 299.787 1171.67 302.914 1168.76 307.915C1166.14 312.415 1164.52 317.497 1164.99 322.452C1164.95 327.116 1166.21 331.862 1169.25 336.982C1172.09 341.31 1176.51 345.22 1182.51 348.712C1188.52 352.204 1194.1 354.115 1199.26 354.442C1204.43 354.771 1209.18 353.516 1213.5 350.68Z" fill="url(#paint58_linear_153_70)"/>
<path d="M1265.12 395.439C1317.41 372.316 1328.68 296.554 1328.68 296.554C1328.68 296.554 1313.08 309.562 1294.8 315.66C1282.36 319.796 1263.61 320.939 1253.34 331.693C1243.07 342.447 1235.47 360.112 1240.84 361.231C1246.21 362.35 1262.64 344.469 1268.4 351.834C1271.32 354.871 1265.08 363.289 1256.55 371.044C1255.18 372.253 1253.81 373.462 1252.14 375.171C1249.4 377.589 1246.44 379.216 1243.7 381.634C1242.62 382.343 1241.53 383.052 1239.95 383.47C1236.71 385.597 1232.96 387.433 1230 389.06C1215.81 396.196 1204.03 398.04 1204.03 398.04C1239.98 407.582 1265.12 395.439 1265.12 395.439Z" fill="url(#paint59_linear_153_70)"/>
<path d="M1015.73 402.932C1019.77 400.596 1023.89 396.969 1026.5 392.468C1029.12 387.968 1030.45 383.386 1030.28 377.931C1030.31 373.267 1029.06 368.52 1026.22 364.192C1023.67 359.364 1019.25 355.454 1013.25 351.961C1007.75 348.76 1001.67 346.559 996.21 346.731C990.545 346.112 985.798 347.366 981.761 349.702C977.724 352.039 973.896 355.166 970.987 360.166C968.368 364.666 966.75 369.748 967.215 374.703C967.179 379.368 968.434 384.114 971.481 389.233C974.318 393.561 978.738 397.471 984.74 400.963C990.742 404.456 996.326 406.366 1001.49 406.694C1006.95 406.522 1011.69 405.268 1015.73 402.932Z" fill="url(#paint60_linear_153_70)"/>
<path d="M1067.85 447.981C1120.13 424.859 1131.41 349.096 1131.41 349.096C1131.41 349.096 1115.81 362.105 1097.53 368.203C1085.08 372.338 1066.34 373.481 1056.07 384.236C1045.79 394.99 1038.19 412.655 1043.57 413.774C1048.94 414.893 1065.37 397.011 1071.13 404.376C1074.05 407.414 1067.81 415.832 1059.28 423.586C1057.91 424.795 1056.54 426.004 1054.87 427.713C1052.13 430.132 1049.17 431.759 1046.42 434.177C1045.34 434.886 1044.26 435.595 1042.68 436.013C1039.43 438.14 1035.69 439.976 1032.73 441.603C1018.54 448.738 1006.75 450.582 1006.75 450.582C1042.71 460.125 1067.85 447.981 1067.85 447.981Z" fill="url(#paint61_linear_153_70)"/>
<path d="M818.457 455.474C822.495 453.138 826.614 449.511 829.232 445.011C831.85 440.511 833.177 435.929 833.004 430.473C833.04 425.809 831.784 421.063 828.947 416.735C826.4 411.907 821.98 407.996 815.978 404.504C810.477 401.303 804.393 399.102 798.937 399.274C793.272 398.655 788.525 399.909 784.488 402.245C780.451 404.581 776.623 407.708 773.714 412.709C771.095 417.209 769.477 422.291 769.941 427.246C769.906 431.91 771.161 436.657 774.208 441.776C777.045 446.104 781.465 450.014 787.467 453.506C793.469 456.998 799.053 458.909 804.218 459.237C809.674 459.065 814.42 457.81 818.457 455.474Z" fill="url(#paint62_linear_153_70)"/>
<path d="M870.367 499.733C922.651 476.61 933.928 400.848 933.928 400.848C933.928 400.848 918.325 413.856 900.048 419.954C887.6 424.09 868.859 425.233 858.584 435.987C848.31 446.741 840.71 464.406 846.084 465.525C851.459 466.644 867.888 448.763 873.645 456.128C876.565 459.165 870.328 467.583 861.799 475.338C860.426 476.547 859.053 477.756 857.389 479.465C854.643 481.883 851.688 483.51 848.942 485.928C847.86 486.637 846.778 487.346 845.196 487.764C841.95 489.891 838.203 491.727 835.248 493.354C821.054 500.49 809.27 502.334 809.27 502.334C844.935 512.376 870.367 499.733 870.367 499.733Z" fill="url(#paint63_linear_153_70)"/>
<path d="M620.975 507.226C625.012 504.89 629.131 501.263 631.749 496.762C634.367 492.262 635.694 487.68 635.521 482.225C635.557 477.561 634.302 472.814 631.464 468.486C628.917 463.658 624.497 459.748 618.496 456.256C612.994 453.055 606.91 450.853 601.454 451.025C595.789 450.406 591.042 451.661 587.005 453.997C582.968 456.333 579.14 459.46 576.231 464.46C573.612 468.96 571.994 474.042 572.459 478.998C572.423 483.662 573.678 488.408 576.725 493.527C579.563 497.855 583.982 501.766 589.984 505.258C595.986 508.75 601.57 510.66 606.735 510.988C611.9 511.316 616.647 510.062 620.975 507.226Z" fill="url(#paint64_linear_153_70)"/>
<path d="M672.594 551.984C724.878 528.862 736.154 453.099 736.154 453.099C736.154 453.099 720.551 466.108 702.275 472.206C689.826 476.341 671.085 477.484 660.811 488.239C650.537 498.993 642.937 516.658 648.311 517.777C653.685 518.896 670.115 501.014 675.872 508.38C678.791 511.417 672.554 519.835 664.025 527.589C662.652 528.798 661.279 530.007 659.615 531.716C656.869 534.134 653.914 535.762 651.168 538.18C650.086 538.889 649.004 539.598 647.422 540.016C644.176 542.143 640.43 543.979 637.475 545.606C623.281 552.741 611.496 554.585 611.496 554.585C647.452 564.128 672.594 551.984 672.594 551.984Z" fill="url(#paint65_linear_153_70)"/>
<path d="M423.201 559.477C427.238 557.141 431.357 553.514 433.975 549.014C436.594 544.514 437.921 539.932 437.747 534.476C437.783 529.812 436.528 525.066 433.69 520.738C431.143 515.909 426.724 511.999 420.722 508.507C415.22 505.306 409.136 503.105 403.68 503.277C398.015 502.658 393.268 503.912 389.231 506.248C385.194 508.584 381.366 511.711 378.457 516.711C375.839 521.212 374.221 526.294 374.685 531.249C374.649 535.913 375.904 540.659 378.951 545.779C381.789 550.107 386.209 554.017 392.211 557.509C398.213 561.001 403.796 562.911 408.961 563.239C414.417 563.067 419.164 561.813 423.201 559.477Z" fill="url(#paint66_linear_153_70)"/>
<path d="M475.321 604.527C527.604 581.404 538.881 505.642 538.881 505.642C538.881 505.642 523.278 518.651 505.001 524.749C492.553 528.884 473.812 530.027 463.538 540.781C453.263 551.536 445.663 569.2 451.038 570.32C456.412 571.439 472.841 553.557 478.598 560.922C481.518 563.959 475.281 572.378 466.752 580.132C465.379 581.341 464.006 582.55 462.342 584.259C459.596 586.677 456.641 588.304 453.895 590.722C452.813 591.431 451.731 592.14 450.149 592.558C446.903 594.685 443.157 596.521 440.201 598.149C426.008 605.284 414.223 607.128 414.223 607.128C450.179 616.67 475.321 604.527 475.321 604.527Z" fill="url(#paint67_linear_153_70)"/>
<path d="M225.929 612.021C229.966 609.684 234.085 606.057 236.703 601.557C239.321 597.057 240.648 592.475 240.475 587.02C240.511 582.355 239.255 577.609 236.418 573.281C233.871 568.453 229.451 564.542 223.449 561.05C217.948 557.849 211.864 555.648 206.408 555.82C200.743 555.201 195.996 556.455 191.959 558.791C187.922 561.127 184.094 564.254 181.185 569.255C178.566 573.755 176.948 578.837 177.412 583.792C177.377 588.456 178.632 593.203 181.679 598.322C184.517 602.65 188.936 606.56 194.938 610.052C200.94 613.544 206.524 615.455 211.689 615.783C217.145 615.611 221.891 614.357 225.929 612.021Z" fill="url(#paint68_linear_153_70)"/>
<path d="M277.838 656.279C330.122 633.156 341.399 557.394 341.399 557.394C341.399 557.394 325.796 570.402 307.519 576.501C295.071 580.636 276.33 581.779 266.056 592.533C255.781 603.287 248.181 620.952 253.556 622.071C258.93 623.19 275.359 605.309 281.116 612.674C284.036 615.711 277.799 624.129 269.27 631.884C267.897 633.093 266.524 634.302 264.86 636.011C262.114 638.429 259.159 640.056 256.413 642.474C255.331 643.183 254.249 643.892 252.667 644.31C249.421 646.437 245.674 648.273 242.719 649.9C228.526 657.036 216.741 658.88 216.741 658.88C252.406 668.922 277.838 656.279 277.838 656.279Z" fill="url(#paint69_linear_153_70)"/>
<path d="M1576.04 394.964C1580.08 392.628 1584.2 389 1586.82 384.5C1589.43 380 1590.76 375.418 1590.59 369.963C1590.62 365.298 1589.37 360.552 1586.53 356.224C1583.98 351.396 1579.56 347.486 1573.56 343.994C1568.06 340.792 1561.98 338.591 1556.52 338.763C1550.86 338.144 1546.11 339.398 1542.07 341.734C1538.03 344.07 1534.21 347.197 1531.3 352.198C1528.68 356.698 1527.06 361.78 1527.53 366.735C1527.49 371.4 1528.74 376.146 1531.79 381.265C1534.63 385.593 1539.05 389.503 1545.05 392.996C1551.05 396.488 1556.64 398.398 1561.8 398.726C1567.26 398.554 1572 397.3 1576.04 394.964Z" fill="url(#paint70_linear_153_70)"/>
<path d="M1627.95 439.222C1680.24 416.099 1691.51 340.337 1691.51 340.337C1691.51 340.337 1675.91 353.345 1657.63 359.443C1645.18 363.579 1626.44 364.722 1616.17 375.476C1605.89 386.23 1598.29 403.895 1603.67 405.014C1609.04 406.133 1625.47 388.252 1631.23 395.617C1634.15 398.654 1627.91 407.072 1619.38 414.827C1618.01 416.036 1616.64 417.245 1614.97 418.954C1612.23 421.372 1609.27 422.999 1606.53 425.417C1605.44 426.126 1604.36 426.835 1602.78 427.253C1599.53 429.38 1595.79 431.216 1592.83 432.843C1578.64 439.979 1566.85 441.823 1566.85 441.823C1602.52 451.865 1627.95 439.222 1627.95 439.222Z" fill="url(#paint71_linear_153_70)"/>
<path d="M1379.06 447.006C1383.1 444.67 1387.21 441.043 1389.83 436.543C1392.45 432.043 1393.78 427.46 1393.61 422.005C1393.64 417.341 1392.39 412.595 1389.55 408.267C1387 403.438 1382.58 399.528 1376.58 396.036C1371.08 392.835 1364.99 390.634 1359.54 390.806C1353.87 390.187 1349.13 391.441 1345.09 393.777C1341.05 396.113 1337.22 399.24 1334.32 404.24C1331.7 408.74 1330.08 413.823 1330.54 418.778C1330.51 423.442 1331.76 428.188 1334.81 433.307C1337.65 437.636 1342.07 441.546 1348.07 445.038C1354.07 448.53 1359.65 450.44 1364.82 450.768C1369.48 450.805 1374.23 449.551 1379.06 447.006Z" fill="url(#paint72_linear_153_70)"/>
<path d="M1430.68 491.764C1482.96 468.642 1494.24 392.88 1494.24 392.88C1494.24 392.88 1478.64 405.888 1460.36 411.986C1447.91 416.121 1429.17 417.264 1418.89 428.019C1408.62 438.773 1401.02 456.438 1406.4 457.557C1411.77 458.676 1428.2 440.794 1433.96 448.16C1436.88 451.197 1430.64 459.615 1422.11 467.369C1420.74 468.578 1419.36 469.788 1417.7 471.497C1414.95 473.915 1412 475.542 1409.25 477.96C1408.17 478.669 1407.09 479.378 1405.51 479.796C1402.26 481.923 1398.51 483.759 1395.56 485.386C1381.36 492.521 1369.58 494.365 1369.58 494.365C1405.54 503.908 1430.68 491.764 1430.68 491.764Z" fill="url(#paint73_linear_153_70)"/>
<path d="M1181.29 499.258C1185.32 496.922 1189.44 493.294 1192.06 488.794C1194.68 484.294 1196.01 479.712 1195.83 474.257C1195.87 469.592 1194.61 464.846 1191.77 460.518C1189.23 455.69 1184.81 451.78 1178.81 448.287C1173.3 445.086 1167.22 442.885 1161.76 443.057C1156.1 442.438 1151.35 443.692 1147.32 446.028C1143.28 448.364 1139.45 451.491 1136.54 456.492C1133.92 460.992 1132.3 466.074 1132.77 471.029C1132.73 475.693 1133.99 480.44 1137.04 485.559C1139.87 489.887 1144.29 493.797 1150.3 497.289C1156.3 500.782 1161.88 502.692 1167.05 503.02C1172.5 502.848 1177.25 501.594 1181.29 499.258Z" fill="url(#paint74_linear_153_70)"/>
<path d="M1232.9 544.016C1285.19 520.893 1296.46 445.131 1296.46 445.131C1296.46 445.131 1280.86 458.14 1262.59 464.238C1250.14 468.373 1231.4 469.516 1221.12 480.27C1210.85 491.025 1203.25 508.689 1208.62 509.808C1214 510.927 1230.43 493.046 1236.18 500.411C1239.1 503.448 1232.86 511.867 1224.34 519.621C1222.96 520.83 1221.59 522.039 1219.93 523.748C1217.18 526.166 1214.22 527.793 1211.48 530.211C1210.4 530.92 1209.31 531.629 1207.73 532.047C1204.49 534.174 1200.74 536.01 1197.79 537.638C1183.59 544.773 1171.81 546.617 1171.81 546.617C1207.76 556.159 1232.9 544.016 1232.9 544.016Z" fill="url(#paint75_linear_153_70)"/>
<path d="M983.511 551.509C987.549 549.173 991.668 545.546 994.286 541.046C996.904 536.545 998.231 531.963 998.058 526.508C998.094 521.844 996.838 517.098 994.001 512.769C991.454 507.941 987.034 504.031 981.033 500.539C975.531 497.338 969.447 495.137 963.991 495.309C958.326 494.689 953.579 495.944 949.542 498.28C945.505 500.616 941.677 503.743 938.768 508.743C936.149 513.243 934.531 518.325 934.995 523.281C934.96 527.945 936.215 532.691 939.262 537.81C942.1 542.138 946.519 546.049 952.521 549.541C958.523 553.033 964.107 554.943 969.272 555.271C974.728 555.099 979.474 553.845 983.511 551.509Z" fill="url(#paint76_linear_153_70)"/>
<path d="M1035.42 595.767C1087.71 572.645 1098.98 496.882 1098.98 496.882C1098.98 496.882 1083.38 509.891 1065.1 515.989C1052.65 520.124 1033.91 521.267 1023.64 532.022C1013.36 542.776 1005.76 560.441 1011.14 561.56C1016.51 562.679 1032.94 544.797 1038.7 552.162C1041.62 555.2 1035.38 563.618 1026.85 571.372C1025.48 572.581 1024.11 573.79 1022.44 575.499C1019.7 577.917 1016.74 579.545 1014 581.963C1012.91 582.672 1011.83 583.381 1010.25 583.799C1007 585.926 1003.26 587.762 1000.3 589.389C986.108 596.524 974.324 598.368 974.324 598.368C1009.99 608.411 1035.42 595.767 1035.42 595.767Z" fill="url(#paint77_linear_153_70)"/>
<path d="M786.029 603.261C790.066 600.925 794.185 597.298 796.804 592.797C799.422 588.297 800.749 583.715 800.576 578.26C800.612 573.596 799.356 568.849 796.519 564.521C793.972 559.693 789.552 555.783 783.55 552.291C778.048 549.089 771.965 546.888 766.509 547.06C760.844 546.441 756.097 547.695 752.06 550.031C748.023 552.368 744.195 555.495 741.286 560.495C738.667 564.995 737.049 570.077 737.513 575.032C737.477 579.697 738.733 584.443 741.78 589.562C744.617 593.89 749.037 597.8 755.039 601.293C761.041 604.785 766.625 606.695 771.79 607.023C776.955 607.351 781.701 606.097 786.029 603.261Z" fill="url(#paint78_linear_153_70)"/>
<path d="M838.149 648.311C890.433 625.188 901.709 549.426 901.709 549.426C901.709 549.426 886.107 562.434 867.83 568.532C855.382 572.667 836.64 573.81 826.366 584.565C816.092 595.319 808.492 612.984 813.866 614.103C819.241 615.222 835.67 597.34 841.427 604.706C844.346 607.743 838.109 616.161 829.58 623.915C828.208 625.124 826.835 626.333 825.171 628.043C822.425 630.461 819.47 632.088 816.724 634.506C815.642 635.215 814.56 635.924 812.978 636.342C809.731 638.469 805.985 640.305 803.03 641.932C788.836 649.067 777.051 650.911 777.051 650.911C813.008 660.454 838.149 648.311 838.149 648.311Z" fill="url(#paint79_linear_153_70)"/>
<path d="M588.756 655.804C592.794 653.468 596.912 649.84 599.531 645.34C602.149 640.84 603.476 636.258 603.303 630.803C603.339 626.138 602.083 621.392 599.246 617.064C596.699 612.236 592.279 608.326 586.277 604.833C580.775 601.632 574.692 599.431 569.236 599.603C563.571 598.984 558.824 600.238 554.787 602.574C550.75 604.91 546.922 608.038 544.013 613.038C541.394 617.538 539.776 622.62 540.24 627.575C540.204 632.239 541.46 636.986 544.507 642.105C547.344 646.433 551.764 650.343 557.766 653.835C563.768 657.328 569.352 659.238 574.517 659.566C579.973 659.394 584.719 658.14 588.756 655.804Z" fill="url(#paint80_linear_153_70)"/>
<path d="M640.376 700.562C692.659 677.439 703.936 601.677 703.936 601.677C703.936 601.677 688.333 614.686 670.056 620.784C657.608 624.919 638.867 626.062 628.592 636.816C618.318 647.571 610.718 665.235 616.092 666.354C621.467 667.474 637.896 649.592 643.653 656.957C646.572 659.994 640.335 668.413 631.807 676.167C630.434 677.376 629.061 678.585 627.397 680.294C624.651 682.712 621.696 684.339 618.95 686.757C617.868 687.466 616.786 688.175 615.204 688.593C611.958 690.72 608.211 692.556 605.256 694.184C591.063 701.319 579.278 703.163 579.278 703.163C615.234 712.705 640.376 700.562 640.376 700.562Z" fill="url(#paint81_linear_153_70)"/>
<path d="M390.983 708.055C395.02 705.719 399.139 702.092 401.757 697.592C404.375 693.091 405.702 688.509 405.529 683.054C405.565 678.39 404.31 673.644 401.472 669.315C398.925 664.487 394.505 660.577 388.504 657.085C383.002 653.884 376.918 651.683 371.462 651.855C365.797 651.235 361.05 652.49 357.013 654.826C352.976 657.162 349.148 660.289 346.239 665.289C343.62 669.789 342.002 674.871 342.467 679.827C342.431 684.491 343.686 689.237 346.733 694.356C349.571 698.684 353.99 702.595 359.992 706.087C365.994 709.579 371.578 711.489 376.743 711.817C382.199 711.645 386.945 710.391 390.983 708.055Z" fill="url(#paint82_linear_153_70)"/>
<path d="M442.893 752.313C495.177 729.191 506.453 653.428 506.453 653.428C506.453 653.428 490.85 666.437 472.573 672.535C460.125 676.67 441.384 677.813 431.11 688.568C420.835 699.322 413.235 716.987 418.61 718.106C423.984 719.225 440.413 701.343 446.17 708.708C449.09 711.746 442.853 720.164 434.324 727.918C432.951 729.127 431.578 730.336 429.914 732.045C427.168 734.464 424.213 736.091 421.467 738.509C420.385 739.218 419.303 739.927 417.721 740.345C414.475 742.472 410.729 744.308 407.773 745.935C393.58 753.07 381.795 754.914 381.795 754.914C417.46 764.957 442.893 752.313 442.893 752.313Z" fill="url(#paint83_linear_153_70)"/>
<path d="M1741.6 491.289C1745.63 488.953 1749.75 485.326 1752.37 480.826C1754.99 476.326 1756.32 471.744 1756.14 466.288C1756.18 461.624 1754.92 456.878 1752.09 452.55C1749.54 447.722 1745.12 443.812 1739.12 440.319C1733.61 437.118 1727.53 434.917 1722.08 435.089C1716.41 434.47 1711.66 435.724 1707.63 438.06C1703.59 440.396 1699.76 443.523 1696.85 448.523C1694.23 453.024 1692.62 458.106 1693.08 463.061C1693.04 467.725 1694.3 472.472 1697.35 477.591C1700.18 481.919 1704.6 485.829 1710.61 489.321C1716.61 492.814 1722.19 494.724 1727.36 495.052C1732.81 494.88 1737.56 493.625 1741.6 491.289Z" fill="url(#paint84_linear_153_70)"/>
<path d="M1793.51 535.548C1845.79 512.425 1857.07 436.663 1857.07 436.663C1857.07 436.663 1841.46 449.671 1823.19 455.769C1810.74 459.904 1792 461.047 1781.72 471.802C1771.45 482.556 1763.85 500.221 1769.22 501.34C1774.6 502.459 1791.03 484.577 1796.78 491.943C1799.7 494.98 1793.47 503.398 1784.94 511.153C1783.56 512.362 1782.19 513.571 1780.53 515.28C1777.78 517.698 1774.83 519.325 1772.08 521.743C1771 522.452 1769.92 523.161 1768.33 523.579C1765.09 525.706 1761.34 527.542 1758.39 529.169C1744.19 536.304 1732.41 538.149 1732.41 538.149C1768.07 548.191 1793.51 535.548 1793.51 535.548Z" fill="url(#paint85_linear_153_70)"/>
<path d="M1544.11 543.041C1548.15 540.705 1552.27 537.078 1554.89 532.577C1557.51 528.077 1558.83 523.495 1558.66 518.04C1558.7 513.376 1557.44 508.629 1554.6 504.301C1552.06 499.473 1547.64 495.563 1541.63 492.071C1536.13 488.869 1530.05 486.668 1524.59 486.84C1518.93 486.221 1514.18 487.475 1510.14 489.811C1506.11 492.147 1502.28 495.275 1499.37 500.275C1496.75 504.775 1495.13 509.857 1495.6 514.812C1495.56 519.477 1496.82 524.223 1499.86 529.342C1502.7 533.67 1507.12 537.58 1513.12 541.073C1519.12 544.565 1524.71 546.475 1529.87 546.803C1535.04 547.131 1539.78 545.877 1544.11 543.041Z" fill="url(#paint86_linear_153_70)"/>
<path d="M1595.73 587.799C1648.02 564.676 1659.29 488.914 1659.29 488.914C1659.29 488.914 1643.69 501.923 1625.41 508.021C1612.96 512.156 1594.22 513.299 1583.95 524.053C1573.67 534.808 1566.07 552.472 1571.45 553.591C1576.82 554.711 1593.25 536.829 1599.01 544.194C1601.93 547.231 1595.69 555.65 1587.16 563.404C1585.79 564.613 1584.42 565.822 1582.75 567.531C1580.01 569.949 1577.05 571.576 1574.31 573.994C1573.22 574.704 1572.14 575.412 1570.56 575.83C1567.31 577.957 1563.57 579.794 1560.61 581.421C1546.42 588.556 1534.63 590.4 1534.63 590.4C1570.59 599.943 1595.73 587.799 1595.73 587.799Z" fill="url(#paint87_linear_153_70)"/>
<path d="M1346.34 595.293C1350.38 592.956 1354.5 589.329 1357.11 584.829C1359.73 580.329 1361.06 575.747 1360.89 570.291C1360.92 565.627 1359.67 560.881 1356.83 556.553C1354.28 551.725 1349.86 547.814 1343.86 544.322C1338.36 541.121 1332.28 538.92 1326.82 539.092C1321.15 538.473 1316.41 539.727 1312.37 542.063C1308.33 544.399 1304.51 547.526 1301.6 552.527C1298.98 557.027 1297.36 562.109 1297.82 567.064C1297.79 571.728 1299.04 576.474 1302.09 581.594C1304.93 585.922 1309.35 589.832 1315.35 593.324C1321.35 596.816 1326.94 598.727 1332.1 599.055C1337.56 598.883 1342.3 597.629 1346.34 595.293Z" fill="url(#paint88_linear_153_70)"/>
<path d="M1398.46 640.342C1450.74 617.219 1462.02 541.457 1462.02 541.457C1462.02 541.457 1446.42 554.466 1428.14 560.564C1415.69 564.699 1396.95 565.842 1386.68 576.596C1376.4 587.351 1368.8 605.015 1374.18 606.135C1379.55 607.254 1395.98 589.372 1401.74 596.737C1404.66 599.774 1398.42 608.193 1389.89 615.947C1388.52 617.156 1387.15 618.365 1385.48 620.074C1382.74 622.492 1379.78 624.119 1377.03 626.538C1375.95 627.247 1374.87 627.955 1373.29 628.373C1370.04 630.501 1366.3 632.337 1363.34 633.964C1349.15 641.099 1337.36 642.943 1337.36 642.943C1373.32 652.486 1398.46 640.342 1398.46 640.342Z" fill="url(#paint89_linear_153_70)"/>
<path d="M1149.07 647.835C1153.1 645.499 1157.22 641.872 1159.84 637.372C1162.46 632.872 1163.79 628.289 1163.61 622.834C1163.65 618.17 1162.39 613.424 1159.56 609.096C1157.01 604.267 1152.59 600.357 1146.59 596.865C1141.09 593.664 1135 591.463 1129.55 591.635C1123.88 591.016 1119.13 592.27 1115.1 594.606C1111.06 596.942 1107.23 600.069 1104.32 605.069C1101.7 609.569 1100.09 614.652 1100.55 619.607C1100.51 624.271 1101.77 629.017 1104.82 634.136C1107.65 638.465 1112.07 642.375 1118.08 645.867C1124.08 649.359 1129.66 651.269 1134.83 651.597C1139.78 651.134 1145.03 650.171 1149.07 647.835Z" fill="url(#paint90_linear_153_70)"/>
<path d="M1200.98 692.094C1253.26 668.971 1264.54 593.209 1264.54 593.209C1264.54 593.209 1248.93 606.217 1230.66 612.315C1218.21 616.45 1199.47 617.594 1189.19 628.348C1178.92 639.102 1171.32 656.767 1176.69 657.886C1182.07 659.005 1198.5 641.123 1204.25 648.489C1207.17 651.526 1200.94 659.944 1192.41 667.698C1191.04 668.908 1189.66 670.117 1188 671.826C1185.25 674.244 1182.3 675.871 1179.55 678.289C1178.47 678.998 1177.39 679.707 1175.81 680.125C1172.56 682.252 1168.81 684.088 1165.86 685.715C1151.66 692.85 1139.88 694.694 1139.88 694.694C1175.54 704.737 1200.98 692.094 1200.98 692.094Z" fill="url(#paint91_linear_153_70)"/>
<path d="M951.584 699.587C955.621 697.251 959.74 693.623 962.358 689.123C964.977 684.623 966.304 680.041 966.131 674.586C966.166 669.921 964.911 665.175 962.073 660.847C959.527 656.019 955.107 652.109 949.105 648.616C943.603 645.415 937.519 643.214 932.063 643.386C926.398 642.767 921.652 644.021 917.615 646.357C913.577 648.693 909.75 651.821 906.84 656.821C904.222 661.321 902.604 666.403 903.068 671.358C903.032 676.022 904.288 680.769 907.334 685.888C910.172 690.216 914.592 694.126 920.594 697.618C926.596 701.111 932.179 703.021 937.344 703.349C942.509 703.677 947.256 702.423 951.584 699.587Z" fill="url(#paint92_linear_153_70)"/>
<path d="M1003.2 744.345C1055.49 721.222 1066.76 645.46 1066.76 645.46C1066.76 645.46 1051.16 658.469 1032.88 664.567C1020.44 668.702 1001.69 669.845 991.42 680.599C981.146 691.354 973.546 709.018 978.92 710.138C984.295 711.257 1000.72 693.375 1006.48 700.74C1009.4 703.777 1003.16 712.196 994.635 719.95C993.262 721.159 991.889 722.368 990.225 724.077C987.479 726.495 984.524 728.122 981.778 730.54C980.696 731.249 979.614 731.958 978.032 732.376C974.786 734.504 971.039 736.34 968.084 737.967C953.89 745.102 942.106 746.946 942.106 746.946C978.062 756.488 1003.2 744.345 1003.2 744.345Z" fill="url(#paint93_linear_153_70)"/>
<path d="M753.81 751.838C757.847 749.502 761.966 745.875 764.585 741.375C767.203 736.875 768.53 732.292 768.357 726.837C768.393 722.173 767.137 717.427 764.3 713.098C761.753 708.27 757.333 704.36 751.331 700.868C745.829 697.667 739.746 695.466 734.29 695.638C728.625 695.019 723.878 696.273 719.841 698.609C715.804 700.945 711.976 704.072 709.067 709.072C706.448 713.572 704.83 718.654 705.294 723.61C705.258 728.274 706.514 733.02 709.561 738.139C712.398 742.467 716.818 746.378 722.82 749.87C728.822 753.362 734.406 755.272 739.571 755.6C745.027 755.428 749.773 754.174 753.81 751.838Z" fill="url(#paint94_linear_153_70)"/>
<path d="M805.43 796.597C857.714 773.474 868.99 697.712 868.99 697.712C868.99 697.712 853.387 710.72 835.11 716.818C822.662 720.953 803.921 722.096 793.647 732.851C783.372 743.605 775.772 761.27 781.147 762.389C786.521 763.508 802.95 745.626 808.707 752.992C811.627 756.029 805.39 764.447 796.861 772.201C795.488 773.41 794.115 774.619 792.451 776.329C789.705 778.747 786.75 780.374 784.004 782.792C782.922 783.501 781.84 784.21 780.258 784.628C777.012 786.755 773.266 788.591 770.311 790.218C756.117 797.353 744.332 799.197 744.332 799.197C780.288 808.74 805.43 796.597 805.43 796.597Z" fill="url(#paint95_linear_153_70)"/>
<path d="M556.037 804.09C560.074 801.754 564.193 798.126 566.811 793.626C569.429 789.126 570.757 784.544 570.583 779.089C570.619 774.424 569.364 769.678 566.526 765.35C563.979 760.522 559.56 756.612 553.558 753.119C548.056 749.918 541.972 747.717 536.516 747.889C530.851 747.27 526.104 748.524 522.067 750.86C518.03 753.196 514.202 756.323 511.293 761.324C508.674 765.824 507.056 770.906 507.521 775.861C507.485 780.525 508.74 785.272 511.787 790.391C514.625 794.719 519.045 798.629 525.046 802.121C531.048 805.614 536.632 807.524 541.797 807.852C547.253 807.68 552 806.426 556.037 804.09Z" fill="url(#paint96_linear_153_70)"/>
<path d="M608.447 848.639C660.731 825.516 672.008 749.754 672.008 749.754C672.008 749.754 656.405 762.763 638.128 768.861C625.68 772.996 606.939 774.139 596.664 784.893C586.39 795.648 578.79 813.313 584.165 814.432C589.539 815.551 605.968 797.669 611.725 805.034C614.644 808.071 608.407 816.49 599.879 824.244C598.506 825.453 597.133 826.662 595.469 828.371C592.723 830.789 589.768 832.416 587.022 834.835C585.94 835.544 584.858 836.253 583.276 836.671C580.03 838.798 576.284 840.634 573.328 842.261C559.135 849.396 547.35 851.24 547.35 851.24C583.015 861.283 608.447 848.639 608.447 848.639Z" fill="url(#paint97_linear_153_70)"/>
<path d="M1906.65 587.324C1910.69 584.988 1914.81 581.361 1917.43 576.861C1920.04 572.361 1921.37 567.779 1921.2 562.323C1921.23 557.659 1919.98 552.913 1917.14 548.585C1914.59 543.757 1910.17 539.846 1904.17 536.354C1898.67 533.153 1892.59 530.952 1887.13 531.124C1881.46 530.505 1876.72 531.759 1872.68 534.095C1868.64 536.431 1864.82 539.558 1861.91 544.558C1859.29 549.059 1857.67 554.141 1858.13 559.096C1858.1 563.76 1859.35 568.506 1862.4 573.626C1865.24 577.954 1869.66 581.864 1875.66 585.356C1881.66 588.849 1887.25 590.759 1892.41 591.087C1897.87 590.915 1902.61 589.66 1906.65 587.324Z" fill="url(#paint98_linear_153_70)"/>
<path d="M1958.56 631.583C2010.84 608.46 2022.12 532.697 2022.12 532.697C2022.12 532.697 2006.52 545.706 1988.24 551.804C1975.79 555.939 1957.05 557.082 1946.78 567.837C1936.5 578.591 1928.9 596.256 1934.28 597.375C1939.65 598.494 1956.08 580.612 1961.84 587.978C1964.76 591.015 1958.52 599.433 1949.99 607.188C1948.62 608.396 1947.25 609.605 1945.58 611.314C1942.84 613.733 1939.88 615.36 1937.14 617.778C1936.05 618.487 1934.97 619.196 1933.39 619.614C1930.14 621.741 1926.4 623.577 1923.44 625.204C1909.25 632.339 1897.46 634.183 1897.46 634.183C1933.13 644.226 1958.56 631.583 1958.56 631.583Z" fill="url(#paint99_linear_153_70)"/>
<path d="M1709.17 639.076C1713.2 636.74 1717.32 633.113 1719.94 628.612C1722.56 624.112 1723.89 619.53 1723.71 614.075C1723.75 609.41 1722.49 604.664 1719.66 600.336C1717.11 595.508 1712.69 591.598 1706.69 588.105C1701.19 584.904 1695.1 582.703 1689.65 582.875C1683.98 582.256 1679.24 583.51 1675.2 585.846C1671.16 588.182 1667.33 591.31 1664.42 596.31C1661.81 600.81 1660.19 605.892 1660.65 610.847C1660.62 615.511 1661.87 620.258 1664.92 625.377C1667.76 629.705 1672.18 633.615 1678.18 637.108C1684.18 640.6 1689.76 642.51 1694.93 642.838C1700.09 643.166 1704.84 641.912 1709.17 639.076Z" fill="url(#paint100_linear_153_70)"/>
<path d="M1761.29 684.125C1813.57 661.003 1824.85 585.24 1824.85 585.24C1824.85 585.24 1809.25 598.249 1790.97 604.347C1778.52 608.482 1759.78 609.625 1749.5 620.38C1739.23 631.134 1731.63 648.799 1737 649.918C1742.38 651.037 1758.81 633.155 1764.57 640.521C1767.48 643.558 1761.25 651.976 1752.72 659.73C1751.35 660.939 1749.97 662.148 1748.31 663.857C1745.56 666.276 1742.61 667.903 1739.86 670.321C1738.78 671.03 1737.7 671.739 1736.12 672.157C1732.87 674.284 1729.12 676.12 1726.17 677.747C1711.97 684.882 1700.19 686.726 1700.19 686.726C1736.15 696.269 1761.29 684.125 1761.29 684.125Z" fill="url(#paint101_linear_153_70)"/>
<path d="M1511.89 691.618C1515.93 689.282 1520.05 685.655 1522.67 681.155C1525.29 676.655 1526.61 672.073 1526.44 666.617C1526.48 661.953 1525.22 657.207 1522.38 652.879C1519.84 648.05 1515.42 644.14 1509.42 640.648C1503.91 637.447 1497.83 635.246 1492.37 635.418C1486.71 634.799 1481.96 636.053 1477.93 638.389C1473.89 640.725 1470.06 643.852 1467.15 648.852C1464.53 653.353 1462.91 658.435 1463.38 663.39C1463.34 668.054 1464.6 672.8 1467.65 677.92C1470.48 682.248 1474.9 686.158 1480.9 689.65C1486.91 693.142 1492.49 695.052 1497.66 695.38C1503.11 695.208 1507.86 693.955 1511.89 691.618Z" fill="url(#paint102_linear_153_70)"/>
<path d="M1563.51 736.377C1615.8 713.254 1627.07 637.492 1627.07 637.492C1627.07 637.492 1611.47 650.5 1593.19 656.599C1580.75 660.734 1562.01 661.877 1551.73 672.631C1541.46 683.385 1533.86 701.05 1539.23 702.169C1544.61 703.288 1561.03 685.407 1566.79 692.772C1569.71 695.809 1563.47 704.227 1554.95 711.982C1553.57 713.191 1552.2 714.4 1550.54 716.109C1547.79 718.527 1544.83 720.154 1542.09 722.572C1541.01 723.281 1539.92 723.99 1538.34 724.408C1535.1 726.535 1531.35 728.371 1528.39 729.998C1514.2 737.134 1502.42 738.978 1502.42 738.978C1538.37 748.52 1563.51 736.377 1563.51 736.377Z" fill="url(#paint103_linear_153_70)"/>
<path d="M1314.12 743.87C1318.16 741.534 1322.28 737.906 1324.9 733.406C1327.51 728.906 1328.84 724.324 1328.67 718.869C1328.7 714.205 1327.45 709.458 1324.61 705.13C1322.06 700.302 1317.64 696.392 1311.64 692.9C1306.14 689.698 1300.06 687.497 1294.6 687.669C1288.94 687.05 1284.19 688.304 1280.15 690.64C1276.11 692.976 1272.29 696.104 1269.38 701.104C1266.76 705.604 1265.14 710.686 1265.61 715.641C1265.57 720.305 1266.82 725.052 1269.87 730.171C1272.71 734.499 1277.13 738.409 1283.13 741.902C1289.13 745.394 1294.72 747.304 1299.88 747.632C1305.34 747.46 1310.08 746.206 1314.12 743.87Z" fill="url(#paint104_linear_153_70)"/>
<path d="M1366.03 788.128C1418.32 765.005 1429.59 689.243 1429.59 689.243C1429.59 689.243 1413.99 702.252 1395.71 708.35C1383.26 712.485 1364.52 713.628 1354.25 724.382C1343.97 735.137 1336.37 752.802 1341.75 753.921C1347.12 755.04 1363.55 737.158 1369.31 744.523C1372.23 747.56 1365.99 755.979 1357.46 763.733C1356.09 764.942 1354.72 766.151 1353.05 767.86C1350.31 770.278 1347.35 771.905 1344.61 774.324C1343.52 775.033 1342.44 775.742 1340.86 776.16C1337.61 778.287 1333.87 780.123 1330.91 781.75C1316.72 788.885 1304.93 790.729 1304.93 790.729C1340.6 800.772 1366.03 788.128 1366.03 788.128Z" fill="url(#paint105_linear_153_70)"/>
<path d="M1116.64 795.621C1120.68 793.285 1124.79 789.658 1127.41 785.158C1130.03 780.658 1131.36 776.075 1131.18 770.62C1131.22 765.956 1129.97 761.21 1127.13 756.881C1124.58 752.053 1120.16 748.143 1114.16 744.651C1108.66 741.45 1102.57 739.249 1097.12 739.421C1091.45 738.802 1086.71 740.056 1082.67 742.392C1078.63 744.728 1074.8 747.855 1071.89 752.855C1069.28 757.355 1067.66 762.438 1068.12 767.393C1068.09 772.057 1069.34 776.803 1072.39 781.922C1075.23 786.251 1079.65 790.161 1085.65 793.653C1091.65 797.145 1097.23 799.055 1102.4 799.383C1107.56 799.711 1112.31 798.457 1116.64 795.621Z" fill="url(#paint106_linear_153_70)"/>
<path d="M1168.76 840.671C1221.04 817.548 1232.32 741.786 1232.32 741.786C1232.32 741.786 1216.72 754.794 1198.44 760.893C1185.99 765.028 1167.25 766.171 1156.98 776.925C1146.7 787.68 1139.1 805.344 1144.48 806.463C1149.85 807.582 1166.28 789.701 1172.04 797.066C1174.96 800.103 1168.72 808.521 1160.19 816.276C1158.82 817.485 1157.44 818.694 1155.78 820.403C1153.03 822.821 1150.08 824.448 1147.33 826.866C1146.25 827.575 1145.17 828.284 1143.59 828.702C1140.34 830.829 1136.59 832.665 1133.64 834.292C1119.45 841.428 1107.66 843.272 1107.66 843.272C1143.62 852.814 1168.76 840.671 1168.76 840.671Z" fill="url(#paint107_linear_153_70)"/>
<path d="M919.363 848.163C923.4 845.827 927.519 842.2 930.137 837.699C932.756 833.199 934.083 828.617 933.909 823.162C933.945 818.498 932.69 813.751 929.852 809.423C927.306 804.595 922.886 800.685 916.884 797.193C911.382 793.991 905.298 791.79 899.842 791.962C894.177 791.343 889.431 792.597 885.393 794.933C881.356 797.269 877.528 800.397 874.619 805.397C872.001 809.897 870.383 814.979 870.847 819.934C870.811 824.599 872.067 829.345 875.113 834.464C877.951 838.792 882.371 842.702 888.373 846.194C894.375 849.687 899.958 851.597 905.123 851.925C910.579 851.753 915.326 850.499 919.363 848.163Z" fill="url(#paint108_linear_153_70)"/>
<path d="M970.982 892.921C1023.27 869.798 1034.54 794.036 1034.54 794.036C1034.54 794.036 1018.94 807.045 1000.66 813.143C988.214 817.278 969.473 818.421 959.199 829.175C948.925 839.93 941.325 857.594 946.699 858.714C952.073 859.833 968.503 841.951 974.26 849.316C977.179 852.353 970.942 860.772 962.413 868.526C961.041 869.735 959.668 870.944 958.004 872.653C955.258 875.071 952.303 876.698 949.557 879.116C948.475 879.825 947.393 880.534 945.81 880.952C942.564 883.079 938.818 884.915 935.863 886.543C921.669 893.678 909.884 895.522 909.884 895.522C945.84 905.064 970.982 892.921 970.982 892.921Z" fill="url(#paint109_linear_153_70)"/>
<path d="M721.589 900.414C725.626 898.078 729.745 894.451 732.364 889.951C734.982 885.451 736.309 880.868 736.136 875.413C736.172 870.749 734.916 866.003 732.079 861.674C729.532 856.846 725.112 852.936 719.11 849.444C713.608 846.243 707.525 844.042 702.069 844.214C696.404 843.595 691.657 844.849 687.62 847.185C683.583 849.521 679.755 852.648 676.845 857.648C674.227 862.148 672.609 867.231 673.073 872.186C673.037 876.85 674.293 881.596 677.34 886.715C680.177 891.044 684.597 894.954 690.599 898.446C696.601 901.938 702.185 903.848 707.35 904.176C712.806 904.004 717.552 902.75 721.589 900.414Z" fill="url(#paint110_linear_153_70)"/>
<path d="M773.499 944.672C825.783 921.55 837.06 845.787 837.06 845.787C837.06 845.787 821.457 858.796 803.18 864.894C790.732 869.029 771.991 870.172 761.716 880.927C751.442 891.681 743.842 909.346 749.216 910.465C754.591 911.584 771.02 893.702 776.777 901.068C779.696 904.105 773.459 912.523 764.931 920.277C763.558 921.486 762.185 922.696 760.521 924.405C757.775 926.823 754.82 928.45 752.074 930.868C750.992 931.577 749.91 932.286 748.328 932.704C745.082 934.831 741.335 936.667 738.38 938.294C724.186 945.429 712.402 947.273 712.402 947.273C748.067 957.316 773.499 944.672 773.499 944.672Z" fill="url(#paint111_linear_153_70)"/>
</g>
<rect width="1440" height="16" transform="matrix(1 0 0 -1 0 44)" fill="#507850" fill-opacity="0.81"/>
<rect width="1440" height="7" transform="matrix(1 0 0 -1 0 24)" fill="#507850" fill-opacity="0.58"/>
<rect width="1440" height="4" transform="matrix(1 0 0 -1 0 12)" fill="#507850" fill-opacity="0.29"/>
<rect width="1440" height="2" transform="matrix(1 0 0 -1 0 2)" fill="#507850" fill-opacity="0.14"/>
<defs>
<linearGradient id="paint0_linear_153_70" x1="761" y1="1619" x2="761" y2="113" gradientUnits="userSpaceOnUse">
<stop stop-color="#304730"/>
<stop offset="1" stop-color="#172317" stop-opacity="0"/>
</linearGradient>
<linearGradient id="paint1_linear_153_70" x1="761" y1="1619" x2="761" y2="113" gradientUnits="userSpaceOnUse">
<stop stop-color="#304730"/>
<stop offset="1" stop-color="#172317" stop-opacity="0"/>
</linearGradient>
<linearGradient id="paint2_linear_153_70" x1="761" y1="1619" x2="761" y2="113" gradientUnits="userSpaceOnUse">
<stop stop-color="#304730"/>
<stop offset="1" stop-color="#172317" stop-opacity="0"/>
</linearGradient>
<linearGradient id="paint3_linear_153_70" x1="761" y1="1619" x2="761" y2="113" gradientUnits="userSpaceOnUse">
<stop stop-color="#304730"/>
<stop offset="1" stop-color="#172317" stop-opacity="0"/>
</linearGradient>
<linearGradient id="paint4_linear_153_70" x1="761" y1="1619" x2="761" y2="113" gradientUnits="userSpaceOnUse">
<stop stop-color="#304730"/>
<stop offset="1" stop-color="#172317" stop-opacity="0"/>
</linearGradient>
<linearGradient id="paint5_linear_153_70" x1="761" y1="1619" x2="761" y2="113" gradientUnits="userSpaceOnUse">
<stop stop-color="#304730"/>
<stop offset="1" stop-color="#172317" stop-opacity="0"/>
</linearGradient>
<linearGradient id="paint6_linear_153_70" x1="761" y1="1619" x2="761" y2="113" gradientUnits="userSpaceOnUse">
<stop stop-color="#304730"/>
<stop offset="1" stop-color="#172317" stop-opacity="0"/>
</linearGradient>
<linearGradient id="paint7_linear_153_70" x1="761" y1="1619" x2="761" y2="113" gradientUnits="userSpaceOnUse">
<stop stop-color="#304730"/>
<stop offset="1" stop-color="#172317" stop-opacity="0"/>
</linearGradient>
<linearGradient id="paint8_linear_153_70" x1="761" y1="1619" x2="761" y2="113" gradientUnits="userSpaceOnUse">
<stop stop-color="#304730"/>
<stop offset="1" stop-color="#172317" stop-opacity="0"/>
</linearGradient>
<linearGradient id="paint9_linear_153_70" x1="761" y1="1619" x2="761" y2="113" gradientUnits="userSpaceOnUse">
<stop stop-color="#304730"/>
<stop offset="1" stop-color="#172317" stop-opacity="0"/>
</linearGradient>
<linearGradient id="paint10_linear_153_70" x1="761" y1="1619" x2="761" y2="113" gradientUnits="userSpaceOnUse">
<stop stop-color="#304730"/>
<stop offset="1" stop-color="#172317" stop-opacity="0"/>
</linearGradient>
<linearGradient id="paint11_linear_153_70" x1="761" y1="1619" x2="761" y2="113" gradientUnits="userSpaceOnUse">
<stop stop-color="#304730"/>
<stop offset="1" stop-color="#172317" stop-opacity="0"/>
</linearGradient>
<linearGradient id="paint12_linear_153_70" x1="761" y1="1619" x2="761" y2="113" gradientUnits="userSpaceOnUse">
<stop stop-color="#304730"/>
<stop offset="1" stop-color="#172317" stop-opacity="0"/>
</linearGradient>
<linearGradient id="paint13_linear_153_70" x1="761" y1="1619" x2="761" y2="113" gradientUnits="userSpaceOnUse">
<stop stop-color="#304730"/>
<stop offset="1" stop-color="#172317" stop-opacity="0"/>
</linearGradient>
<linearGradient id="paint14_linear_153_70" x1="761" y1="1619" x2="761" y2="113" gradientUnits="userSpaceOnUse">
<stop stop-color="#304730"/>
<stop offset="1" stop-color="#172317" stop-opacity="0"/>
</linearGradient>
<linearGradient id="paint15_linear_153_70" x1="761" y1="1619" x2="761" y2="113" gradientUnits="userSpaceOnUse">
<stop stop-color="#304730"/>
<stop offset="1" stop-color="#172317" stop-opacity="0"/>
</linearGradient>
<linearGradient id="paint16_linear_153_70" x1="761" y1="1619" x2="761" y2="113" gradientUnits="userSpaceOnUse">
<stop stop-color="#304730"/>
<stop offset="1" stop-color="#172317" stop-opacity="0"/>
</linearGradient>
<linearGradient id="paint17_linear_153_70" x1="761" y1="1619" x2="761" y2="113" gradientUnits="userSpaceOnUse">
<stop stop-color="#304730"/>
<stop offset="1" stop-color="#172317" stop-opacity="0"/>
</linearGradient>
<linearGradient id="paint18_linear_153_70" x1="761" y1="1619" x2="761" y2="113" gradientUnits="userSpaceOnUse">
<stop stop-color="#304730"/>
<stop offset="1" stop-color="#172317" stop-opacity="0"/>
</linearGradient>
<linearGradient id="paint19_linear_153_70" x1="761" y1="1619" x2="761" y2="113" gradientUnits="userSpaceOnUse">
<stop stop-color="#304730"/>
<stop offset="1" stop-color="#172317" stop-opacity="0"/>
</linearGradient>
<linearGradient id="paint20_linear_153_70" x1="761" y1="1619" x2="761" y2="113" gradientUnits="userSpaceOnUse">
<stop stop-color="#304730"/>
<stop offset="1" stop-color="#172317" stop-opacity="0"/>
</linearGradient>
<linearGradient id="paint21_linear_153_70" x1="761" y1="1619" x2="761" y2="113" gradientUnits="userSpaceOnUse">
<stop stop-color="#304730"/>
<stop offset="1" stop-color="#172317" stop-opacity="0"/>
</linearGradient>
<linearGradient id="paint22_linear_153_70" x1="761" y1="1619" x2="761" y2="113" gradientUnits="userSpaceOnUse">
<stop stop-color="#304730"/>
<stop offset="1" stop-color="#172317" stop-opacity="0"/>
</linearGradient>
<linearGradient id="paint23_linear_153_70" x1="761" y1="1619" x2="761" y2="113" gradientUnits="userSpaceOnUse">
<stop stop-color="#304730"/>
<stop offset="1" stop-color="#172317" stop-opacity="0"/>
</linearGradient>
<linearGradient id="paint24_linear_153_70" x1="761" y1="1619" x2="761" y2="113" gradientUnits="userSpaceOnUse">
<stop stop-color="#304730"/>
<stop offset="1" stop-color="#172317" stop-opacity="0"/>
</linearGradient>
<linearGradient id="paint25_linear_153_70" x1="761" y1="1619" x2="761" y2="113" gradientUnits="userSpaceOnUse">
<stop stop-color="#304730"/>
<stop offset="1" stop-color="#172317" stop-opacity="0"/>
</linearGradient>
<linearGradient id="paint26_linear_153_70" x1="761" y1="1619" x2="761" y2="113" gradientUnits="userSpaceOnUse">
<stop stop-color="#304730"/>
<stop offset="1" stop-color="#172317" stop-opacity="0"/>
</linearGradient>
<linearGradient id="paint27_linear_153_70" x1="761" y1="1619" x2="761" y2="113" gradientUnits="userSpaceOnUse">
<stop stop-color="#304730"/>
<stop offset="1" stop-color="#172317" stop-opacity="0"/>
</linearGradient>
<linearGradient id="paint28_linear_153_70" x1="761" y1="1619" x2="761" y2="113" gradientUnits="userSpaceOnUse">
<stop stop-color="#304730"/>
<stop offset="1" stop-color="#172317" stop-opacity="0"/>
</linearGradient>
<linearGradient id="paint29_linear_153_70" x1="761" y1="1619" x2="761" y2="113" gradientUnits="userSpaceOnUse">
<stop stop-color="#304730"/>
<stop offset="1" stop-color="#172317" stop-opacity="0"/>
</linearGradient>
<linearGradient id="paint30_linear_153_70" x1="761" y1="1619" x2="761" y2="113" gradientUnits="userSpaceOnUse">
<stop stop-color="#304730"/>
<stop offset="1" stop-color="#172317" stop-opacity="0"/>
</linearGradient>
<linearGradient id="paint31_linear_153_70" x1="761" y1="1619" x2="761" y2="113" gradientUnits="userSpaceOnUse">
<stop stop-color="#304730"/>
<stop offset="1" stop-color="#172317" stop-opacity="0"/>
</linearGradient>
<linearGradient id="paint32_linear_153_70" x1="761" y1="1619" x2="761" y2="113" gradientUnits="userSpaceOnUse">
<stop stop-color="#304730"/>
<stop offset="1" stop-color="#172317" stop-opacity="0"/>
</linearGradient>
<linearGradient id="paint33_linear_153_70" x1="761" y1="1619" x2="761" y2="113" gradientUnits="userSpaceOnUse">
<stop stop-color="#304730"/>
<stop offset="1" stop-color="#172317" stop-opacity="0"/>
</linearGradient>
<linearGradient id="paint34_linear_153_70" x1="761" y1="1619" x2="761" y2="113" gradientUnits="userSpaceOnUse">
<stop stop-color="#304730"/>
<stop offset="1" stop-color="#172317" stop-opacity="0"/>
</linearGradient>
<linearGradient id="paint35_linear_153_70" x1="761" y1="1619" x2="761" y2="113" gradientUnits="userSpaceOnUse">
<stop stop-color="#304730"/>
<stop offset="1" stop-color="#172317" stop-opacity="0"/>
</linearGradient>
<linearGradient id="paint36_linear_153_70" x1="761" y1="1619" x2="761" y2="113" gradientUnits="userSpaceOnUse">
<stop stop-color="#304730"/>
<stop offset="1" stop-color="#172317" stop-opacity="0"/>
</linearGradient>
<linearGradient id="paint37_linear_153_70" x1="761" y1="1619" x2="761" y2="113" gradientUnits="userSpaceOnUse">
<stop stop-color="#304730"/>
<stop offset="1" stop-color="#172317" stop-opacity="0"/>
</linearGradient>
<linearGradient id="paint38_linear_153_70" x1="761" y1="1619" x2="761" y2="113" gradientUnits="userSpaceOnUse">
<stop stop-color="#304730"/>
<stop offset="1" stop-color="#172317" stop-opacity="0"/>
</linearGradient>
<linearGradient id="paint39_linear_153_70" x1="761" y1="1619" x2="761" y2="113" gradientUnits="userSpaceOnUse">
<stop stop-color="#304730"/>
<stop offset="1" stop-color="#172317" stop-opacity="0"/>
</linearGradient>
<linearGradient id="paint40_linear_153_70" x1="761" y1="1619" x2="761" y2="113" gradientUnits="userSpaceOnUse">
<stop stop-color="#304730"/>
<stop offset="1" stop-color="#172317" stop-opacity="0"/>
</linearGradient>
<linearGradient id="paint41_linear_153_70" x1="761" y1="1619" x2="761" y2="113" gradientUnits="userSpaceOnUse">
<stop stop-color="#304730"/>
<stop offset="1" stop-color="#172317" stop-opacity="0"/>
</linearGradient>
<linearGradient id="paint42_linear_153_70" x1="761" y1="1619" x2="761" y2="113" gradientUnits="userSpaceOnUse">
<stop stop-color="#304730"/>
<stop offset="1" stop-color="#172317" stop-opacity="0"/>
</linearGradient>
<linearGradient id="paint43_linear_153_70" x1="761" y1="1619" x2="761" y2="113" gradientUnits="userSpaceOnUse">
<stop stop-color="#304730"/>
<stop offset="1" stop-color="#172317" stop-opacity="0"/>
</linearGradient>
<linearGradient id="paint44_linear_153_70" x1="761" y1="1619" x2="761" y2="113" gradientUnits="userSpaceOnUse">
<stop stop-color="#304730"/>
<stop offset="1" stop-color="#172317" stop-opacity="0"/>
</linearGradient>
<linearGradient id="paint45_linear_153_70" x1="761" y1="1619" x2="761" y2="113" gradientUnits="userSpaceOnUse">
<stop stop-color="#304730"/>
<stop offset="1" stop-color="#172317" stop-opacity="0"/>
</linearGradient>
<linearGradient id="paint46_linear_153_70" x1="761" y1="1619" x2="761" y2="113" gradientUnits="userSpaceOnUse">
<stop stop-color="#304730"/>
<stop offset="1" stop-color="#172317" stop-opacity="0"/>
</linearGradient>
<linearGradient id="paint47_linear_153_70" x1="761" y1="1619" x2="761" y2="113" gradientUnits="userSpaceOnUse">
<stop stop-color="#304730"/>
<stop offset="1" stop-color="#172317" stop-opacity="0"/>
</linearGradient>
<linearGradient id="paint48_linear_153_70" x1="761" y1="1619" x2="761" y2="113" gradientUnits="userSpaceOnUse">
<stop stop-color="#304730"/>
<stop offset="1" stop-color="#172317" stop-opacity="0"/>
</linearGradient>
<linearGradient id="paint49_linear_153_70" x1="761" y1="1619" x2="761" y2="113" gradientUnits="userSpaceOnUse">
<stop stop-color="#304730"/>
<stop offset="1" stop-color="#172317" stop-opacity="0"/>
</linearGradient>
<linearGradient id="paint50_linear_153_70" x1="761" y1="1619" x2="761" y2="113" gradientUnits="userSpaceOnUse">
<stop stop-color="#304730"/>
<stop offset="1" stop-color="#172317" stop-opacity="0"/>
</linearGradient>
<linearGradient id="paint51_linear_153_70" x1="761" y1="1619" x2="761" y2="113" gradientUnits="userSpaceOnUse">
<stop stop-color="#304730"/>
<stop offset="1" stop-color="#172317" stop-opacity="0"/>
</linearGradient>
<linearGradient id="paint52_linear_153_70" x1="761" y1="1619" x2="761" y2="113" gradientUnits="userSpaceOnUse">
<stop stop-color="#304730"/>
<stop offset="1" stop-color="#172317" stop-opacity="0"/>
</linearGradient>
<linearGradient id="paint53_linear_153_70" x1="761" y1="1619" x2="761" y2="113" gradientUnits="userSpaceOnUse">
<stop stop-color="#304730"/>
<stop offset="1" stop-color="#172317" stop-opacity="0"/>
</linearGradient>
<linearGradient id="paint54_linear_153_70" x1="761" y1="1619" x2="761" y2="113" gradientUnits="userSpaceOnUse">
<stop stop-color="#304730"/>
<stop offset="1" stop-color="#172317" stop-opacity="0"/>
</linearGradient>
<linearGradient id="paint55_linear_153_70" x1="761" y1="1619" x2="761" y2="113" gradientUnits="userSpaceOnUse">
<stop stop-color="#304730"/>
<stop offset="1" stop-color="#172317" stop-opacity="0"/>
</linearGradient>
<linearGradient id="paint56_linear_153_70" x1="761" y1="1619" x2="761" y2="113" gradientUnits="userSpaceOnUse">
<stop stop-color="#304730"/>
<stop offset="1" stop-color="#172317" stop-opacity="0"/>
</linearGradient>
<linearGradient id="paint57_linear_153_70" x1="761" y1="1619" x2="761" y2="113" gradientUnits="userSpaceOnUse">
<stop stop-color="#304730"/>
<stop offset="1" stop-color="#172317" stop-opacity="0"/>
</linearGradient>
<linearGradient id="paint58_linear_153_70" x1="761" y1="1619" x2="761" y2="113" gradientUnits="userSpaceOnUse">
<stop stop-color="#304730"/>
<stop offset="1" stop-color="#172317" stop-opacity="0"/>
</linearGradient>
<linearGradient id="paint59_linear_153_70" x1="761" y1="1619" x2="761" y2="113" gradientUnits="userSpaceOnUse">
<stop stop-color="#304730"/>
<stop offset="1" stop-color="#172317" stop-opacity="0"/>
</linearGradient>
<linearGradient id="paint60_linear_153_70" x1="761" y1="1619" x2="761" y2="113" gradientUnits="userSpaceOnUse">
<stop stop-color="#304730"/>
<stop offset="1" stop-color="#172317" stop-opacity="0"/>
</linearGradient>
<linearGradient id="paint61_linear_153_70" x1="761" y1="1619" x2="761" y2="113" gradientUnits="userSpaceOnUse">
<stop stop-color="#304730"/>
<stop offset="1" stop-color="#172317" stop-opacity="0"/>
</linearGradient>
<linearGradient id="paint62_linear_153_70" x1="761" y1="1619" x2="761" y2="113" gradientUnits="userSpaceOnUse">
<stop stop-color="#304730"/>
<stop offset="1" stop-color="#172317" stop-opacity="0"/>
</linearGradient>
<linearGradient id="paint63_linear_153_70" x1="761" y1="1619" x2="761" y2="113" gradientUnits="userSpaceOnUse">
<stop stop-color="#304730"/>
<stop offset="1" stop-color="#172317" stop-opacity="0"/>
</linearGradient>
<linearGradient id="paint64_linear_153_70" x1="761" y1="1619" x2="761" y2="113" gradientUnits="userSpaceOnUse">
<stop stop-color="#304730"/>
<stop offset="1" stop-color="#172317" stop-opacity="0"/>
</linearGradient>
<linearGradient id="paint65_linear_153_70" x1="761" y1="1619" x2="761" y2="113" gradientUnits="userSpaceOnUse">
<stop stop-color="#304730"/>
<stop offset="1" stop-color="#172317" stop-opacity="0"/>
</linearGradient>
<linearGradient id="paint66_linear_153_70" x1="761" y1="1619" x2="761" y2="113" gradientUnits="userSpaceOnUse">
<stop stop-color="#304730"/>
<stop offset="1" stop-color="#172317" stop-opacity="0"/>
</linearGradient>
<linearGradient id="paint67_linear_153_70" x1="761" y1="1619" x2="761" y2="113" gradientUnits="userSpaceOnUse">
<stop stop-color="#304730"/>
<stop offset="1" stop-color="#172317" stop-opacity="0"/>
</linearGradient>
<linearGradient id="paint68_linear_153_70" x1="761" y1="1619" x2="761" y2="113" gradientUnits="userSpaceOnUse">
<stop stop-color="#304730"/>
<stop offset="1" stop-color="#172317" stop-opacity="0"/>
</linearGradient>
<linearGradient id="paint69_linear_153_70" x1="761" y1="1619" x2="761" y2="113" gradientUnits="userSpaceOnUse">
<stop stop-color="#304730"/>
<stop offset="1" stop-color="#172317" stop-opacity="0"/>
</linearGradient>
<linearGradient id="paint70_linear_153_70" x1="761" y1="1619" x2="761" y2="113" gradientUnits="userSpaceOnUse">
<stop stop-color="#304730"/>
<stop offset="1" stop-color="#172317" stop-opacity="0"/>
</linearGradient>
<linearGradient id="paint71_linear_153_70" x1="761" y1="1619" x2="761" y2="113" gradientUnits="userSpaceOnUse">
<stop stop-color="#304730"/>
<stop offset="1" stop-color="#172317" stop-opacity="0"/>
</linearGradient>
<linearGradient id="paint72_linear_153_70" x1="761" y1="1619" x2="761" y2="113" gradientUnits="userSpaceOnUse">
<stop stop-color="#304730"/>
<stop offset="1" stop-color="#172317" stop-opacity="0"/>
</linearGradient>
<linearGradient id="paint73_linear_153_70" x1="761" y1="1619" x2="761" y2="113" gradientUnits="userSpaceOnUse">
<stop stop-color="#304730"/>
<stop offset="1" stop-color="#172317" stop-opacity="0"/>
</linearGradient>
<linearGradient id="paint74_linear_153_70" x1="761" y1="1619" x2="761" y2="113" gradientUnits="userSpaceOnUse">
<stop stop-color="#304730"/>
<stop offset="1" stop-color="#172317" stop-opacity="0"/>
</linearGradient>
<linearGradient id="paint75_linear_153_70" x1="761" y1="1619" x2="761" y2="113" gradientUnits="userSpaceOnUse">
<stop stop-color="#304730"/>
<stop offset="1" stop-color="#172317" stop-opacity="0"/>
</linearGradient>
<linearGradient id="paint76_linear_153_70" x1="761" y1="1619" x2="761" y2="113" gradientUnits="userSpaceOnUse">
<stop stop-color="#304730"/>
<stop offset="1" stop-color="#172317" stop-opacity="0"/>
</linearGradient>
<linearGradient id="paint77_linear_153_70" x1="761" y1="1619" x2="761" y2="113" gradientUnits="userSpaceOnUse">
<stop stop-color="#304730"/>
<stop offset="1" stop-color="#172317" stop-opacity="0"/>
</linearGradient>
<linearGradient id="paint78_linear_153_70" x1="761" y1="1619" x2="761" y2="113" gradientUnits="userSpaceOnUse">
<stop stop-color="#304730"/>
<stop offset="1" stop-color="#172317" stop-opacity="0"/>
</linearGradient>
<linearGradient id="paint79_linear_153_70" x1="761" y1="1619" x2="761" y2="113" gradientUnits="userSpaceOnUse">
<stop stop-color="#304730"/>
<stop offset="1" stop-color="#172317" stop-opacity="0"/>
</linearGradient>
<linearGradient id="paint80_linear_153_70" x1="761" y1="1619" x2="761" y2="113" gradientUnits="userSpaceOnUse">
<stop stop-color="#304730"/>
<stop offset="1" stop-color="#172317" stop-opacity="0"/>
</linearGradient>
<linearGradient id="paint81_linear_153_70" x1="761" y1="1619" x2="761" y2="113" gradientUnits="userSpaceOnUse">
<stop stop-color="#304730"/>
<stop offset="1" stop-color="#172317" stop-opacity="0"/>
</linearGradient>
<linearGradient id="paint82_linear_153_70" x1="761" y1="1619" x2="761" y2="113" gradientUnits="userSpaceOnUse">
<stop stop-color="#304730"/>
<stop offset="1" stop-color="#172317" stop-opacity="0"/>
</linearGradient>
<linearGradient id="paint83_linear_153_70" x1="761" y1="1619" x2="761" y2="113" gradientUnits="userSpaceOnUse">
<stop stop-color="#304730"/>
<stop offset="1" stop-color="#172317" stop-opacity="0"/>
</linearGradient>
<linearGradient id="paint84_linear_153_70" x1="761" y1="1619" x2="761" y2="113" gradientUnits="userSpaceOnUse">
<stop stop-color="#304730"/>
<stop offset="1" stop-color="#172317" stop-opacity="0"/>
</linearGradient>
<linearGradient id="paint85_linear_153_70" x1="761" y1="1619" x2="761" y2="113" gradientUnits="userSpaceOnUse">
<stop stop-color="#304730"/>
<stop offset="1" stop-color="#172317" stop-opacity="0"/>
</linearGradient>
<linearGradient id="paint86_linear_153_70" x1="761" y1="1619" x2="761" y2="113" gradientUnits="userSpaceOnUse">
<stop stop-color="#304730"/>
<stop offset="1" stop-color="#172317" stop-opacity="0"/>
</linearGradient>
<linearGradient id="paint87_linear_153_70" x1="761" y1="1619" x2="761" y2="113" gradientUnits="userSpaceOnUse">
<stop stop-color="#304730"/>
<stop offset="1" stop-color="#172317" stop-opacity="0"/>
</linearGradient>
<linearGradient id="paint88_linear_153_70" x1="761" y1="1619" x2="761" y2="113" gradientUnits="userSpaceOnUse">
<stop stop-color="#304730"/>
<stop offset="1" stop-color="#172317" stop-opacity="0"/>
</linearGradient>
<linearGradient id="paint89_linear_153_70" x1="761" y1="1619" x2="761" y2="113" gradientUnits="userSpaceOnUse">
<stop stop-color="#304730"/>
<stop offset="1" stop-color="#172317" stop-opacity="0"/>
</linearGradient>
<linearGradient id="paint90_linear_153_70" x1="761" y1="1619" x2="761" y2="113" gradientUnits="userSpaceOnUse">
<stop stop-color="#304730"/>
<stop offset="1" stop-color="#172317" stop-opacity="0"/>
</linearGradient>
<linearGradient id="paint91_linear_153_70" x1="761" y1="1619" x2="761" y2="113" gradientUnits="userSpaceOnUse">
<stop stop-color="#304730"/>
<stop offset="1" stop-color="#172317" stop-opacity="0"/>
</linearGradient>
<linearGradient id="paint92_linear_153_70" x1="761" y1="1619" x2="761" y2="113" gradientUnits="userSpaceOnUse">
<stop stop-color="#304730"/>
<stop offset="1" stop-color="#172317" stop-opacity="0"/>
</linearGradient>
<linearGradient id="paint93_linear_153_70" x1="761" y1="1619" x2="761" y2="113" gradientUnits="userSpaceOnUse">
<stop stop-color="#304730"/>
<stop offset="1" stop-color="#172317" stop-opacity="0"/>
</linearGradient>
<linearGradient id="paint94_linear_153_70" x1="761" y1="1619" x2="761" y2="113" gradientUnits="userSpaceOnUse">
<stop stop-color="#304730"/>
<stop offset="1" stop-color="#172317" stop-opacity="0"/>
</linearGradient>
<linearGradient id="paint95_linear_153_70" x1="761" y1="1619" x2="761" y2="113" gradientUnits="userSpaceOnUse">
<stop stop-color="#304730"/>
<stop offset="1" stop-color="#172317" stop-opacity="0"/>
</linearGradient>
<linearGradient id="paint96_linear_153_70" x1="761" y1="1619" x2="761" y2="113" gradientUnits="userSpaceOnUse">
<stop stop-color="#304730"/>
<stop offset="1" stop-color="#172317" stop-opacity="0"/>
</linearGradient>
<linearGradient id="paint97_linear_153_70" x1="761" y1="1619" x2="761" y2="113" gradientUnits="userSpaceOnUse">
<stop stop-color="#304730"/>
<stop offset="1" stop-color="#172317" stop-opacity="0"/>
</linearGradient>
<linearGradient id="paint98_linear_153_70" x1="761" y1="1619" x2="761" y2="113" gradientUnits="userSpaceOnUse">
<stop stop-color="#304730"/>
<stop offset="1" stop-color="#172317" stop-opacity="0"/>
</linearGradient>
<linearGradient id="paint99_linear_153_70" x1="761" y1="1619" x2="761" y2="113" gradientUnits="userSpaceOnUse">
<stop stop-color="#304730"/>
<stop offset="1" stop-color="#172317" stop-opacity="0"/>
</linearGradient>
<linearGradient id="paint100_linear_153_70" x1="761" y1="1619" x2="761" y2="113" gradientUnits="userSpaceOnUse">
<stop stop-color="#304730"/>
<stop offset="1" stop-color="#172317" stop-opacity="0"/>
</linearGradient>
<linearGradient id="paint101_linear_153_70" x1="761" y1="1619" x2="761" y2="113" gradientUnits="userSpaceOnUse">
<stop stop-color="#304730"/>
<stop offset="1" stop-color="#172317" stop-opacity="0"/>
</linearGradient>
<linearGradient id="paint102_linear_153_70" x1="761" y1="1619" x2="761" y2="113" gradientUnits="userSpaceOnUse">
<stop stop-color="#304730"/>
<stop offset="1" stop-color="#172317" stop-opacity="0"/>
</linearGradient>
<linearGradient id="paint103_linear_153_70" x1="761" y1="1619" x2="761" y2="113" gradientUnits="userSpaceOnUse">
<stop stop-color="#304730"/>
<stop offset="1" stop-color="#172317" stop-opacity="0"/>
</linearGradient>
<linearGradient id="paint104_linear_153_70" x1="761" y1="1619" x2="761" y2="113" gradientUnits="userSpaceOnUse">
<stop stop-color="#304730"/>
<stop offset="1" stop-color="#172317" stop-opacity="0"/>
</linearGradient>
<linearGradient id="paint105_linear_153_70" x1="761" y1="1619" x2="761" y2="113" gradientUnits="userSpaceOnUse">
<stop stop-color="#304730"/>
<stop offset="1" stop-color="#172317" stop-opacity="0"/>
</linearGradient>
<linearGradient id="paint106_linear_153_70" x1="761" y1="1619" x2="761" y2="113" gradientUnits="userSpaceOnUse">
<stop stop-color="#304730"/>
<stop offset="1" stop-color="#172317" stop-opacity="0"/>
</linearGradient>
<linearGradient id="paint107_linear_153_70" x1="761" y1="1619" x2="761" y2="113" gradientUnits="userSpaceOnUse">
<stop stop-color="#304730"/>
<stop offset="1" stop-color="#172317" stop-opacity="0"/>
</linearGradient>
<linearGradient id="paint108_linear_153_70" x1="761" y1="1619" x2="761" y2="113" gradientUnits="userSpaceOnUse">
<stop stop-color="#304730"/>
<stop offset="1" stop-color="#172317" stop-opacity="0"/>
</linearGradient>
<linearGradient id="paint109_linear_153_70" x1="761" y1="1619" x2="761" y2="113" gradientUnits="userSpaceOnUse">
<stop stop-color="#304730"/>
<stop offset="1" stop-color="#172317" stop-opacity="0"/>
</linearGradient>
<linearGradient id="paint110_linear_153_70" x1="761" y1="1619" x2="761" y2="113" gradientUnits="userSpaceOnUse">
<stop stop-color="#304730"/>
<stop offset="1" stop-color="#172317" stop-opacity="0"/>
</linearGradient>
<linearGradient id="paint111_linear_153_70" x1="761" y1="1619" x2="761" y2="113" gradientUnits="userSpaceOnUse">
<stop stop-color="#304730"/>
<stop offset="1" stop-color="#172317" stop-opacity="0"/>
</linearGradient>
</defs>
</svg>
