<svg width="88" height="27" viewBox="0 0 88 27" fill="none" xmlns="http://www.w3.org/2000/svg">
<path d="M29.7616 21.7902C28.8176 20.2694 28.3719 18.565 28.3719 16.6508C28.3719 14.7104 28.8176 12.9797 29.7616 11.5113C30.1812 10.8296 30.6794 10.2265 31.2563 9.6758C30.6532 8.78426 29.8927 8.1025 28.9487 7.63051C27.7688 7.02741 26.4577 6.73897 24.963 6.73897C23.1538 6.73897 21.5805 7.15852 20.2169 8.05006C19.4827 8.52205 18.8534 9.0727 18.329 9.75447C17.8832 9.04648 17.3325 8.4696 16.677 8.05006C15.3921 7.15852 13.8451 6.73897 12.1406 6.73897C10.6198 6.73897 9.25626 7.07985 8.02384 7.76162C7.39452 8.1025 6.87008 8.52205 6.39809 9.04648V7.05363C2.85816 7.05363 0 9.9118 0 13.4517V25.7235C0 26.0119 0.235995 26.2479 0.524434 26.2479H6.21454C6.50298 26.2479 6.73897 26.0119 6.73897 25.7235V16.7557C6.73897 15.7592 6.87008 14.9464 7.15852 14.3433C7.47318 13.7139 7.86651 13.242 8.39094 12.9273C8.88915 12.6389 9.46603 12.4815 10.1478 12.4815C11.0656 12.4815 11.7735 12.7962 12.2718 13.4255C12.77 14.0548 13.0322 15.0512 13.0322 16.4148V25.7759C13.0322 26.0644 13.2682 26.3004 13.5566 26.3004H19.2467C19.5352 26.3004 19.7712 26.0644 19.7712 25.7759V16.7557C19.7712 15.7592 19.9023 14.9464 20.1907 14.3433C20.4791 13.7139 20.8987 13.242 21.4231 12.9273C21.9213 12.6389 22.4982 12.4815 23.1538 12.4815C24.0453 12.4815 24.7533 12.7962 25.2777 13.4255C25.8021 14.0548 26.0644 15.0512 26.0644 16.4148V25.7759C26.0644 26.0644 26.3004 26.3004 26.5888 26.3004H32.8033V24.8057C31.4923 23.9928 30.522 22.9964 29.7616 21.7902Z" fill="#304730"/>
<path d="M60.441 -2.86102e-06V8.73182C60.1263 8.36472 59.733 8.07628 59.3397 7.81406C58.1859 7.10608 56.7962 6.76519 55.1442 6.76519C53.3874 6.76519 51.8141 7.15852 50.3981 7.97139C49.3492 8.54827 48.4577 9.33492 47.7235 10.3051C48.0906 10.6984 48.4052 11.0918 48.6675 11.5375C49.5852 13.006 50.031 14.7366 50.031 16.677C50.031 18.5912 49.5852 20.2956 48.6675 21.8164C48.379 22.236 48.0906 22.6555 47.7235 23.0489C48.4315 24.0191 49.323 24.8057 50.3981 25.4088C51.8141 26.2217 53.3874 26.6412 55.1442 26.6412C56.8749 26.6412 58.2908 26.2741 59.4446 25.5661C59.969 25.2515 60.441 24.8582 60.7819 24.3599V25.8021C60.7819 26.0906 61.0179 26.3266 61.3063 26.3266H66.6818C66.9702 26.3266 67.2062 26.0906 67.2062 25.8021V6.73897C67.2062 3.01549 64.1907 -2.86102e-06 60.441 -2.86102e-06ZM60.0477 19.1418C59.6806 19.8498 59.2086 20.3742 58.6055 20.7151C58.0024 21.0822 57.3206 21.2396 56.5602 21.2396C55.7998 21.2396 55.0918 21.0822 54.4887 20.7151C53.8856 20.348 53.4136 19.8236 53.0465 19.1418C52.6794 18.4338 52.5221 17.621 52.5221 16.6508C52.5221 15.6806 52.6794 14.8677 53.0465 14.2122C53.4136 13.5304 53.8856 13.006 54.4887 12.6651C55.0918 12.298 55.7735 12.1406 56.5602 12.1406C57.3206 12.1406 58.0024 12.298 58.6055 12.6651C59.2086 13.006 59.6806 13.5304 60.0477 14.2122C60.3886 14.8939 60.5721 15.7068 60.5721 16.6508C60.5721 17.621 60.3886 18.4338 60.0477 19.1418Z" fill="#304730"/>
<path d="M87.3707 17.621C86.9774 16.913 86.4267 16.3623 85.7712 15.969C85.0894 15.5495 84.3552 15.2348 83.5423 15.025C82.7294 14.8153 81.9166 14.6579 81.1037 14.553C80.2908 14.4481 79.5566 14.3433 78.9011 14.2384C78.2193 14.1335 77.6949 13.9762 77.3015 13.7664C76.9082 13.5566 76.6984 13.2682 76.6984 12.9011C76.6984 12.534 76.9344 12.1931 77.3802 11.9571C77.8522 11.6949 78.6389 11.5638 79.7664 11.5638C80.6055 11.5638 81.5232 11.6686 82.4672 11.8522H82.4934C84.2503 12.2193 86.0334 11.3278 86.7414 9.6758L87.0822 8.88915C87.2133 8.60071 87.1085 8.25983 86.82 8.1025C85.9809 7.68295 84.9845 7.36829 83.8308 7.1323C82.441 6.87008 81.0775 6.71275 79.7402 6.71275C77.7211 6.71275 76.0429 7.00119 74.6532 7.55184C73.2634 8.1025 72.2145 8.86293 71.4803 9.80691C70.7723 10.7509 70.4052 11.8522 70.4052 13.0846C70.4052 14.1597 70.615 15.0775 71.0083 15.7855C71.4017 16.4934 71.9523 17.0441 72.6079 17.4636C73.2896 17.8832 74.0238 18.1716 74.8367 18.3814C75.6496 18.5912 76.4625 18.7485 77.2491 18.8534C78.062 18.9845 78.7962 19.0894 79.4517 19.1681C80.1335 19.2729 80.6579 19.404 81.0775 19.5876C81.497 19.7712 81.7068 20.0334 81.7068 20.4267C81.7068 20.82 81.497 21.1347 81.0513 21.3707C80.6055 21.6067 79.8188 21.7378 78.6913 21.7378C77.5375 21.7378 76.3576 21.5804 75.1514 21.2658H75.1251C73.2372 20.7676 71.2443 21.7116 70.4577 23.5209L70.2217 24.0977C70.0906 24.3862 70.1955 24.7271 70.4839 24.8844C71.3492 25.3302 72.4505 25.7235 73.7354 26.0381C75.2825 26.4052 76.882 26.615 78.5077 26.615C80.5793 26.615 82.3361 26.3266 83.7259 25.7759C85.1418 25.199 86.1907 24.4648 86.9249 23.5209C87.6329 22.5769 88 21.528 88 20.3218C87.9738 19.1943 87.7902 18.3027 87.3707 17.621Z" fill="#304730"/>
<path d="M41.273 12.6389C40.6961 12.2717 39.9881 12.0882 39.2014 12.0882C38.441 12.0882 37.7592 12.2717 37.1561 12.6389C36.553 12.9797 36.0811 13.4779 35.714 14.1859C35.3206 14.8677 35.1633 15.6806 35.1633 16.6508C35.1633 17.5948 35.3206 18.4601 35.714 19.1156C36.0811 19.8236 36.553 20.3743 37.1561 20.6889C37.7592 21.056 38.441 21.2396 39.2014 21.2396C39.9619 21.2396 40.6961 21.056 41.273 20.6889C41.876 20.348 42.3743 19.8236 42.7414 19.1156C43.0822 18.4338 43.2658 17.5685 43.2658 16.6508C43.2658 15.6543 43.0822 14.8415 42.7414 14.1859C42.3743 13.4779 41.876 12.9797 41.273 12.6389Z" fill="#E4AB66"/>
<path d="M43.056 2.96305C36.3433 -1.83552 26.1955 2.1764 26.1955 2.1764C26.1955 2.1764 28.9225 3.1466 30.994 4.98212C32.41 6.24076 33.9309 8.49583 35.9762 8.96782C38.0477 9.46603 40.8272 9.09893 40.5649 8.39094C40.2765 7.65673 36.9201 6.84386 37.3921 5.61144C37.6019 5.03456 39.0441 5.16567 40.6174 5.66388C40.8796 5.74255 41.1418 5.82121 41.404 5.95232C41.876 6.10965 42.348 6.34565 42.7938 6.55542C42.9773 6.63409 43.1347 6.73897 43.3182 6.84386C43.8164 7.10608 44.2884 7.39452 44.708 7.68295C46.6222 8.96782 47.7235 10.2527 47.7235 10.2527C46.4386 5.21811 43.056 2.96305 43.056 2.96305Z" fill="#E4AB66"/>
<path d="M83.4636 2.56972C83.4636 2.88438 83.3588 3.04171 83.149 3.12038L83.5161 3.67103H83.0441L82.7032 3.1466H82.4934V3.67103H82.0739V2.07151H82.913C83.2801 2.07151 83.4636 2.22884 83.4636 2.56972ZM82.8605 2.83194C82.9917 2.83194 83.0441 2.75327 83.0441 2.59594C83.0441 2.46483 82.9654 2.41239 82.8605 2.41239H82.4672V2.83194H82.8605Z" fill="#304730"/>
<path d="M82.7294 4.64124C81.7855 4.64124 80.9988 3.85459 80.9988 2.9106C80.9988 1.96662 81.7855 1.17997 82.7294 1.17997C83.6734 1.17997 84.4601 1.96662 84.4601 2.9106C84.4601 3.85459 83.6996 4.64124 82.7294 4.64124ZM82.7294 1.52086C81.969 1.52086 81.3397 2.15018 81.3397 2.9106C81.3397 3.67103 81.969 4.30035 82.7294 4.30035C83.4899 4.30035 84.1192 3.67103 84.1192 2.9106C84.1192 2.15018 83.4899 1.52086 82.7294 1.52086Z" fill="#304730"/>
</svg>
