<svg width="182" height="54" viewBox="0 0 182 54" fill="none" xmlns="http://www.w3.org/2000/svg">
<path d="M61.5717 43.5873C59.6907 40.552 58.6875 37.1524 58.6875 33.2672C58.6875 29.382 59.6907 25.9824 61.5717 22.9471C62.4495 21.6115 63.4527 20.3974 64.7067 19.3047C63.4527 17.4835 61.8225 16.148 59.9415 15.1767C57.5589 13.9625 54.8001 13.3555 51.6651 13.3555C47.903 13.3555 44.6426 14.2054 41.8838 16.0266C40.379 16.9979 38.9996 18.0906 37.9964 19.4261C36.9932 18.0906 35.8646 16.8764 34.6106 16.0266C31.9772 14.2054 28.7167 13.3555 25.2055 13.3555C22.0705 13.3555 19.3117 14.0839 16.6783 15.4195C15.4243 16.148 14.2957 16.9979 13.2925 17.9692V13.9625C6.01923 13.9625 0 19.6689 0 26.8323V51.4791C0 52.0862 0.501606 52.4504 1.00321 52.4504H12.7909C13.4179 52.4504 13.7941 51.9648 13.7941 51.4791V33.51C13.7941 31.446 14.0449 29.8676 14.6719 28.6535C15.2989 27.4394 16.0513 26.4681 17.1799 25.861C18.1831 25.2539 19.4371 24.8897 20.8165 24.8897C22.6975 24.8897 24.2023 25.4968 25.2055 26.7109C26.2087 27.925 26.8357 29.989 26.8357 32.6601V51.4791C26.8357 52.0862 27.3373 52.4504 27.8389 52.4504H39.6266C40.2536 52.4504 40.6298 51.9648 40.6298 51.4791V33.51C40.6298 31.446 40.8806 29.8676 41.5076 28.6535C42.1346 27.4394 42.887 26.4681 44.0156 25.861C45.0188 25.2539 46.2728 24.8897 47.5268 24.8897C49.4078 24.8897 50.7873 25.4968 51.9159 26.7109C53.0445 27.925 53.5461 29.989 53.5461 32.6601V51.4791C53.5461 52.0862 54.0477 52.4504 54.5493 52.4504H67.3401V49.5365C65.0829 48.0796 63.2019 46.0155 61.5717 43.5873Z" fill="white"/>
<path d="M124.899 0V17.4835C124.272 16.755 123.52 16.1479 122.642 15.6623C120.259 14.3267 117.375 13.5982 113.989 13.5982C110.352 13.5982 107.092 14.3267 104.208 16.0265C102.076 17.1192 100.195 18.819 98.6902 20.6402C99.4426 21.3687 100.07 22.2186 100.571 23.0684C102.452 25.9823 103.455 29.5033 103.455 33.3885C103.455 37.2737 102.452 40.6733 100.571 43.7086C99.9442 44.5585 99.4426 45.4084 98.6902 46.1369C100.195 48.0795 101.951 49.6579 104.208 50.872C107.092 52.4504 110.352 53.3002 113.989 53.3002C117.5 53.3002 120.51 52.5718 122.893 51.1148C124.021 50.5077 124.899 49.6579 125.651 48.6866V51.4791C125.651 52.0861 126.153 52.4504 126.655 52.4504H137.815C138.442 52.4504 138.818 51.9647 138.818 51.4791V13.4768C138.818 6.07064 132.674 0 124.899 0ZM124.147 38.3665C123.394 39.702 122.391 40.7947 121.137 41.5232C119.883 42.2517 118.504 42.6159 116.873 42.6159C115.243 42.6159 113.864 42.2517 112.61 41.5232C111.356 40.7947 110.352 39.702 109.6 38.3665C108.848 37.0309 108.471 35.3311 108.471 33.3885C108.471 31.4459 108.848 29.8676 109.6 28.532C110.352 27.1965 111.356 26.1038 112.61 25.4967C113.864 24.7682 115.243 24.404 116.873 24.404C118.504 24.404 119.883 24.7682 121.137 25.4967C122.391 26.2252 123.394 27.1965 124.147 28.532C124.899 29.8676 125.275 31.5673 125.275 33.3885C125.15 35.3311 124.774 36.9095 124.147 38.3665Z" fill="white"/>
<path d="M180.577 35.331C179.699 33.9955 178.696 32.7814 177.191 32.0529C175.812 31.203 174.307 30.5959 172.551 30.2317C170.921 29.7461 169.166 29.5032 167.535 29.2604C165.905 29.0176 164.4 28.8962 163.021 28.6533C161.641 28.4105 160.513 28.1677 159.635 27.682C158.757 27.3178 158.381 26.7107 158.381 25.9823C158.381 25.2538 158.883 24.6467 159.76 24.0397C160.764 23.554 162.394 23.3112 164.651 23.3112C166.407 23.3112 168.288 23.554 170.169 23.9182C173.805 24.6467 177.442 22.8255 178.947 19.5474L179.699 17.969C179.95 17.3619 179.699 16.6335 179.198 16.3906C177.442 15.5407 175.436 14.9337 173.053 14.448C170.169 13.9624 167.41 13.5981 164.651 13.5981C160.513 13.5981 157.002 14.2052 154.117 15.2979C151.233 16.3906 149.101 17.969 147.597 19.7902C146.092 21.7328 145.339 23.9182 145.339 26.3465C145.339 28.5319 145.716 30.3531 146.593 31.6887C147.471 33.1456 148.474 34.2383 149.979 35.0882C151.359 35.9381 152.863 36.5452 154.619 36.9094C156.249 37.2737 158.005 37.6379 159.635 37.8807C161.265 38.1235 162.77 38.3664 164.149 38.4878C165.529 38.7306 166.657 38.9734 167.535 39.3377C168.413 39.7019 168.789 40.1876 168.789 41.0375C168.789 41.8873 168.288 42.4944 167.41 42.9801C166.532 43.4657 164.902 43.7085 162.519 43.7085C160.137 43.7085 157.754 43.3443 155.246 42.7372H155.121C151.233 41.7659 147.095 43.5871 145.465 47.2295L144.963 48.3222C144.712 48.9293 144.963 49.5364 145.465 49.9006C147.22 50.7505 149.478 51.6004 152.236 52.2074C155.371 52.9359 158.757 53.3001 162.018 53.3001C166.281 53.3001 169.918 52.6931 172.802 51.6004C175.686 50.5076 177.944 48.9293 179.323 47.1081C180.828 45.1655 181.58 43.1015 181.58 40.7946C181.831 38.4878 181.329 36.6666 180.577 35.331Z" fill="white"/>
<path d="M85.2723 25.3754C84.1437 24.647 82.6389 24.2827 81.0087 24.2827C79.3785 24.2827 77.9991 24.647 76.7451 25.3754C75.4911 26.1039 74.4879 27.0752 73.7355 28.4108C72.9831 29.7463 72.6069 31.4461 72.6069 33.3887C72.6069 35.2099 72.9831 37.0311 73.7355 38.3666C74.4879 39.8236 75.4911 40.9163 76.7451 41.5233C77.9991 42.2518 79.3785 42.6161 81.0087 42.6161C82.6389 42.6161 84.1437 42.2518 85.2723 41.5233C86.5263 40.7949 87.5295 39.8236 88.2819 38.3666C89.0344 37.0311 89.4106 35.3313 89.4106 33.3887C89.4106 31.4461 89.0344 29.7463 88.2819 28.4108C87.6549 27.0752 86.5263 25.9825 85.2723 25.3754Z" fill="white"/>
<path d="M89.0345 5.94934C75.2404 -3.64227 54.1731 4.37098 54.1731 4.37098C54.1731 4.37098 59.8162 6.31358 64.0798 9.95597C66.964 12.5056 70.099 16.9979 74.3626 17.9692C78.6263 18.9405 84.3947 18.212 83.7677 16.8765C83.1407 15.4195 76.2436 13.8412 77.2468 11.2915C77.623 10.1988 80.6327 10.4416 83.8931 11.4129C84.3947 11.5343 85.0217 11.7772 85.5233 12.02C86.5265 12.3842 87.5297 12.7485 88.4075 13.2341C88.7837 13.3555 89.1599 13.5984 89.4107 13.8412C90.4139 14.3268 91.4171 14.9339 92.2949 15.541C96.1823 18.0906 98.5649 20.6403 98.5649 20.6403C95.9315 10.4416 89.0345 5.94934 89.0345 5.94934Z" fill="white"/>
<path d="M172.426 5.22081C172.426 5.82788 172.175 6.19212 171.799 6.31353L172.551 7.40625H171.548L170.796 6.31353H170.42V7.40625H169.667V4.24951H171.423C172.05 4.24951 172.426 4.49234 172.426 5.22081ZM171.172 5.70646C171.423 5.70646 171.548 5.58505 171.548 5.22081C171.548 4.97799 171.423 4.85658 171.172 4.85658H170.294V5.70646H171.172Z" fill="white"/>
<path d="M170.921 9.34907C168.915 9.34907 167.284 7.77071 167.284 5.8281C167.284 3.8855 168.915 2.30713 170.921 2.30713C172.928 2.30713 174.558 3.8855 174.558 5.8281C174.558 7.77071 172.928 9.34907 170.921 9.34907ZM170.921 3.15702C169.291 3.15702 168.037 4.37115 168.037 5.94951C168.037 7.52788 169.291 8.74201 170.921 8.74201C172.551 8.74201 173.805 7.52788 173.805 5.94951C173.805 4.37115 172.551 3.15702 170.921 3.15702Z" fill="white"/>
</svg>
