<svg width="518" height="355" viewBox="0 0 518 355" fill="none" xmlns="http://www.w3.org/2000/svg">
<path d="M190.984 262.342C191.738 261.957 192.5 261.833 193.27 261.971C194.062 262.209 194.64 262.655 195.002 263.308C195.487 264.039 195.673 264.839 195.558 265.709C194.545 269.527 193.551 272.286 192.575 273.988C191.599 275.689 190.253 276.475 188.537 276.345C187.144 276.247 186.035 275.555 185.211 274.27C184.41 273.086 183.6 270.27 182.78 265.823C181.961 261.376 181.175 255.709 180.424 248.822C179.772 241.913 178.925 231.886 177.883 218.744C176.741 205.625 175.86 195.448 175.239 188.215C174.617 180.982 173.633 172.411 172.286 162.5C171.016 152.467 169.632 144.673 168.135 139.118C165.055 127.185 161.045 121.475 156.105 121.987C151.866 122.336 146.814 127.142 140.95 136.404C135.086 145.666 129.352 159.587 123.75 178.168C110.863 220.356 102.975 272.978 100.086 336.035C99.9861 336.058 99.9477 336.119 99.9708 336.219C99.8488 337.512 99.6956 338.444 99.5114 339.013C99.4503 339.66 99.3008 340.379 99.0629 341.172C98.8482 342.065 98.5255 342.719 98.0949 343.135C97.6875 343.651 97.1837 343.978 96.5836 344.117C96.2835 344.187 95.9103 344.168 95.4639 344.061C94.071 343.962 93.066 343.035 92.449 341.281C91.932 339.504 91.5566 336.746 91.3227 333.006C90.9646 327.82 90.5969 320.317 90.2197 310.498C89.5675 293.577 89.0488 270.407 88.6636 240.989C87.984 189.824 87.7438 149.201 87.9429 119.121C87.9385 113.642 87.581 109.14 86.8702 105.616C86.1594 102.093 85.4497 99.9385 84.7411 99.1542C84.1094 98.2467 83.4972 97.6508 82.9044 97.3665C81.6652 97.0212 79.8496 97.5998 77.4576 99.1023C75.1656 100.582 72.4667 103.262 69.361 107.143C63.6106 114.165 57.9466 123.381 52.369 134.79C46.7682 146.098 42.0603 157.622 38.2452 169.36C34.5301 181.075 32.2921 192.343 31.5312 203.163C30.7703 213.983 32.085 222.162 35.4753 227.699C39.8596 234.799 47.876 237.105 59.5245 234.617C60.3247 234.432 61.0443 234.582 61.6834 235.066C62.4225 235.527 62.8847 236.158 63.07 236.958C63.2553 237.758 63.1174 238.528 62.6563 239.267C62.2721 239.883 61.6798 240.283 60.8797 240.469C46.4075 243.504 36.228 240.277 30.3413 230.786C28.7925 228.193 27.6127 225.147 26.8019 221.646C25.8911 218.169 25.4187 214.537 25.3849 210.751C25.328 206.865 25.4826 202.983 25.8489 199.104C26.2152 195.225 26.8315 191.289 27.6978 187.294C28.5642 183.3 29.3732 179.74 30.1248 176.615C30.9533 173.367 31.905 170.196 32.9798 167.102C36.7792 154.84 41.5561 142.932 47.3105 131.377C53.165 119.799 58.9559 110.448 64.6831 103.326C72.5707 93.7003 79.274 89.882 84.793 91.8707C90.8817 94.0435 93.8862 103.148 93.8067 119.185C93.7452 138.485 93.8729 168.384 94.19 208.884C94.584 249.26 95.1677 281.584 95.9412 305.854C97.7009 283.421 100.173 262.245 103.359 242.328C106.621 222.287 110.262 204.793 114.282 189.845C118.303 174.898 122.613 161.886 127.214 150.809C131.814 139.732 136.505 131.321 141.287 125.577C146.146 119.709 150.884 116.504 155.5 115.962C163.857 115.185 170.007 122.403 173.951 137.613C175.372 143.291 176.729 151.196 178.022 161.33C179.415 171.44 180.434 180.162 181.079 187.495C181.8 194.705 182.693 204.931 183.758 218.174C186.011 244.736 187.782 261.029 189.072 267.053C189.287 266.16 189.54 265.206 189.832 264.19C189.97 263.42 190.354 262.804 190.984 262.342ZM257.167 173.982C257.898 173.497 258.66 173.373 259.453 173.611C260.222 173.749 260.8 174.195 261.185 174.948C261.647 175.579 261.81 176.279 261.672 177.049C256.089 201.632 249.097 214.896 240.696 216.842C240.195 216.958 239.634 217.035 239.01 217.074C232.008 217.326 225.772 209.286 220.303 192.953C216.931 200.69 213.832 207.098 211.004 212.179C208.437 216.568 205.826 218.49 203.171 217.945C200.562 217.601 198.809 215.267 197.913 210.943C197.079 207.343 196.883 202.856 197.325 197.485C197.767 192.113 198.994 186.718 201.006 181.299C203.018 175.88 205.685 172.153 209.008 170.119C213.869 166.991 219.175 167.606 224.927 171.965C225.566 172.449 225.928 173.103 226.013 173.926C226.199 174.726 226.049 175.446 225.565 176.085C225.081 176.724 224.438 177.136 223.638 177.322C222.815 177.407 222.084 177.207 221.445 176.723C216.971 173.333 213.235 173.355 210.237 176.79C206.808 180.64 204.573 186.69 203.533 194.94C202.57 203.067 202.759 208.662 204.101 211.723C204.585 211.084 205.135 210.272 205.749 209.286C208.754 204.059 212.23 196.773 216.178 187.427C217.061 185.326 217.672 183.867 218.01 183.051C218.579 181.866 219.559 181.322 220.952 181.421C222.322 181.42 223.219 182.108 223.643 183.485C224.978 188.34 226.386 192.598 227.867 196.26C229.347 199.922 230.619 202.683 231.682 204.545C232.723 206.306 233.793 207.744 234.895 208.859C235.996 209.974 236.793 210.685 237.286 210.993C237.855 211.177 238.39 211.211 238.89 211.095C240.36 211.071 241.96 210.015 243.69 207.929C245.496 205.719 247.505 201.881 249.717 196.416C252.006 190.827 254.055 183.977 255.865 175.864C256.079 174.972 256.514 174.344 257.167 173.982ZM366.249 90.7035C366.888 91.1878 367.25 91.8416 367.335 92.6649C367.42 93.4882 367.171 94.231 366.587 94.8932C365.572 95.9714 364.41 96.1878 363.101 95.5424C357.907 94.954 324.165 102.611 261.878 118.513C261.701 147.324 261.956 178.458 262.645 211.916C263.562 252.277 264.839 279.855 266.474 294.652C266.674 294.606 266.886 294.609 267.109 294.663C267.955 294.678 268.61 295 269.072 295.631C269.557 296.362 269.731 297.112 269.593 297.882C269.464 299.598 269.33 300.841 269.192 301.61C268.977 302.503 268.601 303.381 268.063 304.243C267.548 305.205 266.891 305.779 266.091 305.964C265.791 306.034 265.429 306.065 265.006 306.057C263.613 305.959 262.619 305.082 262.026 303.428C261.332 301.797 260.899 299.474 260.727 296.457C260.154 292.164 259.653 285.904 259.223 277.678C258.249 262.096 257.482 241.724 256.923 216.561C256.119 182.603 255.782 150.433 255.911 120.053C249.133 121.728 240.728 123.885 230.696 126.525C214.785 130.632 205.43 133.009 202.629 133.658C201.829 133.843 201.121 133.744 200.505 133.36C199.766 132.898 199.304 132.268 199.118 131.468C199.003 130.968 199.048 130.483 199.256 130.013C199.34 129.467 199.609 129.036 200.063 128.72C200.393 128.327 200.809 128.073 201.309 127.957C204.109 127.308 213.403 124.892 229.19 120.709C239.046 118.215 248.001 115.93 256.056 113.854C256.199 99.9102 256.455 88.0479 256.825 78.267C256.839 77.4205 257.15 76.7161 257.758 76.1539C258.365 75.5917 259.042 75.3295 259.789 75.3674C260.635 75.3821 261.34 75.6932 261.902 76.3007C262.464 76.9081 262.738 77.6351 262.723 78.4816C262.384 87.9393 262.101 99.2283 261.873 112.349C291.693 104.599 314.278 99.052 329.627 95.7077C344.977 92.3634 354.659 90.4896 358.676 90.0862C362.769 89.5597 365.294 89.7654 366.249 90.7035ZM330.087 157.883C330.841 157.498 331.565 157.436 332.257 157.697C333.05 157.935 333.639 158.431 334.025 159.184C334.41 159.938 334.472 160.662 334.211 161.354C333.451 163.533 332.626 165.884 331.735 168.409C330.821 170.834 329.393 174.221 327.449 178.57C325.606 182.896 323.758 186.749 321.906 190.129C320.031 193.408 317.887 196.434 315.473 199.207C313.059 201.979 310.801 203.608 308.701 204.095C307.901 204.28 307.166 204.292 306.496 204.131C301.278 203.443 298.156 196.104 297.129 182.115C294.871 187.38 292.658 191.476 290.49 194.402C287.354 198.606 284.046 199.793 280.566 197.965C277.356 196.39 275.252 192.767 274.255 187.097C273.158 181.449 273.507 175.677 275.303 169.782C275.541 168.989 276.037 168.4 276.791 168.014C277.545 167.629 278.318 167.555 279.111 167.793C279.904 168.031 280.493 168.527 280.878 169.281C281.24 169.935 281.302 170.658 281.065 171.451C280.013 174.645 279.496 177.874 279.514 181.136C279.632 184.376 280.034 187.023 280.721 189.077C281.484 191.008 282.285 192.192 283.125 192.63C283.74 193.014 284.61 192.444 285.732 190.92C287.823 188.117 290.158 183.413 292.739 176.809C293.23 175.746 293.58 174.98 293.787 174.511C294.071 173.918 294.394 173.264 294.755 172.548C295.093 171.732 295.389 171.189 295.643 170.92C295.896 170.65 296.2 170.369 296.554 170.076C296.884 169.683 297.261 169.491 297.685 169.498C298.085 169.405 298.558 169.401 299.104 169.485C300.52 169.684 301.487 170.672 302.004 172.45C302.498 174.127 302.769 176.435 302.817 179.375C302.991 185.131 303.514 189.436 304.386 192.29C305.358 195.121 306.025 196.863 306.387 197.517C306.726 198.071 307.046 198.313 307.346 198.244C307.692 198.374 308.169 198.158 308.777 197.596C309.507 197.111 310.28 196.352 311.095 195.32C312.01 194.265 312.978 192.987 314.001 191.486C315 189.884 316.091 187.998 317.274 185.827C318.558 183.633 319.806 181.289 321.02 178.795C322.211 176.2 323.482 173.271 324.834 170.007C326.162 166.644 327.406 163.141 328.565 159.5C328.803 158.708 329.31 158.169 330.087 157.883ZM388.667 142.893C389.397 142.408 390.159 142.284 390.952 142.522C391.722 142.66 392.349 143.094 392.834 143.825C393.297 144.455 393.409 145.167 393.171 145.96C391.814 152.386 390.142 159.044 388.154 165.933C386.167 172.822 383.841 179.841 381.176 186.992C378.635 194.22 375.815 200.248 372.718 205.075C369.644 210.003 366.707 212.791 363.906 213.439C363.206 213.601 362.521 213.602 361.852 213.441C357.38 212.79 354.644 206.89 353.642 195.741C352.703 185.315 353.091 170.155 354.806 150.261C354.706 150.284 354.618 150.358 354.541 150.481C354.541 150.481 354.491 150.492 354.391 150.516C352.538 152.525 350.954 154.104 349.639 155.252C348.424 156.376 346.682 157.728 344.413 159.308C342.244 160.864 340.048 161.847 337.825 162.256C335.601 162.666 333.389 162.441 331.187 161.581C326.761 159.76 323.942 156.461 322.73 151.684C321.518 146.906 322.102 141.238 324.482 134.68C325.949 130.546 327.97 126.758 330.545 123.317C333.22 119.852 335.881 118.603 338.529 119.57C340.115 120.046 341.216 121.161 341.833 122.915C342.55 124.646 342.511 128.344 341.715 134.008C340.896 139.572 339.098 147.05 336.32 156.44C339.513 156.122 344.116 152.79 350.128 146.444C351.22 145.243 352.031 144.423 352.562 143.984C353.169 143.422 353.827 142.848 354.534 142.262C355.342 141.654 356.057 141.33 356.68 141.291C357.304 141.252 357.962 141.363 358.655 141.624C360.433 142.477 361.169 144.519 360.864 147.752C358.043 181.074 358.448 200.793 362.077 206.907C362.37 207.261 362.589 207.527 362.736 207.703C363.559 207.618 364.609 206.69 365.885 204.919C367.261 203.125 368.801 200.45 370.507 196.893C372.312 193.313 374.129 189.099 375.957 184.249C377.884 179.377 379.842 173.496 381.829 166.607C383.917 159.695 385.762 152.418 387.364 144.775C387.579 143.883 388.013 143.255 388.667 142.893ZM328.093 146.173C328.003 149.883 328.852 152.637 330.639 154.436C334.998 140.042 336.907 130.537 336.364 125.921C335.326 126.899 334.192 128.373 332.963 130.344C331.833 132.292 330.719 134.763 329.621 137.757C328.6 140.629 328.091 143.434 328.093 146.173ZM445.729 130.309C446.459 129.824 447.221 129.7 448.014 129.938C448.784 130.076 449.361 130.522 449.746 131.275C450.209 131.906 450.371 132.606 450.233 133.376C444.65 157.959 437.658 171.223 429.257 173.169C428.757 173.285 428.195 173.362 427.572 173.401C420.569 173.653 414.334 165.613 408.865 149.28C405.493 157.017 402.393 163.425 399.565 168.506C396.998 172.895 394.387 174.817 391.732 174.273C389.123 173.928 387.371 171.594 386.474 167.27C385.641 163.67 385.445 159.183 385.887 153.812C386.329 148.44 387.556 143.045 389.567 137.626C391.579 132.207 394.246 128.48 397.569 126.446C402.43 123.318 407.736 123.933 413.488 128.292C414.127 128.776 414.489 129.43 414.575 130.253C414.76 131.053 414.611 131.773 414.126 132.412C413.642 133.051 413 133.463 412.2 133.649C411.376 133.734 410.645 133.535 410.006 133.05C405.532 129.66 401.796 129.682 398.798 133.117C395.369 136.967 393.135 143.017 392.095 151.268C391.131 159.394 391.321 164.989 392.662 168.05C393.146 167.411 393.696 166.599 394.311 165.613C397.315 160.386 400.792 153.1 404.739 143.755C405.623 141.653 406.233 140.194 406.571 139.378C407.14 138.193 408.12 137.65 409.513 137.749C410.883 137.747 411.78 138.435 412.204 139.813C413.54 144.667 414.947 148.925 416.428 152.587C417.908 156.249 419.18 159.01 420.244 160.872C421.284 162.633 422.355 164.071 423.456 165.186C424.557 166.301 425.354 167.012 425.847 167.32C426.417 167.504 426.951 167.538 427.452 167.422C428.921 167.398 430.521 166.342 432.251 164.256C434.057 162.046 436.067 158.208 438.278 152.743C440.567 147.154 442.616 140.304 444.426 132.192C444.641 131.299 445.075 130.671 445.729 130.309ZM460.236 14.0822C463.055 16.6964 463.707 24.291 462.194 36.8662C460.757 49.3181 457.102 64.0227 451.229 80.9799C451.152 81.1031 451.075 81.2263 450.998 81.3495C450.535 108.014 450.565 135.67 451.088 164.319C451.734 193.045 452.601 213.394 453.687 225.367C453.787 225.344 453.887 225.32 453.987 225.297C454.857 225.412 455.573 225.773 456.135 226.381C456.598 227.011 456.771 227.761 456.657 228.631C456.45 230.47 456.29 231.825 456.175 232.694C455.983 233.687 455.63 234.665 455.115 235.627C454.601 236.589 453.943 237.163 453.143 237.349C452.843 237.418 452.481 237.449 452.058 237.442C450.542 237.266 449.467 236.04 448.835 233.762C448.225 231.585 447.651 225.922 447.113 216.773C446.411 205.554 445.845 190.825 445.415 172.588C444.543 131.058 444.617 93.84 445.638 60.9346C445.735 58.1719 445.86 55.2977 446.012 52.3118C446.14 49.2259 446.456 45.3588 446.96 40.7105C447.465 36.0622 448.046 31.9756 448.705 28.4507C449.441 24.8026 450.419 21.5198 451.641 18.6023C452.839 15.5849 454.215 13.7908 455.769 13.2201C457.4 12.5262 458.889 12.8136 460.236 14.0822ZM451.593 60.0295C456.097 43.0734 457.852 30.1787 456.86 21.3454C453.988 28.9659 452.233 41.8606 451.593 60.0295Z" fill="#EEEDED"/>
</svg>
