<svg width="735" height="100" viewBox="0 0 735 336" fill="none" xmlns="http://www.w3.org/2000/svg">
<path d="M336.826 315.688C335.414 316.073 333.874 316.842 332.719 317.997C331.564 319.152 330.795 320.435 330.41 322.104C330.025 323.515 330.026 325.055 330.54 326.596C330.925 328.264 331.952 329.805 333.493 331.345C334.905 332.757 336.574 333.913 338.243 334.298C339.911 334.941 341.451 334.941 342.863 334.556C344.275 334.172 345.686 333.53 346.969 332.247C348.124 331.093 349.022 329.681 349.278 328.141C349.663 326.729 349.663 325.189 349.149 323.392C348.635 321.852 347.608 320.311 346.067 318.771C344.527 317.23 342.986 316.203 341.446 315.689C339.777 315.304 338.237 315.303 336.826 315.688Z" fill="url(#paint0_linear_189_183)"/>
<path d="M324.628 298.101C306.917 300.92 297.426 322.993 297.426 322.993C297.426 322.993 303.2 320.299 309.233 319.916C313.339 319.66 319.115 320.817 323.093 318.379C327.071 315.942 330.792 311.194 329.252 310.424C327.711 309.653 321.295 313.759 320.139 311.063C319.497 309.908 322.064 307.855 325.272 306.187C325.785 305.931 326.298 305.674 326.94 305.289C327.967 304.776 328.993 304.52 330.02 304.007C330.405 303.879 330.79 303.75 331.303 303.75C332.458 303.366 333.742 303.109 334.768 302.853C339.645 301.828 343.367 302.214 343.367 302.214C333.355 296.307 324.628 298.101 324.628 298.101Z" fill="url(#paint1_linear_189_183)"/>
<path d="M400.869 315.834C399.458 316.219 397.918 316.988 396.763 318.143C395.608 319.298 394.839 320.581 394.454 322.25C394.069 323.661 394.07 325.201 394.584 326.742C394.969 328.41 395.996 329.951 397.537 331.491C398.949 332.904 400.618 334.059 402.286 334.445C403.955 335.087 405.495 335.087 406.907 334.702C408.319 334.318 409.73 333.677 411.013 332.393C412.168 331.239 413.066 329.827 413.322 328.287C413.707 326.875 413.707 325.335 413.193 323.538C412.679 321.998 411.652 320.458 410.111 318.917C408.571 317.376 407.03 316.349 405.49 315.835C403.95 315.322 402.409 315.321 400.869 315.834Z" fill="url(#paint2_linear_189_183)"/>
<path d="M388.672 297.991C370.961 300.809 361.469 322.882 361.469 322.882C361.469 322.882 367.244 320.188 373.276 319.805C377.383 319.549 383.159 320.706 387.137 318.269C391.115 315.831 394.836 311.084 393.295 310.313C391.755 309.543 385.339 313.648 384.183 310.952C383.541 309.797 386.107 307.744 389.316 306.077C389.829 305.82 390.342 305.563 390.984 305.179C392.01 304.666 393.037 304.409 394.064 303.896C394.449 303.768 394.834 303.64 395.347 303.64C396.502 303.255 397.785 302.999 398.812 302.742C403.689 301.717 407.411 302.103 407.411 302.103C397.27 296.325 388.672 297.991 388.672 297.991Z" fill="url(#paint3_linear_189_183)"/>
<path d="M464.913 315.723C463.501 316.108 461.962 316.878 460.807 318.033C459.652 319.187 458.882 320.471 458.498 322.139C458.113 323.551 458.113 325.091 458.627 326.631C459.013 328.3 460.04 329.84 461.581 331.381C462.993 332.793 464.661 333.948 466.33 334.334C467.999 334.976 469.539 334.976 470.951 334.592C472.362 334.207 473.774 333.566 475.057 332.283C476.212 331.128 477.11 329.716 477.366 328.176C477.751 326.765 477.75 325.225 477.236 323.428C476.723 321.887 475.695 320.347 474.155 318.806C472.614 317.266 471.074 316.239 469.534 315.725C467.865 315.339 466.325 315.339 464.913 315.723Z" fill="url(#paint4_linear_189_183)"/>
<path d="M452.844 298.009C435.133 300.827 425.642 322.9 425.642 322.9C425.642 322.9 431.416 320.206 437.448 319.823C441.555 319.567 447.331 320.724 451.309 318.286C455.287 315.849 459.008 311.101 457.468 310.331C455.927 309.56 449.511 313.666 448.355 310.97C447.713 309.815 450.28 307.762 453.488 306.094C454.001 305.838 454.514 305.581 455.156 305.196C456.183 304.683 457.209 304.427 458.236 303.914C458.621 303.786 459.006 303.657 459.519 303.657C460.674 303.273 461.958 303.016 462.984 302.76C467.861 301.735 471.583 302.121 471.583 302.121C461.442 296.342 452.844 298.009 452.844 298.009Z" fill="url(#paint5_linear_189_183)"/>
<path d="M529.085 315.741C527.674 316.126 526.134 316.896 524.979 318.05C523.824 319.205 523.055 320.488 522.67 322.157C522.285 323.568 522.286 325.109 522.8 326.649C523.185 328.317 524.212 329.858 525.753 331.398C527.165 332.811 528.834 333.966 530.502 334.352C532.171 334.994 533.711 334.994 535.123 334.61C536.534 334.225 537.946 333.584 539.229 332.3C540.384 331.146 541.282 329.734 541.538 328.194C541.923 326.782 541.922 325.242 541.409 323.445C540.895 321.905 539.868 320.365 538.327 318.824C536.786 317.284 535.246 316.256 533.706 315.743C532.037 315.357 530.497 315.357 529.085 315.741Z" fill="url(#paint6_linear_189_183)"/>
<path d="M516.888 298.155C499.177 300.973 489.686 323.046 489.686 323.046C489.686 323.046 495.46 320.352 501.492 319.969C505.599 319.713 511.375 320.87 515.353 318.433C519.331 315.995 523.052 311.247 521.511 310.477C519.971 309.706 513.555 313.812 512.399 311.116C511.757 309.961 514.324 307.908 517.532 306.24C518.045 305.984 518.558 305.727 519.2 305.343C520.226 304.829 521.253 304.573 522.28 304.06C522.665 303.932 523.05 303.803 523.563 303.804C524.718 303.419 526.002 303.163 527.028 302.906C531.905 301.881 535.627 302.267 535.627 302.267C525.615 296.36 516.888 298.155 516.888 298.155Z" fill="url(#paint7_linear_189_183)"/>
<path d="M593.129 315.887C591.718 316.272 590.178 317.042 589.023 318.196C587.868 319.351 587.098 320.634 586.714 322.303C586.329 323.714 586.33 325.255 586.843 326.795C587.229 328.463 588.256 330.004 589.797 331.544C591.209 332.957 592.878 334.112 594.546 334.498C596.215 335.14 597.755 335.14 599.167 334.756C600.578 334.371 601.99 333.73 603.273 332.447C604.428 331.292 605.326 329.88 605.582 328.34C605.967 326.929 605.966 325.388 605.453 323.591C604.939 322.051 603.912 320.511 602.371 318.97C600.83 317.43 599.29 316.402 597.75 315.889C596.209 315.375 594.669 315.374 593.129 315.887Z" fill="url(#paint8_linear_189_183)"/>
<path d="M580.931 298.044C563.221 300.863 553.729 322.935 553.729 322.935C553.729 322.935 559.504 320.241 565.536 319.858C569.643 319.603 575.419 320.759 579.397 318.322C583.375 315.884 587.096 311.137 585.555 310.366C584.015 309.596 577.599 313.701 576.443 311.005C575.801 309.85 578.367 307.797 581.575 306.13C582.089 305.873 582.602 305.617 583.244 305.232C584.27 304.719 585.297 304.462 586.324 303.949C586.709 303.821 587.094 303.693 587.607 303.693C588.762 303.308 590.045 303.052 591.072 302.795C595.949 301.77 599.671 302.156 599.671 302.156C589.53 296.378 580.931 298.044 580.931 298.044Z" fill="url(#paint9_linear_189_183)"/>
<path d="M657.173 315.777C655.761 316.161 654.221 316.931 653.067 318.086C651.912 319.24 651.142 320.524 650.758 322.192C650.373 323.604 650.373 325.144 650.887 326.684C651.273 328.353 652.3 329.893 653.84 331.434C655.253 332.846 656.921 334.001 658.59 334.387C660.259 335.029 661.799 335.03 663.21 334.645C664.622 334.26 666.034 333.619 667.317 332.336C668.472 331.181 669.37 329.77 669.626 328.229C670.011 326.818 670.01 325.278 669.496 323.481C668.982 321.94 667.955 320.4 666.415 318.859C664.874 317.319 663.334 316.292 661.793 315.778C660.125 315.392 658.585 315.392 657.173 315.777Z" fill="url(#paint10_linear_189_183)"/>
<path d="M645.104 298.062C627.393 300.88 617.902 322.953 617.902 322.953C617.902 322.953 623.676 320.259 629.708 319.876C633.815 319.62 639.591 320.777 643.569 318.34C647.547 315.902 651.268 311.154 649.727 310.384C648.187 309.613 641.771 313.719 640.615 311.023C639.973 309.868 642.539 307.815 645.748 306.147C646.261 305.891 646.774 305.634 647.416 305.25C648.442 304.736 649.469 304.48 650.496 303.967C650.881 303.839 651.266 303.71 651.779 303.711C652.934 303.326 654.217 303.07 655.244 302.813C660.121 301.788 663.843 302.174 663.843 302.174C653.702 296.396 645.104 298.062 645.104 298.062Z" fill="url(#paint11_linear_189_183)"/>
<path d="M721.345 315.794C719.934 316.179 718.394 316.949 717.239 318.103C716.084 319.258 715.314 320.541 714.93 322.21C714.545 323.621 714.546 325.162 715.059 326.702C715.445 328.37 716.472 329.911 718.013 331.451C719.425 332.864 721.094 334.019 722.762 334.405C724.431 335.047 725.971 335.047 727.383 334.663C728.794 334.278 730.206 333.637 731.489 332.354C732.644 331.199 733.542 329.787 733.798 328.247C734.183 326.835 734.182 325.295 733.668 323.498C733.155 321.958 732.127 320.418 730.587 318.877C729.046 317.337 727.506 316.309 725.966 315.796C724.297 315.41 722.757 315.41 721.345 315.794Z" fill="url(#paint12_linear_189_183)"/>
<path d="M709.148 298.208C691.437 301.026 681.945 323.099 681.945 323.099C681.945 323.099 687.72 320.405 693.752 320.022C697.859 319.766 703.635 320.923 707.613 318.486C711.591 316.048 715.312 311.3 713.771 310.53C712.231 309.759 705.815 313.865 704.659 311.169C704.017 310.014 706.583 307.961 709.791 306.294C710.305 306.037 710.818 305.78 711.46 305.396C712.486 304.882 713.513 304.626 714.54 304.113C714.925 303.985 715.31 303.856 715.823 303.857C716.978 303.472 718.261 303.216 719.288 302.959C724.165 301.934 727.887 302.32 727.887 302.32C717.874 296.413 709.148 298.208 709.148 298.208Z" fill="url(#paint13_linear_189_183)"/>
<path d="M294.332 273.194C292.92 273.579 291.38 274.349 290.225 275.503C289.071 276.658 288.301 277.941 287.916 279.61C287.532 281.021 287.532 282.561 288.046 284.102C288.431 285.77 289.459 287.311 290.999 288.851C292.411 290.263 294.08 291.419 295.749 291.805C297.417 292.447 298.957 292.447 300.369 292.063C301.781 291.678 303.192 291.037 304.476 289.754C305.63 288.599 306.528 287.187 306.785 285.647C307.169 284.235 307.169 282.695 306.655 280.898C306.141 279.358 305.114 277.818 303.573 276.277C302.033 274.736 300.492 273.709 298.952 273.195C297.412 272.938 295.872 272.938 294.332 273.194Z" fill="url(#paint14_linear_189_183)"/>
<path d="M282.134 255.608C264.423 258.426 254.932 280.499 254.932 280.499C254.932 280.499 260.707 277.805 266.739 277.422C270.846 277.166 276.621 278.323 280.599 275.886C284.577 273.448 288.298 268.7 286.758 267.93C285.217 267.159 278.801 271.265 277.645 268.569C277.003 267.414 279.57 265.361 282.778 263.693C283.291 263.437 283.805 263.18 284.446 262.796C285.473 262.282 286.499 262.026 287.526 261.513C287.911 261.385 288.296 261.256 288.809 261.257C289.964 260.872 291.248 260.616 292.275 260.359C297.151 259.334 300.873 259.72 300.873 259.72C290.861 253.813 282.134 255.608 282.134 255.608Z" fill="url(#paint15_linear_189_183)"/>
<path d="M358.376 273.34C356.964 273.725 355.424 274.495 354.269 275.649C353.114 276.804 352.345 278.087 351.96 279.756C351.576 281.167 351.576 282.708 352.09 284.248C352.475 285.916 353.502 287.457 355.043 288.997C356.455 290.41 358.124 291.565 359.793 291.951C361.461 292.593 363.001 292.593 364.413 292.209C365.825 291.824 367.236 291.183 368.519 289.9C369.674 288.745 370.572 287.333 370.828 285.793C371.213 284.382 371.213 282.841 370.699 281.044C370.185 279.504 369.158 277.964 367.617 276.423C366.077 274.883 364.536 273.855 362.996 273.342C361.456 272.828 359.916 272.827 358.376 273.34Z" fill="url(#paint16_linear_189_183)"/>
<path d="M346.306 255.625C328.595 258.444 319.104 280.517 319.104 280.517C319.104 280.517 324.879 277.823 330.911 277.44C335.018 277.184 340.794 278.341 344.772 275.903C348.75 273.466 352.47 268.718 350.93 267.948C349.39 267.177 342.974 271.282 341.818 268.587C341.176 267.432 343.742 265.379 346.95 263.711C347.463 263.455 347.977 263.198 348.618 262.813C349.645 262.3 350.672 262.044 351.698 261.531C352.083 261.402 352.468 261.274 352.982 261.274C354.137 260.89 355.42 260.633 356.447 260.377C361.324 259.351 365.046 259.738 365.046 259.738C354.905 253.959 346.306 255.625 346.306 255.625Z" fill="url(#paint17_linear_189_183)"/>
<path d="M422.548 273.358C421.136 273.743 419.596 274.512 418.441 275.667C417.287 276.822 416.517 278.105 416.132 279.774C415.748 281.185 415.748 282.725 416.262 284.266C416.647 285.934 417.675 287.475 419.215 289.015C420.627 290.427 422.296 291.583 423.965 291.968C425.633 292.611 427.174 292.611 428.585 292.226C429.997 291.842 431.409 291.2 432.692 289.917C433.846 288.763 434.744 287.351 435.001 285.811C435.385 284.399 435.385 282.859 434.871 281.062C434.357 279.522 433.33 277.982 431.789 276.441C430.249 274.9 428.709 273.873 427.168 273.359C425.5 272.974 423.96 272.974 422.548 273.358Z" fill="url(#paint18_linear_189_183)"/>
<path d="M410.478 255.643C392.768 258.462 383.276 280.534 383.276 280.534C383.276 280.534 389.051 277.841 395.083 277.457C399.19 277.202 404.966 278.359 408.944 275.921C412.922 273.484 416.643 268.736 415.102 267.966C413.562 267.195 407.146 271.3 405.99 268.605C405.348 267.449 407.914 265.397 411.122 263.729C411.636 263.472 412.149 263.216 412.791 262.831C413.817 262.318 414.844 262.062 415.871 261.548C416.256 261.42 416.64 261.292 417.154 261.292C418.309 260.907 419.592 260.651 420.619 260.395C425.496 259.369 429.218 259.755 429.218 259.755C419.077 253.977 410.478 255.643 410.478 255.643Z" fill="url(#paint19_linear_189_183)"/>
<path d="M486.72 273.376C485.308 273.761 483.768 274.53 482.614 275.685C481.459 276.84 480.689 278.123 480.305 279.791C479.92 281.203 479.92 282.743 480.434 284.283C480.82 285.952 481.847 287.492 483.387 289.033C484.8 290.445 486.468 291.601 488.137 291.986C489.806 292.628 491.346 292.629 492.757 292.244C494.169 291.86 495.581 291.218 496.864 289.935C498.019 288.78 498.917 287.369 499.173 285.829C499.558 284.417 499.557 282.877 499.043 281.08C498.529 279.54 497.502 277.999 495.962 276.459C494.421 274.918 492.881 273.891 491.34 273.377C489.672 272.992 488.132 272.991 486.72 273.376Z" fill="url(#paint20_linear_189_183)"/>
<path d="M474.394 255.661C456.683 258.479 447.192 280.552 447.192 280.552C447.192 280.552 452.966 277.858 458.999 277.475C463.106 277.22 468.881 278.376 472.859 275.939C476.837 273.501 480.558 268.754 479.018 267.983C477.477 267.213 471.061 271.318 469.905 268.622C469.263 267.467 471.83 265.414 475.038 263.747C475.551 263.49 476.064 263.234 476.706 262.849C477.733 262.336 478.759 262.079 479.786 261.566C480.171 261.438 480.556 261.31 481.069 261.31C482.224 260.925 483.508 260.669 484.534 260.412C489.411 259.387 493.133 259.773 493.133 259.773C483.121 253.866 474.394 255.661 474.394 255.661Z" fill="url(#paint21_linear_189_183)"/>
<path d="M550.635 273.393C549.224 273.778 547.684 274.548 546.529 275.702C545.374 276.857 544.605 278.14 544.22 279.809C543.835 281.221 543.836 282.761 544.35 284.301C544.735 285.97 545.762 287.51 547.303 289.051C548.715 290.463 550.384 291.618 552.052 292.004C553.721 292.646 555.261 292.646 556.673 292.262C558.085 291.877 559.496 291.236 560.779 289.953C561.934 288.798 562.832 287.386 563.088 285.846C563.473 284.435 563.472 282.894 562.959 281.097C562.445 279.557 561.418 278.017 559.877 276.476C558.336 274.936 556.796 273.909 555.256 273.395C553.716 272.881 552.175 272.88 550.635 273.393Z" fill="url(#paint22_linear_189_183)"/>
<path d="M538.566 255.678C520.855 258.497 511.364 280.57 511.364 280.57C511.364 280.57 517.139 277.876 523.171 277.493C527.278 277.237 533.053 278.394 537.031 275.956C541.009 273.519 544.73 268.771 543.19 268.001C541.649 267.23 535.233 271.336 534.078 268.64C533.435 267.485 536.002 265.432 539.21 263.764C539.723 263.508 540.237 263.251 540.878 262.866C541.905 262.353 542.931 262.097 543.958 261.584C544.343 261.456 544.728 261.327 545.241 261.327C546.396 260.943 547.68 260.686 548.707 260.43C553.583 259.405 557.305 259.791 557.305 259.791C547.165 254.012 538.566 255.678 538.566 255.678Z" fill="url(#paint23_linear_189_183)"/>
<path d="M614.808 273.411C613.396 273.796 611.856 274.565 610.701 275.72C609.546 276.875 608.777 278.158 608.392 279.827C608.008 281.238 608.008 282.778 608.522 284.319C608.907 285.987 609.934 287.528 611.475 289.068C612.887 290.48 614.556 291.636 616.225 292.022C617.893 292.664 619.433 292.664 620.845 292.279C622.257 291.895 623.668 291.254 624.951 289.97C626.106 288.816 627.004 287.404 627.261 285.864C627.645 284.452 627.645 282.912 627.131 281.115C626.617 279.575 625.59 278.035 624.049 276.494C622.509 274.953 620.968 273.926 619.428 273.412C617.759 273.027 616.219 273.027 614.808 273.411Z" fill="url(#paint24_linear_189_183)"/>
<path d="M602.738 255.696C585.027 258.515 575.536 280.587 575.536 280.587C575.536 280.587 581.311 277.894 587.343 277.51C591.45 277.255 597.226 278.412 601.204 275.974C605.182 273.537 608.902 268.789 607.362 268.019C605.822 267.248 599.406 271.353 598.25 268.658C597.608 267.502 600.174 265.45 603.382 263.782C603.895 263.526 604.409 263.269 605.05 262.884C606.077 262.371 607.104 262.115 608.13 261.602C608.515 261.473 608.9 261.345 609.414 261.345C610.569 260.96 611.852 260.704 612.879 260.448C617.756 259.422 621.478 259.808 621.478 259.808C611.337 254.03 602.738 255.696 602.738 255.696Z" fill="url(#paint25_linear_189_183)"/>
<path d="M678.98 273.429C677.568 273.814 676.028 274.583 674.874 275.738C673.719 276.893 672.949 278.176 672.564 279.844C672.18 281.256 672.18 282.796 672.694 284.337C673.08 286.005 674.107 287.546 675.647 289.086C677.059 290.498 678.728 291.654 680.397 292.039C682.065 292.682 683.606 292.682 685.017 292.297C686.429 291.913 687.841 291.271 689.124 289.988C690.278 288.833 691.176 287.422 691.433 285.882C691.817 284.47 691.817 282.93 691.303 281.133C690.789 279.593 689.762 278.052 688.222 276.512C686.681 274.971 685.141 273.944 683.6 273.43C681.932 273.045 680.392 273.044 678.98 273.429Z" fill="url(#paint26_linear_189_183)"/>
<path d="M666.654 255.714C648.943 258.532 639.452 280.605 639.452 280.605C639.452 280.605 645.226 277.911 651.258 277.528C655.365 277.273 661.141 278.429 665.119 275.992C669.097 273.554 672.818 268.807 671.277 268.036C669.737 267.266 663.321 271.371 662.165 268.675C661.523 267.52 664.089 265.467 667.298 263.8C667.811 263.543 668.324 263.287 668.966 262.902C669.992 262.389 671.019 262.132 672.046 261.619C672.431 261.491 672.816 261.363 673.329 261.363C674.484 260.978 675.768 260.722 676.794 260.465C681.671 259.44 685.393 259.826 685.393 259.826C675.381 253.919 666.654 255.714 666.654 255.714Z" fill="url(#paint27_linear_189_183)"/>
<path d="M251.966 230.829C250.555 231.214 249.015 231.983 247.86 233.138C246.705 234.293 245.936 235.576 245.551 237.244C245.166 238.656 245.167 240.196 245.681 241.736C246.066 243.405 247.093 244.945 248.634 246.486C250.046 247.898 251.715 249.054 253.383 249.439C255.052 250.081 256.592 250.082 258.004 249.697C259.415 249.313 260.827 248.671 262.11 247.388C263.265 246.233 264.163 244.822 264.419 243.282C264.804 241.87 264.803 240.33 264.29 238.533C263.776 236.993 262.749 235.452 261.208 233.912C259.667 232.371 258.127 231.344 256.587 230.83C254.918 230.445 253.378 230.444 251.966 230.829Z" fill="url(#paint28_linear_189_183)"/>
<path d="M239.769 213.242C222.058 216.061 212.567 238.134 212.567 238.134C212.567 238.134 218.341 235.44 224.373 235.057C228.48 234.801 234.256 235.958 238.234 233.52C242.212 231.083 245.933 226.335 244.392 225.565C242.852 224.794 236.436 228.899 235.28 226.204C234.638 225.049 237.204 222.996 240.413 221.328C240.926 221.072 241.439 220.815 242.081 220.43C243.107 219.917 244.134 219.661 245.161 219.148C245.546 219.019 245.931 218.891 246.444 218.891C247.599 218.507 248.882 218.25 249.909 217.994C254.786 216.968 258.508 217.354 258.508 217.354C248.496 211.448 239.769 213.242 239.769 213.242Z" fill="url(#paint29_linear_189_183)"/>
<path d="M316.01 230.975C314.599 231.36 313.059 232.129 311.904 233.284C310.749 234.439 309.979 235.722 309.595 237.39C309.21 238.802 309.211 240.342 309.724 241.883C310.11 243.551 311.137 245.092 312.678 246.632C314.09 248.044 315.759 249.2 317.427 249.585C319.096 250.228 320.636 250.228 322.048 249.843C323.459 249.459 324.871 248.817 326.154 247.534C327.309 246.379 328.207 244.968 328.463 243.428C328.848 242.016 328.847 240.476 328.333 238.679C327.82 237.139 326.792 235.598 325.252 234.058C323.711 232.517 322.171 231.49 320.631 230.976C319.09 230.463 317.55 230.462 316.01 230.975Z" fill="url(#paint30_linear_189_183)"/>
<path d="M303.812 213.132C286.102 215.95 276.61 238.023 276.61 238.023C276.61 238.023 282.385 235.329 288.417 234.946C292.524 234.69 298.3 235.847 302.278 233.41C306.256 230.972 309.977 226.224 308.436 225.454C306.896 224.683 300.48 228.789 299.324 226.093C298.682 224.938 301.248 222.885 304.456 221.217C304.97 220.961 305.483 220.704 306.125 220.32C307.151 219.806 308.178 219.55 309.205 219.037C309.59 218.909 309.974 218.78 310.488 218.781C311.643 218.396 312.926 218.14 313.953 217.883C318.83 216.858 322.552 217.244 322.552 217.244C312.539 211.594 303.812 213.132 303.812 213.132Z" fill="url(#paint31_linear_189_183)"/>
<path d="M380.054 230.864C378.642 231.249 377.102 232.019 375.948 233.173C374.793 234.328 374.023 235.611 373.639 237.28C373.254 238.691 373.254 240.232 373.768 241.772C374.154 243.44 375.181 244.981 376.721 246.521C378.134 247.934 379.802 249.089 381.471 249.475C383.14 250.117 384.68 250.117 386.091 249.733C387.503 249.348 388.915 248.707 390.198 247.424C391.353 246.269 392.251 244.857 392.507 243.317C392.892 241.905 392.891 240.365 392.377 238.568C391.863 237.028 390.836 235.488 389.296 233.947C387.755 232.407 386.215 231.379 384.674 230.866C383.134 230.608 381.466 230.48 380.054 230.864Z" fill="url(#paint32_linear_189_183)"/>
<path d="M367.985 213.149C350.274 215.968 340.782 238.041 340.782 238.041C340.782 238.041 346.557 235.347 352.589 234.964C356.696 234.708 362.472 235.865 366.45 233.427C370.428 230.99 374.149 226.242 372.608 225.472C371.068 224.701 364.652 228.806 363.496 226.111C362.854 224.956 365.42 222.903 368.629 221.235C369.142 220.979 369.655 220.722 370.297 220.337C371.323 219.824 372.35 219.568 373.377 219.055C373.762 218.926 374.147 218.798 374.66 218.798C375.815 218.414 377.098 218.157 378.125 217.901C383.002 216.875 386.724 217.262 386.724 217.262C376.583 211.483 367.985 213.149 367.985 213.149Z" fill="url(#paint33_linear_189_183)"/>
<path d="M444.226 230.882C442.815 231.267 441.275 232.036 440.12 233.191C438.965 234.346 438.195 235.629 437.811 237.298C437.426 238.709 437.427 240.249 437.94 241.79C438.326 243.458 439.353 244.999 440.894 246.539C442.306 247.951 443.975 249.107 445.643 249.492C447.312 250.135 448.852 250.135 450.264 249.75C451.675 249.366 453.087 248.724 454.37 247.441C455.525 246.287 456.423 244.875 456.679 243.335C457.064 241.923 457.063 240.383 456.549 238.586C456.036 237.046 455.008 235.505 453.468 233.965C451.927 232.424 450.387 231.397 448.847 230.883C447.178 230.498 445.638 230.497 444.226 230.882Z" fill="url(#paint34_linear_189_183)"/>
<path d="M432.029 213.295C414.318 216.114 404.826 238.187 404.826 238.187C404.826 238.187 410.601 235.493 416.633 235.11C420.74 234.854 426.516 236.011 430.494 233.573C434.472 231.136 438.193 226.388 436.652 225.618C435.112 224.847 428.696 228.953 427.54 226.257C426.898 225.102 429.464 223.049 432.672 221.381C433.186 221.125 433.699 220.868 434.341 220.483C435.367 219.97 436.394 219.714 437.421 219.201C437.806 219.072 438.191 218.944 438.704 218.944C439.859 218.56 441.142 218.303 442.169 218.047C447.046 217.022 450.768 217.408 450.768 217.408C440.755 211.501 432.029 213.295 432.029 213.295Z" fill="url(#paint35_linear_189_183)"/>
<path d="M508.27 231.028C506.858 231.413 505.318 232.182 504.164 233.337C503.009 234.492 502.239 235.775 501.855 237.443C501.47 238.855 501.47 240.395 501.984 241.936C502.37 243.604 503.397 245.145 504.937 246.685C506.35 248.097 508.018 249.253 509.687 249.638C511.356 250.281 512.896 250.281 514.307 249.896C515.719 249.512 517.131 248.87 518.414 247.587C519.569 246.432 520.467 245.021 520.723 243.481C521.107 242.069 521.107 240.529 520.593 238.732C520.079 237.192 519.052 235.651 517.512 234.111C515.971 232.57 514.431 231.543 512.89 231.029C511.35 230.515 509.81 230.515 508.27 231.028Z" fill="url(#paint36_linear_189_183)"/>
<path d="M496.201 213.313C478.49 216.132 468.998 238.204 468.998 238.204C468.998 238.204 474.773 235.511 480.805 235.127C484.912 234.872 490.688 236.028 494.666 233.591C498.644 231.154 502.365 226.406 500.824 225.635C499.284 224.865 492.868 228.97 491.712 226.275C491.07 225.119 493.636 223.066 496.845 221.399C497.358 221.142 497.871 220.886 498.513 220.501C499.539 219.988 500.566 219.731 501.593 219.218C501.978 219.09 502.363 218.962 502.876 218.962C504.031 218.577 505.314 218.321 506.341 218.065C511.218 217.039 514.94 217.425 514.94 217.425C504.799 211.647 496.201 213.313 496.201 213.313Z" fill="url(#paint37_linear_189_183)"/>
<path d="M572.442 231.046C571.031 231.43 569.491 232.2 568.336 233.355C567.181 234.51 566.411 235.793 566.027 237.461C565.642 238.873 565.643 240.413 566.156 241.953C566.542 243.622 567.569 245.162 569.11 246.703C570.522 248.115 572.191 249.271 573.859 249.656C575.528 250.298 577.068 250.299 578.48 249.914C579.891 249.529 581.303 248.888 582.586 247.605C583.741 246.45 584.639 245.039 584.895 243.499C585.28 242.087 585.279 240.547 584.765 238.75C584.252 237.21 583.224 235.669 581.684 234.129C580.143 232.588 578.603 231.561 577.063 231.047C575.394 230.662 573.854 230.661 572.442 231.046Z" fill="url(#paint38_linear_189_183)"/>
<path d="M560.244 213.202C542.534 216.021 533.042 238.094 533.042 238.094C533.042 238.094 538.817 235.4 544.849 235.017C548.956 234.761 554.732 235.918 558.71 233.48C562.688 231.043 566.408 226.295 564.868 225.525C563.328 224.754 556.912 228.859 555.756 226.164C555.114 225.009 557.68 222.956 560.888 221.288C561.402 221.032 561.915 220.775 562.557 220.39C563.583 219.877 564.61 219.621 565.636 219.108C566.021 218.979 566.406 218.851 566.92 218.851C568.075 218.467 569.358 218.21 570.385 217.954C575.262 216.928 578.984 217.315 578.984 217.315C568.843 211.536 560.244 213.202 560.244 213.202Z" fill="url(#paint39_linear_189_183)"/>
<path d="M636.486 230.935C635.074 231.32 633.534 232.089 632.38 233.244C631.225 234.399 630.455 235.682 630.071 237.35C629.686 238.762 629.686 240.302 630.2 241.843C630.586 243.511 631.613 245.052 633.153 246.592C634.565 248.004 636.234 249.16 637.903 249.545C639.572 250.188 641.112 250.188 642.523 249.803C643.935 249.419 645.347 248.777 646.63 247.494C647.785 246.339 648.683 244.928 648.939 243.388C649.323 241.976 649.323 240.436 648.809 238.639C648.295 237.099 647.268 235.558 645.728 234.018C644.187 232.477 642.647 231.45 641.106 230.936C639.438 230.551 637.898 230.55 636.486 230.935Z" fill="url(#paint40_linear_189_183)"/>
<path d="M624.288 213.348C606.577 216.167 597.086 238.24 597.086 238.24C597.086 238.24 602.861 235.546 608.893 235.163C613 234.907 618.776 236.064 622.754 233.626C626.732 231.189 630.452 226.441 628.912 225.671C627.372 224.9 620.956 229.005 619.8 226.31C619.158 225.155 621.724 223.102 624.932 221.434C625.446 221.178 625.959 220.921 626.6 220.536C627.627 220.023 628.654 219.767 629.68 219.254C630.065 219.125 630.45 218.997 630.964 218.997C632.119 218.613 633.402 218.356 634.429 218.1C639.306 217.074 643.028 217.461 643.028 217.461C633.015 211.554 624.288 213.348 624.288 213.348Z" fill="url(#paint41_linear_189_183)"/>
<path d="M209.601 188.463C208.189 188.848 206.649 189.618 205.494 190.772C204.34 191.927 203.57 193.211 203.185 194.879C202.801 196.291 202.801 197.831 203.315 199.371C203.701 201.04 204.728 202.58 206.268 204.121C207.68 205.533 209.349 206.688 211.018 207.074C212.686 207.716 214.227 207.716 215.638 207.332C217.05 206.947 218.462 206.306 219.745 205.023C220.899 203.868 221.797 202.456 222.054 200.916C222.438 199.505 222.438 197.964 221.924 196.167C221.41 194.627 220.383 193.087 218.843 191.546C217.302 190.006 215.762 188.978 214.221 188.465C212.553 188.079 211.013 188.079 209.601 188.463Z" fill="url(#paint42_linear_189_183)"/>
<path d="M197.275 170.748C179.564 173.567 170.073 195.64 170.073 195.64C170.073 195.64 175.847 192.946 181.879 192.563C185.986 192.307 191.762 193.464 195.74 191.026C199.718 188.589 203.439 183.841 201.898 183.071C200.358 182.3 193.942 186.405 192.786 183.71C192.144 182.555 194.71 180.502 197.919 178.834C198.432 178.578 198.945 178.321 199.587 177.936C200.613 177.423 201.64 177.167 202.667 176.654C203.052 176.525 203.437 176.397 203.95 176.397C205.105 176.013 206.388 175.756 207.415 175.5C212.292 174.474 216.014 174.86 216.014 174.86C206.002 168.954 197.275 170.748 197.275 170.748Z" fill="url(#paint43_linear_189_183)"/>
<path d="M273.516 188.481C272.105 188.866 270.565 189.635 269.41 190.79C268.255 191.945 267.485 193.228 267.101 194.896C266.716 196.308 266.717 197.848 267.23 199.389C267.616 201.057 268.643 202.598 270.184 204.138C271.596 205.55 273.265 206.706 274.933 207.091C276.602 207.734 278.142 207.734 279.554 207.349C280.965 206.965 282.377 206.323 283.66 205.04C284.815 203.885 285.713 202.474 285.969 200.934C286.354 199.522 286.353 197.982 285.839 196.185C285.326 194.645 284.298 193.104 282.758 191.564C281.217 190.023 279.677 188.996 278.137 188.482C276.596 187.969 275.056 187.968 273.516 188.481Z" fill="url(#paint44_linear_189_183)"/>
<path d="M261.447 170.766C243.736 173.585 234.245 195.657 234.245 195.657C234.245 195.657 240.02 192.964 246.052 192.58C250.159 192.325 255.934 193.481 259.912 191.044C263.89 188.607 267.611 183.859 266.071 183.088C264.53 182.318 258.114 186.423 256.958 183.728C256.316 182.572 258.883 180.52 262.091 178.852C262.604 178.595 263.117 178.339 263.759 177.954C264.786 177.441 265.812 177.184 266.839 176.671C267.224 176.543 267.609 176.415 268.122 176.415C269.277 176.03 270.561 175.774 271.587 175.518C276.464 174.492 280.186 174.878 280.186 174.878C270.045 169.1 261.447 170.766 261.447 170.766Z" fill="url(#paint45_linear_189_183)"/>
<path d="M337.689 188.499C336.277 188.883 334.737 189.653 333.582 190.808C332.427 191.963 331.658 193.246 331.273 194.914C330.888 196.326 330.889 197.866 331.403 199.406C331.788 201.075 332.815 202.615 334.356 204.156C335.768 205.568 337.437 206.724 339.105 207.109C340.774 207.751 342.314 207.752 343.726 207.367C345.138 206.982 346.549 206.341 347.832 205.058C348.987 203.903 349.885 202.492 350.141 200.952C350.526 199.54 350.526 198 350.012 196.203C349.498 194.663 348.471 193.122 346.93 191.582C345.39 190.041 343.849 189.014 342.309 188.5C340.64 188.115 339.1 188.114 337.689 188.499Z" fill="url(#paint46_linear_189_183)"/>
<path d="M325.619 170.784C307.908 173.603 298.417 195.675 298.417 195.675C298.417 195.675 304.192 192.981 310.224 192.598C314.331 192.343 320.107 193.499 324.085 191.062C328.063 188.624 331.783 183.877 330.243 183.106C328.703 182.336 322.286 186.441 321.131 183.745C320.489 182.59 323.055 180.537 326.263 178.87C326.776 178.613 327.29 178.357 327.931 177.972C328.958 177.459 329.985 177.202 331.011 176.689C331.396 176.561 331.781 176.433 332.295 176.433C333.45 176.048 334.733 175.792 335.76 175.535C340.636 174.51 344.359 174.896 344.359 174.896C334.218 169.118 325.619 170.784 325.619 170.784Z" fill="url(#paint47_linear_189_183)"/>
<path d="M401.861 188.517C400.449 188.901 398.909 189.671 397.754 190.826C396.6 191.98 395.83 193.264 395.445 194.932C395.061 196.344 395.061 197.884 395.575 199.424C395.96 201.093 396.988 202.633 398.528 204.174C399.94 205.586 401.609 206.741 403.278 207.127C404.946 207.769 406.486 207.77 407.898 207.385C409.31 207 410.721 206.359 412.005 205.076C413.159 203.921 414.057 202.51 414.314 200.969C414.698 199.558 414.698 198.018 414.184 196.221C413.67 194.68 412.643 193.14 411.102 191.599C409.562 190.059 408.021 189.032 406.481 188.518C404.813 188.132 403.272 188.132 401.861 188.517Z" fill="url(#paint48_linear_189_183)"/>
<path d="M389.535 170.801C371.824 173.62 362.332 195.693 362.332 195.693C362.332 195.693 368.107 192.999 374.139 192.616C378.246 192.36 384.022 193.517 388 191.079C391.978 188.642 395.699 183.894 394.158 183.124C392.618 182.353 386.202 186.458 385.046 183.763C384.404 182.608 386.97 180.555 390.178 178.887C390.692 178.631 391.205 178.374 391.847 177.989C392.873 177.476 393.9 177.22 394.927 176.707C395.312 176.578 395.697 176.45 396.21 176.45C397.365 176.066 398.648 175.809 399.675 175.553C404.552 174.528 408.274 174.914 408.274 174.914C398.261 169.007 389.535 170.801 389.535 170.801Z" fill="url(#paint49_linear_189_183)"/>
<path d="M465.776 188.534C464.364 188.919 462.825 189.688 461.67 190.843C460.515 191.998 459.745 193.281 459.361 194.95C458.976 196.361 458.976 197.901 459.49 199.442C459.876 201.11 460.903 202.651 462.444 204.191C463.856 205.603 465.525 206.759 467.193 207.145C468.862 207.787 470.402 207.787 471.814 207.402C473.225 207.018 474.637 206.376 475.92 205.093C477.075 203.939 477.973 202.527 478.229 200.987C478.614 199.575 478.613 198.035 478.099 196.238C477.586 194.698 476.558 193.158 475.018 191.617C473.477 190.076 471.937 189.049 470.397 188.535C468.985 188.15 467.316 188.021 465.776 188.534Z" fill="url(#paint50_linear_189_183)"/>
<path d="M453.707 170.819C435.996 173.638 426.505 195.71 426.505 195.71C426.505 195.71 432.279 193.017 438.311 192.633C442.418 192.378 448.194 193.535 452.172 191.097C456.15 188.66 459.871 183.912 458.331 183.141C456.79 182.371 450.374 186.476 449.218 183.781C448.576 182.625 451.143 180.573 454.351 178.905C454.864 178.649 455.377 178.392 456.019 178.007C457.046 177.494 458.072 177.238 459.099 176.725C459.484 176.596 459.869 176.468 460.382 176.468C461.537 176.083 462.821 175.827 463.847 175.571C468.724 174.545 472.446 174.931 472.446 174.931C462.305 169.153 453.707 170.819 453.707 170.819Z" fill="url(#paint51_linear_189_183)"/>
<path d="M529.948 188.552C528.537 188.937 526.997 189.706 525.842 190.861C524.687 192.016 523.918 193.299 523.533 194.967C523.148 196.379 523.149 197.919 523.663 199.46C524.048 201.128 525.075 202.668 526.616 204.209C528.028 205.621 529.697 206.777 531.365 207.162C533.034 207.804 534.574 207.805 535.986 207.42C537.398 207.036 538.809 206.394 540.092 205.111C541.247 203.956 542.145 202.545 542.401 201.005C542.786 199.593 542.785 198.053 542.272 196.256C541.758 194.716 540.731 193.175 539.19 191.635C537.649 190.094 536.109 189.067 534.569 188.553C532.9 188.168 531.36 188.167 529.948 188.552Z" fill="url(#paint52_linear_189_183)"/>
<path d="M517.879 170.837C500.168 173.656 490.677 195.728 490.677 195.728C490.677 195.728 496.452 193.035 502.484 192.651C506.591 192.396 512.366 193.552 516.344 191.115C520.322 188.677 524.043 183.93 522.503 183.159C520.962 182.389 514.546 186.494 513.391 183.798C512.748 182.643 515.315 180.59 518.523 178.923C519.036 178.666 519.55 178.41 520.191 178.025C521.218 177.512 522.244 177.255 523.271 176.742C523.656 176.614 524.041 176.486 524.554 176.486C525.709 176.101 526.993 175.845 528.02 175.589C532.896 174.563 536.618 174.949 536.618 174.949C526.478 169.171 517.879 170.837 517.879 170.837Z" fill="url(#paint53_linear_189_183)"/>
<path d="M594.121 188.57C592.709 188.954 591.169 189.724 590.014 190.879C588.859 192.034 588.09 193.317 587.705 194.985C587.321 196.397 587.321 197.937 587.835 199.477C588.22 201.146 589.247 202.686 590.788 204.227C592.2 205.639 593.869 206.795 595.538 207.18C597.206 207.822 598.746 207.823 600.158 207.438C601.57 207.053 602.981 206.412 604.264 205.129C605.419 203.974 606.317 202.563 606.574 201.023C606.958 199.611 606.958 198.071 606.444 196.274C605.93 194.734 604.903 193.193 603.362 191.653C601.822 190.112 600.281 189.085 598.741 188.571C597.072 188.186 595.532 188.185 594.121 188.57Z" fill="url(#paint54_linear_189_183)"/>
<path d="M581.923 170.983C564.212 173.802 554.721 195.874 554.721 195.874C554.721 195.874 560.496 193.181 566.528 192.797C570.635 192.542 576.41 193.698 580.388 191.261C584.366 188.824 588.087 184.076 586.547 183.305C585.006 182.535 578.59 186.64 577.434 183.945C576.792 182.789 579.359 180.736 582.567 179.069C583.08 178.812 583.593 178.556 584.235 178.171C585.262 177.658 586.288 177.401 587.315 176.888C587.7 176.76 588.085 176.632 588.598 176.632C589.753 176.247 591.037 175.991 592.063 175.735C596.94 174.709 600.662 175.095 600.662 175.095C590.65 169.189 581.923 170.983 581.923 170.983Z" fill="url(#paint55_linear_189_183)"/>
<path d="M167.107 145.97C165.695 146.354 164.155 147.124 163.001 148.279C161.846 149.433 161.076 150.717 160.692 152.385C160.307 153.797 160.307 155.337 160.821 156.877C161.207 158.546 162.234 160.086 163.774 161.627C165.187 163.039 166.855 164.194 168.524 164.58C170.193 165.222 171.733 165.223 173.144 164.838C174.556 164.453 175.968 163.812 177.251 162.529C178.406 161.374 179.304 159.962 179.56 158.422C179.945 157.011 179.944 155.471 179.43 153.674C178.916 152.133 177.889 150.593 176.349 149.052C174.808 147.512 173.268 146.485 171.727 145.971C170.059 145.585 168.519 145.585 167.107 145.97Z" fill="url(#paint56_linear_189_183)"/>
<path d="M154.909 128.383C137.199 131.202 127.707 153.274 127.707 153.274C127.707 153.274 133.482 150.581 139.514 150.197C143.621 149.942 149.397 151.098 153.375 148.661C157.353 146.224 161.073 141.476 159.533 140.705C157.993 139.935 151.577 144.04 150.421 141.344C149.779 140.189 152.345 138.136 155.553 136.469C156.067 136.212 156.58 135.956 157.222 135.571C158.248 135.058 159.275 134.801 160.301 134.288C160.686 134.16 161.071 134.032 161.585 134.032C162.74 133.647 164.023 133.391 165.05 133.134C169.927 132.109 173.649 132.495 173.649 132.495C163.636 126.588 154.909 128.383 154.909 128.383Z" fill="url(#paint57_linear_189_183)"/>
<path d="M231.151 146.116C229.739 146.5 228.199 147.27 227.045 148.425C225.89 149.58 225.12 150.863 224.736 152.531C224.351 153.943 224.351 155.483 224.865 157.023C225.251 158.692 226.278 160.232 227.818 161.773C229.23 163.185 230.899 164.341 232.568 164.726C234.237 165.368 235.777 165.369 237.188 164.984C238.6 164.599 240.012 163.958 241.295 162.675C242.45 161.52 243.348 160.109 243.604 158.569C243.988 157.157 243.988 155.617 243.474 153.82C242.96 152.279 241.933 150.739 240.393 149.199C238.852 147.658 237.312 146.631 235.771 146.117C234.231 145.603 232.691 145.603 231.151 146.116Z" fill="url(#paint58_linear_189_183)"/>
<path d="M219.082 128.401C201.371 131.219 191.879 153.292 191.879 153.292C191.879 153.292 197.654 150.598 203.686 150.215C207.793 149.959 213.569 151.116 217.547 148.679C221.525 146.241 225.246 141.494 223.705 140.723C222.165 139.953 215.749 144.058 214.593 141.362C213.951 140.207 216.517 138.154 219.725 136.487C220.239 136.23 220.752 135.974 221.394 135.589C222.42 135.076 223.447 134.819 224.474 134.306C224.859 134.178 225.244 134.05 225.757 134.05C226.912 133.665 228.195 133.409 229.222 133.152C234.099 132.127 237.821 132.513 237.821 132.513C227.68 126.735 219.082 128.401 219.082 128.401Z" fill="url(#paint59_linear_189_183)"/>
<path d="M295.323 146.133C293.912 146.518 292.372 147.288 291.217 148.443C290.062 149.597 289.292 150.881 288.908 152.549C288.523 153.961 288.524 155.501 289.037 157.041C289.423 158.71 290.45 160.25 291.991 161.791C293.403 163.203 295.072 164.358 296.74 164.744C298.409 165.386 299.949 165.386 301.361 165.002C302.772 164.617 304.184 163.976 305.467 162.693C306.622 161.538 307.52 160.126 307.776 158.586C308.161 157.175 308.16 155.635 307.646 153.838C307.133 152.297 306.105 150.757 304.565 149.216C303.024 147.676 301.484 146.649 299.944 146.135C298.275 145.749 296.735 145.749 295.323 146.133Z" fill="url(#paint60_linear_189_183)"/>
<path d="M283.125 128.29C265.415 131.109 255.923 153.181 255.923 153.181C255.923 153.181 261.698 150.488 267.73 150.104C271.837 149.849 277.613 151.005 281.591 148.568C285.569 146.131 289.289 141.383 287.749 140.612C286.209 139.842 279.793 143.947 278.637 141.252C277.995 140.096 280.561 138.043 283.769 136.376C284.283 136.119 284.796 135.863 285.437 135.478C286.464 134.965 287.491 134.708 288.517 134.195C288.902 134.067 289.287 133.939 289.801 133.939C290.956 133.554 292.239 133.298 293.266 133.042C298.143 132.016 301.865 132.402 301.865 132.402C291.724 126.624 283.125 128.29 283.125 128.29Z" fill="url(#paint61_linear_189_183)"/>
<path d="M359.367 146.023C357.955 146.407 356.415 147.177 355.26 148.332C354.106 149.487 353.336 150.77 352.951 152.438C352.567 153.85 352.567 155.39 353.081 156.93C353.467 158.599 354.494 160.139 356.034 161.68C357.446 163.092 359.115 164.248 360.784 164.633C362.452 165.275 363.993 165.276 365.404 164.891C366.816 164.506 368.228 163.865 369.511 162.582C370.665 161.427 371.563 160.016 371.82 158.476C372.204 157.064 372.204 155.524 371.69 153.727C371.176 152.187 370.149 150.646 368.609 149.106C367.068 147.565 365.528 146.538 363.987 146.024C362.319 145.639 360.779 145.638 359.367 146.023Z" fill="url(#paint62_linear_189_183)"/>
<path d="M347.169 128.436C329.458 131.255 319.967 153.327 319.967 153.327C319.967 153.327 325.742 150.634 331.774 150.25C335.881 149.995 341.657 151.152 345.635 148.714C349.613 146.277 353.333 141.529 351.793 140.758C350.253 139.988 343.837 144.093 342.681 141.398C342.039 140.242 344.605 138.19 347.813 136.522C348.326 136.265 348.84 136.009 349.481 135.624C350.508 135.111 351.535 134.854 352.561 134.341C352.946 134.213 353.331 134.085 353.845 134.085C355 133.7 356.283 133.444 357.31 133.188C362.187 132.162 365.909 132.548 365.909 132.548C355.896 126.642 347.169 128.436 347.169 128.436Z" fill="url(#paint63_linear_189_183)"/>
<path d="M423.411 146.169C421.999 146.554 420.459 147.323 419.304 148.478C418.15 149.633 417.38 150.916 416.995 152.584C416.611 153.996 416.611 155.536 417.125 157.076C417.51 158.745 418.538 160.285 420.078 161.826C421.49 163.238 423.159 164.394 424.828 164.779C426.496 165.421 428.037 165.422 429.448 165.037C430.86 164.653 432.272 164.011 433.555 162.728C434.709 161.573 435.607 160.162 435.864 158.622C436.248 157.21 436.248 155.67 435.734 153.873C435.22 152.333 434.193 150.792 432.652 149.252C431.112 147.711 429.572 146.684 428.031 146.17C426.491 145.656 424.951 145.656 423.411 146.169Z" fill="url(#paint64_linear_189_183)"/>
<path d="M411.341 128.454C393.631 131.272 384.139 153.345 384.139 153.345C384.139 153.345 389.914 150.651 395.946 150.268C400.053 150.013 405.829 151.169 409.807 148.732C413.785 146.294 417.506 141.547 415.965 140.776C414.425 140.006 408.009 144.111 406.853 141.415C406.211 140.26 408.777 138.207 411.985 136.54C412.499 136.283 413.012 136.027 413.654 135.642C414.68 135.129 415.707 134.872 416.734 134.359C417.119 134.231 417.504 134.103 418.017 134.103C419.172 133.718 420.455 133.462 421.482 133.205C426.359 132.18 430.081 132.566 430.081 132.566C419.94 126.788 411.341 128.454 411.341 128.454Z" fill="url(#paint65_linear_189_183)"/>
<path d="M487.583 146.187C486.171 146.571 484.632 147.341 483.477 148.496C482.322 149.65 481.552 150.934 481.168 152.602C480.783 154.014 480.783 155.554 481.297 157.094C481.683 158.763 482.71 160.303 484.25 161.844C485.663 163.256 487.331 164.411 489 164.797C490.669 165.439 492.209 165.44 493.621 165.055C495.032 164.67 496.444 164.029 497.727 162.746C498.882 161.591 499.78 160.18 500.036 158.639C500.421 157.228 500.42 155.688 499.906 153.891C499.392 152.35 498.365 150.81 496.825 149.269C495.284 147.729 493.744 146.702 492.203 146.188C490.535 145.802 488.995 145.802 487.583 146.187Z" fill="url(#paint66_linear_189_183)"/>
<path d="M475.385 128.343C457.674 131.162 448.183 153.234 448.183 153.234C448.183 153.234 453.958 150.541 459.99 150.157C464.097 149.902 469.873 151.059 473.851 148.621C477.829 146.184 481.549 141.436 480.009 140.665C478.469 139.895 472.053 144 470.897 141.305C470.255 140.149 472.821 138.097 476.029 136.429C476.542 136.172 477.056 135.916 477.697 135.531C478.724 135.018 479.751 134.762 480.777 134.248C481.162 134.12 481.547 133.992 482.061 133.992C483.216 133.607 484.499 133.351 485.526 133.095C490.403 132.069 494.125 132.455 494.125 132.455C483.984 126.677 475.385 128.343 475.385 128.343Z" fill="url(#paint67_linear_189_183)"/>
<path d="M551.627 146.076C550.215 146.46 548.675 147.23 547.52 148.385C546.365 149.54 545.596 150.823 545.211 152.491C544.827 153.903 544.827 155.443 545.341 156.983C545.726 158.652 546.753 160.192 548.294 161.733C549.706 163.145 551.375 164.301 553.044 164.686C554.712 165.328 556.252 165.329 557.664 164.944C559.076 164.559 560.487 163.918 561.77 162.635C562.925 161.48 563.823 160.069 564.079 158.529C564.464 157.117 564.464 155.577 563.95 153.78C563.436 152.24 562.409 150.699 560.868 149.159C559.328 147.618 557.787 146.591 556.247 146.077C554.578 145.691 553.038 145.691 551.627 146.076Z" fill="url(#paint68_linear_189_183)"/>
<path d="M539.429 128.489C521.718 131.308 512.227 153.38 512.227 153.38C512.227 153.38 518.002 150.687 524.034 150.303C528.141 150.048 533.916 151.204 537.894 148.767C541.872 146.33 545.593 141.582 544.053 140.811C542.512 140.041 536.096 144.146 534.94 141.451C534.298 140.295 536.865 138.242 540.073 136.575C540.586 136.318 541.099 136.062 541.741 135.677C542.768 135.164 543.794 134.907 544.821 134.394C545.206 134.266 545.591 134.138 546.104 134.138C547.259 133.753 548.543 133.497 549.569 133.241C554.446 132.215 558.168 132.601 558.168 132.601C548.156 126.695 539.429 128.489 539.429 128.489Z" fill="url(#paint69_linear_189_183)"/>
<path d="M124.742 103.604C123.33 103.989 121.79 104.759 120.635 105.913C119.481 107.068 118.711 108.351 118.326 110.02C117.942 111.431 117.942 112.971 118.456 114.512C118.841 116.18 119.868 117.721 121.409 119.261C122.821 120.673 124.49 121.829 126.159 122.215C127.827 122.857 129.367 122.857 130.779 122.473C132.191 122.088 133.602 121.447 134.886 120.164C136.04 119.009 136.938 117.597 137.195 116.057C137.579 114.645 137.579 113.105 137.065 111.308C136.551 109.768 135.524 108.228 133.983 106.687C132.443 105.146 130.902 104.119 129.362 103.605C127.694 103.22 126.153 103.22 124.742 103.604Z" fill="url(#paint70_linear_189_183)"/>
<path d="M112.544 86.0176C94.8333 88.8363 85.3419 110.909 85.3419 110.909C85.3419 110.909 91.1166 108.215 97.1487 107.832C101.256 107.576 107.031 108.733 111.009 106.296C114.987 103.858 118.708 99.1104 117.168 98.34C115.627 97.5695 109.211 101.675 108.055 98.9791C107.413 97.8238 109.98 95.771 113.188 94.1035C113.701 93.8469 114.215 93.5904 114.856 93.2056C115.883 92.6925 116.909 92.436 117.936 91.9229C118.321 91.7946 118.706 91.6665 119.219 91.6666C120.374 91.2819 121.658 91.0256 122.685 90.7692C127.561 89.7437 131.283 90.1298 131.283 90.1298C121.271 84.2232 112.544 86.0176 112.544 86.0176Z" fill="url(#paint71_linear_189_183)"/>
<path d="M188.657 103.622C187.245 104.006 185.705 104.776 184.551 105.931C183.396 107.086 182.626 108.369 182.242 110.037C181.857 111.449 181.857 112.989 182.371 114.529C182.757 116.198 183.784 117.738 185.324 119.279C186.737 120.691 188.405 121.847 190.074 122.232C191.743 122.874 193.283 122.875 194.695 122.49C196.106 122.106 197.518 121.464 198.801 120.181C199.956 119.026 200.854 117.615 201.11 116.075C201.495 114.663 201.494 113.123 200.98 111.326C200.467 109.786 199.439 108.245 197.899 106.705C196.358 105.164 194.818 104.137 193.278 103.623C191.866 103.238 190.325 103.237 188.657 103.622Z" fill="url(#paint72_linear_189_183)"/>
<path d="M176.588 85.9069C158.877 88.7256 149.386 110.798 149.386 110.798C149.386 110.798 155.16 108.105 161.192 107.721C165.299 107.466 171.075 108.622 175.053 106.185C179.031 103.747 182.752 98.9997 181.212 98.2292C179.671 97.4587 173.255 101.564 172.099 98.8685C171.457 97.7132 174.024 95.6603 177.232 93.9928C177.745 93.7362 178.258 93.4797 178.9 93.0949C179.927 92.5818 180.953 92.3253 181.98 91.8122C182.365 91.684 182.75 91.5558 183.263 91.5559C184.418 91.1712 185.702 90.9149 186.728 90.6585C191.605 89.6331 195.327 90.0191 195.327 90.0191C185.186 84.2408 176.588 85.9069 176.588 85.9069Z" fill="url(#paint73_linear_189_183)"/>
<path d="M252.829 103.64C251.418 104.024 249.878 104.794 248.723 105.949C247.568 107.103 246.798 108.387 246.414 110.055C246.029 111.467 246.03 113.007 246.543 114.547C246.929 116.216 247.956 117.756 249.497 119.297C250.909 120.709 252.578 121.864 254.246 122.25C255.915 122.892 257.455 122.893 258.867 122.508C260.278 122.123 261.69 121.482 262.973 120.199C264.128 119.044 265.026 117.633 265.282 116.092C265.667 114.681 265.666 113.141 265.153 111.344C264.639 109.803 263.612 108.263 262.071 106.722C260.53 105.182 258.99 104.155 257.45 103.641C255.781 103.255 254.241 103.255 252.829 103.64Z" fill="url(#paint74_linear_189_183)"/>
<path d="M240.76 85.9247C223.049 88.7433 213.558 110.816 213.558 110.816C213.558 110.816 219.333 108.122 225.365 107.739C229.472 107.483 235.247 108.64 239.225 106.203C243.203 103.765 246.924 99.0175 245.384 98.247C243.843 97.4765 237.427 101.582 236.271 98.8862C235.629 97.7309 238.196 95.6781 241.404 94.0105C241.917 93.754 242.43 93.4974 243.072 93.1126C244.099 92.5995 245.125 92.343 246.152 91.8299C246.537 91.7017 246.922 91.5736 247.435 91.5737C248.59 91.189 249.874 90.9326 250.9 90.6762C255.777 89.6508 259.499 90.0368 259.499 90.0368C249.359 84.2586 240.76 85.9247 240.76 85.9247Z" fill="url(#paint75_linear_189_183)"/>
<path d="M317.002 103.657C315.59 104.042 314.05 104.812 312.895 105.966C311.74 107.121 310.971 108.405 310.586 110.073C310.202 111.485 310.202 113.025 310.716 114.565C311.101 116.234 312.128 117.774 313.669 119.315C315.081 120.727 316.75 121.882 318.419 122.268C320.087 122.91 321.627 122.91 323.039 122.526C324.451 122.141 325.862 121.5 327.145 120.217C328.3 119.062 329.198 117.65 329.454 116.11C329.839 114.699 329.839 113.158 329.325 111.362C328.811 109.821 327.784 108.281 326.243 106.74C324.703 105.2 323.162 104.173 321.622 103.659C319.953 103.273 318.413 103.273 317.002 103.657Z" fill="url(#paint76_linear_189_183)"/>
<path d="M304.804 86.0707C287.093 88.8894 277.602 110.962 277.602 110.962C277.602 110.962 283.376 108.268 289.409 107.885C293.516 107.63 299.291 108.786 303.269 106.349C307.247 103.911 310.968 99.1636 309.428 98.3931C307.887 97.6226 301.471 101.728 300.315 99.0323C299.673 97.8771 302.24 95.8242 305.448 94.1566C305.961 93.9001 306.474 93.6436 307.116 93.2587C308.143 92.7456 309.169 92.4892 310.196 91.9761C310.581 91.8478 310.966 91.7197 311.479 91.7198C312.634 91.3351 313.918 91.0788 314.944 90.8224C319.821 89.797 323.543 90.183 323.543 90.183C313.531 84.2763 304.804 86.0707 304.804 86.0707Z" fill="url(#paint77_linear_189_183)"/>
<path d="M381.045 103.803C379.634 104.188 378.094 104.958 376.939 106.112C375.784 107.267 375.014 108.55 374.63 110.219C374.245 111.63 374.246 113.171 374.759 114.711C375.145 116.379 376.172 117.92 377.713 119.46C379.125 120.873 380.794 122.028 382.462 122.414C384.131 123.056 385.671 123.056 387.083 122.672C388.494 122.287 389.906 121.646 391.189 120.363C392.344 119.208 393.242 117.796 393.498 116.256C393.883 114.845 393.882 113.304 393.369 111.507C392.855 109.967 391.828 108.427 390.287 106.886C388.746 105.346 387.206 104.318 385.666 103.805C384.125 103.291 382.585 103.29 381.045 103.803Z" fill="url(#paint78_linear_189_183)"/>
<path d="M368.847 85.9598C351.137 88.7785 341.645 110.851 341.645 110.851C341.645 110.851 347.42 108.157 353.452 107.774C357.559 107.519 363.335 108.675 367.313 106.238C371.291 103.8 375.012 99.0527 373.471 98.2822C371.931 97.5117 365.515 101.617 364.359 98.9214C363.717 97.7661 366.283 95.7133 369.491 94.0457C370.005 93.7892 370.518 93.5326 371.16 93.1478C372.186 92.6347 373.213 92.3783 374.24 91.8652C374.625 91.7369 375.01 91.6087 375.523 91.6088C376.678 91.2241 377.961 90.9678 378.988 90.7114C383.865 89.686 387.587 90.0721 387.587 90.0721C377.446 84.2938 368.847 85.9598 368.847 85.9598Z" fill="url(#paint79_linear_189_183)"/>
<path d="M445.089 103.693C443.677 104.077 442.137 104.847 440.983 106.002C439.828 107.156 439.058 108.44 438.674 110.108C438.289 111.52 438.289 113.06 438.803 114.6C439.189 116.269 440.216 117.809 441.756 119.35C443.169 120.762 444.837 121.917 446.506 122.303C448.175 122.945 449.715 122.946 451.126 122.561C452.538 122.176 453.95 121.535 455.233 120.252C456.388 119.097 457.286 117.686 457.542 116.145C457.927 114.734 457.926 113.194 457.412 111.397C456.898 109.856 455.871 108.316 454.331 106.775C452.79 105.235 451.25 104.208 449.709 103.694C448.041 103.308 446.501 103.308 445.089 103.693Z" fill="url(#paint80_linear_189_183)"/>
<path d="M433.02 85.9776C415.309 88.7963 405.818 110.869 405.818 110.869C405.818 110.869 411.592 108.175 417.624 107.792C421.731 107.536 427.507 108.693 431.485 106.256C435.463 103.818 439.184 99.0704 437.643 98.2999C436.103 97.5294 429.687 101.635 428.531 98.9392C427.889 97.7839 430.455 95.7311 433.664 94.0635C434.177 93.807 434.69 93.5504 435.332 93.1656C436.358 92.6525 437.385 92.396 438.412 91.8829C438.797 91.7547 439.182 91.6265 439.695 91.6266C440.85 91.2419 442.133 90.9856 443.16 90.7292C448.037 89.7038 451.759 90.0898 451.759 90.0898C441.618 84.3115 433.02 85.9776 433.02 85.9776Z" fill="url(#paint81_linear_189_183)"/>
<path d="M509.261 103.71C507.85 104.095 506.31 104.865 505.155 106.019C504 107.174 503.23 108.457 502.846 110.126C502.461 111.538 502.462 113.078 502.975 114.618C503.361 116.287 504.388 117.827 505.929 119.368C507.341 120.78 509.01 121.935 510.678 122.321C512.347 122.963 513.887 122.963 515.299 122.579C516.71 122.194 518.122 121.553 519.405 120.27C520.56 119.115 521.458 117.703 521.714 116.163C522.099 114.752 522.098 113.211 521.585 111.414C521.071 109.874 520.044 108.334 518.503 106.793C516.962 105.253 515.422 104.226 513.882 103.712C512.213 103.326 510.673 103.326 509.261 103.71Z" fill="url(#paint82_linear_189_183)"/>
<path d="M497.064 86.1237C479.353 88.9424 469.861 111.015 469.861 111.015C469.861 111.015 475.636 108.321 481.668 107.938C485.775 107.682 491.551 108.839 495.529 106.402C499.507 103.964 503.228 99.2166 501.687 98.4461C500.147 97.6756 493.731 101.781 492.575 99.0853C491.933 97.93 494.499 95.8772 497.708 94.2096C498.221 93.953 498.734 93.6965 499.376 93.3116C500.402 92.7985 501.429 92.5421 502.456 92.0291C502.841 91.9008 503.226 91.7726 503.739 91.7727C504.894 91.388 506.177 91.1317 507.204 90.8753C512.081 89.8499 515.803 90.2359 515.803 90.2359C505.791 84.3293 497.064 86.1237 497.064 86.1237Z" fill="url(#paint83_linear_189_183)"/>
<path d="M82.2479 61.1104C80.8362 61.495 79.2963 62.2647 78.1415 63.4195C76.9867 64.5743 76.217 65.8575 75.8324 67.5259C75.4478 68.9376 75.4482 70.4777 75.962 72.0179C76.3475 73.6865 77.3747 75.2269 78.9152 76.7675C80.3274 78.1797 81.9962 79.3352 83.6648 79.7207C85.3335 80.3629 86.8736 80.3634 88.2853 79.9787C89.6969 79.5941 91.1086 78.9528 92.3917 77.6697C93.5465 76.5149 94.4445 75.1033 94.7007 73.5633C95.0854 72.1515 95.0849 70.6114 94.5711 68.8145C94.0573 67.2742 93.0301 65.7337 91.4895 64.1932C89.949 62.6526 88.4086 61.6255 86.8683 61.1117C85.1997 60.7262 83.6596 60.7258 82.2479 61.1104Z" fill="url(#paint84_linear_189_183)"/>
<path d="M70.0502 43.5238C52.3394 46.3425 42.848 68.4151 42.848 68.4151C42.848 68.4151 48.6227 65.7214 54.6548 65.3381C58.7618 65.0825 64.5376 66.2393 68.5157 63.8018C72.4936 61.3643 76.2143 56.6166 74.674 55.8461C73.1336 55.0756 66.7175 59.1809 65.5617 56.4854C64.9197 55.33 67.486 53.2772 70.6941 51.6096C71.2074 51.3531 71.7207 51.0966 72.3624 50.7117C73.389 50.1986 74.4156 49.9421 75.4422 49.429C75.8272 49.3008 76.2122 49.1726 76.7256 49.1728C77.8806 48.7881 79.164 48.5317 80.1907 48.2753C85.0675 47.2499 88.7896 47.636 88.7896 47.636C78.7771 41.7293 70.0502 43.5238 70.0502 43.5238Z" fill="url(#paint85_linear_189_183)"/>
<path d="M146.292 61.2565C144.88 61.6411 143.34 62.4108 142.185 63.5656C141.031 64.7204 140.261 66.0036 139.876 67.672C139.492 69.0836 139.492 70.6238 140.006 72.1641C140.391 73.8326 141.419 75.3731 142.959 76.9136C144.371 78.3258 146.04 79.4814 147.709 79.8669C149.377 80.509 150.918 80.5095 152.329 80.1249C153.741 79.7402 155.152 79.0988 156.436 77.8158C157.59 76.661 158.488 75.2495 158.745 73.7094C159.129 72.2977 159.129 70.7576 158.615 68.9606C158.101 67.4203 157.074 65.8799 155.533 64.3393C153.993 62.7988 152.452 61.7716 150.912 61.2578C149.372 60.744 147.832 60.7435 146.292 61.2565Z" fill="url(#paint86_linear_189_183)"/>
<path d="M134.222 43.5416C116.512 46.3602 107.02 68.4329 107.02 68.4329C107.02 68.4329 112.795 65.7392 118.827 65.3558C122.934 65.1003 128.71 66.257 132.688 63.8196C136.666 61.3821 140.387 56.6344 138.846 55.8639C137.306 55.0934 130.89 59.1987 129.734 56.5032C129.092 55.3479 131.658 53.295 134.866 51.6274C135.38 51.3708 135.893 51.1144 136.535 50.7295C137.561 50.2164 138.588 49.96 139.615 49.4469C139.999 49.3186 140.385 49.1905 140.898 49.1906C142.053 48.8059 143.336 48.5495 144.363 48.2931C149.24 47.2677 152.962 47.6537 152.962 47.6537C142.821 41.8754 134.222 43.5416 134.222 43.5416Z" fill="url(#paint87_linear_189_183)"/>
<path d="M210.464 61.2742C209.052 61.6588 207.512 62.4285 206.357 63.5832C205.203 64.738 204.433 66.0213 204.048 67.6896C203.664 69.1013 203.664 70.6414 204.178 72.1817C204.563 73.8503 205.591 75.3907 207.131 76.9313C208.543 78.3435 210.212 79.499 211.881 79.8845C213.549 80.5267 215.09 80.5271 216.501 80.1425C217.913 79.7578 219.325 79.1165 220.608 77.8334C221.762 76.6786 222.66 75.2671 222.917 73.727C223.301 72.3153 223.301 70.7752 222.787 68.9783C222.273 67.438 221.246 65.8975 219.706 64.357C218.165 62.8164 216.625 61.7892 215.084 61.2754C213.416 60.8899 211.876 60.8895 210.464 61.2742Z" fill="url(#paint88_linear_189_183)"/>
<path d="M198.266 43.4306C180.555 46.2493 171.064 68.3219 171.064 68.3219C171.064 68.3219 176.839 65.6283 182.871 65.2449C186.978 64.9894 192.753 66.1461 196.731 63.7087C200.709 61.2712 204.43 56.5235 202.89 55.753C201.349 54.9825 194.933 59.0877 193.777 56.3922C193.135 55.2369 195.702 53.1841 198.91 51.5165C199.423 51.26 199.936 51.0034 200.578 50.6186C201.605 50.1055 202.631 49.8491 203.658 49.336C204.043 49.2078 204.428 49.0796 204.941 49.0797C206.096 48.695 207.38 48.4386 208.406 48.1822C213.283 47.1568 217.005 47.5429 217.005 47.5429C206.865 41.7646 198.266 43.4306 198.266 43.4306Z" fill="url(#paint89_linear_189_183)"/>
<path d="M274.508 61.1635C273.096 61.5481 271.556 62.3177 270.401 63.4725C269.246 64.6273 268.477 65.9105 268.092 67.5789C267.707 68.9905 267.708 70.5307 268.222 72.071C268.607 73.7396 269.634 75.28 271.175 76.8205C272.587 78.2327 274.256 79.3883 275.925 79.7738C277.593 80.416 279.133 80.4164 280.545 80.0318C281.957 79.6471 283.368 79.0058 284.651 77.7227C285.806 76.5679 286.704 75.1564 286.96 73.6163C287.345 72.2046 287.345 70.6645 286.831 68.8676C286.317 67.3273 285.29 65.7868 283.749 64.2463C282.209 62.7057 280.668 61.6785 279.128 61.1647C277.588 60.9076 275.919 60.7788 274.508 61.1635Z" fill="url(#paint90_linear_189_183)"/>
<path d="M262.31 43.5767C244.599 46.3954 235.108 68.468 235.108 68.468C235.108 68.468 240.882 65.7744 246.914 65.391C251.021 65.1354 256.797 66.2922 260.775 63.8547C264.753 61.4173 268.474 56.6696 266.934 55.8991C265.393 55.1286 258.977 59.2338 257.821 56.5383C257.179 55.383 259.746 53.3302 262.954 51.6626C263.467 51.4061 263.98 51.1495 264.622 50.7647C265.649 50.2516 266.675 49.9952 267.702 49.4821C268.087 49.3539 268.472 49.2256 268.985 49.2257C270.14 48.841 271.424 48.5847 272.45 48.3283C277.327 47.3028 281.049 47.689 281.049 47.689C271.037 41.7823 262.31 43.5767 262.31 43.5767Z" fill="url(#paint91_linear_189_183)"/>
<path d="M338.552 61.3095C337.14 61.6942 335.6 62.4638 334.445 63.6186C333.29 64.7734 332.521 66.0566 332.136 67.725C331.751 69.1366 331.752 70.6768 332.266 72.2171C332.651 73.8857 333.678 75.4261 335.219 76.9666C336.631 78.3788 338.3 79.5344 339.968 79.9199C341.637 80.5621 343.177 80.5625 344.589 80.1778C346.001 79.7932 347.412 79.1518 348.695 77.8687C349.85 76.714 350.748 75.3024 351.004 73.7624C351.389 72.3507 351.389 70.8106 350.875 69.0136C350.361 67.4733 349.334 65.9329 347.793 64.3924C346.253 62.8518 344.712 61.8246 343.172 61.3108C341.632 60.797 340.092 60.7966 338.552 61.3095Z" fill="url(#paint92_linear_189_183)"/>
<path d="M326.482 43.5945C308.771 46.4132 299.28 68.4858 299.28 68.4858C299.28 68.4858 305.055 65.7921 311.087 65.4088C315.194 65.1532 320.97 66.3099 324.948 63.8725C328.926 61.4351 332.646 56.6873 331.106 55.9168C329.566 55.1463 323.149 59.2516 321.994 56.5561C321.352 55.4008 323.918 53.348 327.126 51.6804C327.639 51.4238 328.153 51.1673 328.794 50.7824C329.821 50.2694 330.848 50.013 331.874 49.4999C332.259 49.3716 332.644 49.2434 333.158 49.2435C334.313 48.8588 335.596 48.6025 336.623 48.3461C341.499 47.3207 345.222 47.7067 345.222 47.7067C335.081 41.9284 326.482 43.5945 326.482 43.5945Z" fill="url(#paint93_linear_189_183)"/>
<path d="M402.724 61.3273C401.312 61.7119 399.772 62.4816 398.617 63.6363C397.463 64.7911 396.693 66.0743 396.308 67.7427C395.924 69.1544 395.924 70.6946 396.438 72.2349C396.823 73.9034 397.851 75.4439 399.391 76.9844C400.803 78.3966 402.472 79.5522 404.141 79.9377C405.809 80.5799 407.349 80.5802 408.761 80.1956C410.173 79.8109 411.584 79.1696 412.868 77.8865C414.022 76.7317 414.92 75.3202 415.177 73.7801C415.561 72.3685 415.561 70.8284 415.047 69.0314C414.533 67.4911 413.506 65.9507 411.965 64.4101C410.425 62.8696 408.884 61.8424 407.344 61.3286C405.676 60.9431 404.135 60.9426 402.724 61.3273Z" fill="url(#paint94_linear_189_183)"/>
<path d="M390.654 43.6122C372.944 46.4309 363.452 68.5035 363.452 68.5035C363.452 68.5035 369.227 65.8099 375.259 65.4266C379.366 65.171 385.142 66.3277 389.12 63.8903C393.098 61.4528 396.818 56.7051 395.278 55.9346C393.738 55.1641 387.322 59.2694 386.166 56.5738C385.524 55.4186 388.09 53.3658 391.298 51.6982C391.812 51.4416 392.325 51.1851 392.966 50.8002C393.993 50.2871 395.02 50.0307 396.046 49.5176C396.431 49.3894 396.816 49.2612 397.33 49.2613C398.485 48.8766 399.768 48.6202 400.795 48.3638C405.672 47.3384 409.394 47.7245 409.394 47.7245C399.253 41.9462 390.654 43.6122 390.654 43.6122Z" fill="url(#paint95_linear_189_183)"/>
<path d="M466.896 61.345C465.484 61.7297 463.944 62.4994 462.79 63.6541C461.635 64.8089 460.865 66.0921 460.481 67.7605C460.096 69.1722 460.096 70.7123 460.61 72.2526C460.996 73.9212 462.023 75.4616 463.563 77.0022C464.976 78.4143 466.644 79.5699 468.313 79.9554C469.982 80.5976 471.522 80.598 472.933 80.2134C474.345 79.8287 475.757 79.1874 477.04 77.9043C478.195 76.7495 479.093 75.338 479.349 73.7979C479.733 72.3862 479.733 70.8461 479.219 69.0491C478.705 67.5089 477.678 65.9684 476.138 64.4279C474.597 62.8873 473.057 61.8602 471.516 61.3464C469.848 60.9609 468.308 60.9604 466.896 61.345Z" fill="url(#paint96_linear_189_183)"/>
<path d="M454.57 43.6299C436.859 46.4486 427.368 68.5211 427.368 68.5211C427.368 68.5211 433.142 65.8275 439.174 65.4442C443.281 65.1886 449.057 66.3453 453.035 63.9079C457.013 61.4704 460.734 56.7227 459.194 55.9522C457.653 55.1817 451.237 59.287 450.081 56.5914C449.439 55.4361 452.006 53.3833 455.214 51.7157C455.727 51.4592 456.24 51.2026 456.882 50.8178C457.909 50.3047 458.935 50.0483 459.962 49.5352C460.347 49.407 460.732 49.2787 461.245 49.2789C462.4 48.8941 463.684 48.6378 464.71 48.3814C469.587 47.356 473.309 47.7421 473.309 47.7421C463.297 41.8355 454.57 43.6299 454.57 43.6299Z" fill="url(#paint97_linear_189_183)"/>
<path d="M39.8824 18.745C38.4707 19.1296 36.9308 19.8992 35.776 21.054C34.6212 22.2088 33.8515 23.492 33.467 25.1604C33.0823 26.5721 33.0828 28.1122 33.5966 29.6525C33.9821 31.3211 35.0092 32.8614 36.5498 34.402C37.9619 35.8142 39.6308 36.9698 41.2994 37.3553C42.968 37.9975 44.5081 37.9979 45.9198 37.6133C47.3315 37.2286 48.7431 36.5873 50.0262 35.3042C51.181 34.1494 52.079 32.7378 52.3353 31.1978C52.7199 29.7861 52.7195 28.246 52.2057 26.449C51.6919 24.9087 50.6646 23.3682 49.1241 21.8277C47.5835 20.2871 46.0431 19.26 44.5028 18.7462C42.8343 18.3607 41.2941 18.3603 39.8824 18.745Z" fill="url(#paint98_linear_189_183)"/>
<path d="M27.6847 1.15832C9.97393 3.97695 0.482557 26.0496 0.482557 26.0496C0.482557 26.0496 6.25728 23.3559 12.2894 22.9726C16.3963 22.717 22.1722 23.8738 26.1502 21.4364C30.1282 18.9989 33.8489 14.2512 32.3085 13.4807C30.7682 12.7102 24.3521 16.8154 23.1962 14.1199C22.5542 12.9646 25.1205 10.9117 28.3287 9.24417C28.8419 8.9876 29.3553 8.73109 29.9969 8.34624C31.0235 7.83313 32.0501 7.57669 33.0768 7.06362C33.4618 6.93535 33.8467 6.80717 34.3602 6.80735C35.5151 6.42259 36.7985 6.16627 37.8252 5.90987C42.702 4.88445 46.4241 5.2705 46.4241 5.2705C36.4116 -0.636137 27.6847 1.15832 27.6847 1.15832Z" fill="url(#paint99_linear_189_183)"/>
<path d="M103.926 18.891C102.515 19.2757 100.975 20.0453 99.8199 21.2001C98.6651 22.3549 97.8954 23.6381 97.5109 25.3065C97.1262 26.7181 97.1266 28.2583 97.6404 29.7986C98.0259 31.4672 99.0531 33.0075 100.594 34.5481C102.006 35.9603 103.675 37.1159 105.343 37.5014C107.012 38.1435 108.552 38.144 109.964 37.7594C111.375 37.3747 112.787 36.7334 114.07 35.4503C115.225 34.2955 116.123 32.884 116.379 31.3439C116.764 29.9322 116.763 28.392 116.249 26.5951C115.736 25.0548 114.708 23.5144 113.168 21.9738C111.627 20.4333 110.087 19.4061 108.547 18.8923C107.006 18.3785 105.466 18.3781 103.926 18.891Z" fill="url(#paint100_linear_189_183)"/>
<path d="M91.7283 1.04753C74.0175 3.86617 64.5262 25.9388 64.5262 25.9388C64.5262 25.9388 70.301 23.2452 76.3331 22.8618C80.44 22.6062 86.2158 23.763 90.1938 21.3255C94.1718 18.888 97.8925 14.1404 96.3522 13.3699C94.8118 12.5994 88.3957 16.7046 87.2399 14.0091C86.5978 12.8538 89.1642 10.801 92.3723 9.13342C92.8856 8.87684 93.3989 8.62032 94.0406 8.23548C95.0672 7.72238 96.0939 7.46595 97.1205 6.9529C97.5055 6.82463 97.8904 6.69641 98.4038 6.69658C99.5588 6.31188 100.842 6.0555 101.869 5.7991C106.746 4.77368 110.468 5.15973 110.468 5.15973C100.327 -0.618582 91.7283 1.04753 91.7283 1.04753Z" fill="url(#paint101_linear_189_183)"/>
<path d="M167.97 18.7803C166.558 19.1649 165.018 19.9346 163.864 21.0894C162.709 22.2441 161.939 23.5274 161.555 25.1957C161.17 26.6074 161.17 28.1476 161.684 29.6879C162.07 31.3565 163.097 32.8969 164.637 34.4375C166.05 35.8497 167.718 37.0052 169.387 37.3907C171.056 38.0328 172.596 38.0332 174.007 37.6486C175.419 37.2639 176.831 36.6226 178.114 35.3395C179.269 34.1848 180.167 32.7732 180.423 31.2332C180.807 29.8215 180.807 28.2813 180.293 26.4844C179.779 24.9441 178.752 23.4037 177.212 21.8632C175.671 20.3226 174.131 19.2954 172.59 18.7816C170.922 18.3961 169.382 18.3956 167.97 18.7803Z" fill="url(#paint102_linear_189_183)"/>
<path d="M155.901 1.06529C138.19 3.88397 128.698 25.9566 128.698 25.9566C128.698 25.9566 134.473 23.2629 140.505 22.8796C144.612 22.624 150.388 23.7807 154.366 21.3433C158.344 18.9059 162.065 14.1581 160.524 13.3876C158.984 12.6171 152.568 16.7224 151.412 14.0268C150.77 12.8715 153.336 10.8188 156.545 9.15119C157.058 8.89461 157.571 8.63809 158.213 8.25325C159.239 7.74015 160.266 7.48371 161.293 6.97061C161.678 6.84235 162.063 6.71417 162.576 6.7143C163.731 6.32959 165.014 6.07326 166.041 5.81686C170.918 4.79144 174.64 5.17749 174.64 5.17749C164.499 -0.600822 155.901 1.06529 155.901 1.06529Z" fill="url(#paint103_linear_189_183)"/>
<path d="M232.142 18.7982C230.731 19.1828 229.191 19.9524 228.036 21.1072C226.881 22.262 226.111 23.5452 225.727 25.2136C225.342 26.6253 225.343 28.1654 225.856 29.7057C226.242 31.3743 227.269 32.9147 228.81 34.4552C230.222 35.8674 231.891 37.023 233.559 37.4084C235.228 38.0506 236.768 38.051 238.18 37.6664C239.591 37.2818 241.003 36.6404 242.286 35.3573C243.441 34.2026 244.339 32.791 244.595 31.251C244.98 29.8393 244.979 28.2992 244.465 26.5022C243.952 24.9619 242.924 23.4215 241.384 21.881C239.843 20.3404 238.303 19.3132 236.763 18.7994C235.094 18.4139 233.554 18.4135 232.142 18.7982Z" fill="url(#paint104_linear_189_183)"/>
<path d="M219.944 1.21134C202.234 4.03003 192.742 26.1027 192.742 26.1027C192.742 26.1027 198.517 23.409 204.549 23.0257C208.656 22.7701 214.432 23.9268 218.41 21.4894C222.388 19.052 226.109 14.3042 224.568 13.5337C223.028 12.7632 216.612 16.8685 215.456 14.173C214.814 13.0177 217.38 10.9649 220.588 9.2973C221.102 9.04073 221.615 8.78416 222.257 8.39932C223.283 7.88622 224.31 7.62984 225.337 7.11674C225.722 6.98847 226.107 6.86031 226.62 6.86044C227.775 6.47574 229.058 6.21938 230.085 5.96297C234.962 4.93755 238.684 5.32366 238.684 5.32366C228.671 -0.582966 219.944 1.21134 219.944 1.21134Z" fill="url(#paint105_linear_189_183)"/>
<path d="M296.186 18.9442C294.774 19.3288 293.235 20.0985 292.08 21.2533C290.925 22.4081 290.155 23.6913 289.771 25.3596C289.386 26.7713 289.387 28.3115 289.9 29.8517C290.286 31.5203 291.313 33.0608 292.854 34.6014C294.266 36.0135 295.935 37.1691 297.603 37.5546C299.272 38.1968 300.812 38.1972 302.224 37.8125C303.635 37.4279 305.047 36.7865 306.33 35.5034C307.485 34.3486 308.383 32.9371 308.639 31.3971C309.024 29.9854 309.023 28.4453 308.509 26.6483C307.996 25.108 306.968 23.5676 305.428 22.0271C303.887 20.4865 302.347 19.4593 300.807 18.9455C299.266 18.4317 297.726 18.4312 296.186 18.9442Z" fill="url(#paint106_linear_189_183)"/>
<path d="M283.988 1.10074C266.278 3.91942 256.786 25.992 256.786 25.992C256.786 25.992 262.561 23.2983 268.593 22.915C272.7 22.6594 278.476 23.8161 282.454 21.3787C286.432 18.9412 290.152 14.1935 288.612 13.423C287.072 12.6525 280.656 16.7578 279.5 14.0623C278.858 12.907 281.424 10.8542 284.632 9.18662C285.146 8.93009 285.659 8.67347 286.3 8.28863C287.327 7.77553 288.354 7.51911 289.38 7.00601C289.765 6.87779 290.15 6.74958 290.664 6.74971C291.819 6.365 293.102 6.10864 294.129 5.85224C299.006 4.82682 302.728 5.21292 302.728 5.21292C292.587 -0.565395 283.988 1.10074 283.988 1.10074Z" fill="url(#paint107_linear_189_183)"/>
<path d="M360.23 18.834C358.819 19.2186 357.279 19.9883 356.124 21.1431C354.969 22.2978 354.2 23.5811 353.815 25.2494C353.43 26.6611 353.431 28.2013 353.945 29.7415C354.33 31.4101 355.357 32.9506 356.898 34.4911C358.31 35.9033 359.979 37.0589 361.647 37.4443C363.316 38.0865 364.856 38.0869 366.268 37.7023C367.68 37.3177 369.091 36.6763 370.374 35.3932C371.529 34.2385 372.427 32.8269 372.683 31.2869C373.068 29.8752 373.068 28.3351 372.554 26.5381C372.04 24.9978 371.013 23.4574 369.472 21.9168C367.932 20.3763 366.391 19.3491 364.851 18.8353C363.182 18.4498 361.642 18.4493 360.23 18.834Z" fill="url(#paint108_linear_189_183)"/>
<path d="M348.161 1.11903C330.45 3.93769 320.959 26.0103 320.959 26.0103C320.959 26.0103 326.734 23.3167 332.766 22.9333C336.873 22.6778 342.649 23.8345 346.627 21.397C350.605 18.9596 354.325 14.2118 352.785 13.4413C351.245 12.6709 344.828 16.7761 343.673 14.0806C343.031 12.9253 345.597 10.8725 348.805 9.20491C349.318 8.94836 349.832 8.69181 350.473 8.30694C351.5 7.79386 352.527 7.53747 353.553 7.02436C353.938 6.89612 354.323 6.76791 354.837 6.76804C355.992 6.38334 357.275 6.127 358.302 5.8706C363.178 4.8452 366.9 5.23124 366.9 5.23124C356.76 -0.547055 348.161 1.11903 348.161 1.11903Z" fill="url(#paint109_linear_189_183)"/>
<path d="M424.403 18.8517C422.991 19.2364 421.451 20.0061 420.296 21.1608C419.142 22.3156 418.372 23.5988 417.987 25.2672C417.603 26.6789 417.603 28.2191 418.117 29.7593C418.502 31.4279 419.53 32.9683 421.07 34.5089C422.482 35.9211 424.151 37.0766 425.82 37.4621C427.488 38.1043 429.028 38.1047 430.44 37.7201C431.852 37.3354 433.263 36.6941 434.546 35.411C435.701 34.2562 436.599 32.8447 436.856 31.3046C437.24 29.8929 437.24 28.3529 436.726 26.5559C436.212 25.0156 435.185 23.4752 433.644 21.9346C432.104 20.3941 430.563 19.3669 429.023 18.8531C427.354 18.4676 425.814 18.4671 424.403 18.8517Z" fill="url(#paint110_linear_189_183)"/>
<path d="M412.205 1.26513C394.494 4.08381 385.003 26.1564 385.003 26.1564C385.003 26.1564 390.778 23.4628 396.81 23.0794C400.917 22.8239 406.692 23.9806 410.67 21.5431C414.648 19.1057 418.369 14.3579 416.829 13.5874C415.288 12.817 408.872 16.9222 407.717 14.2267C407.074 13.0714 409.641 11.0186 412.849 9.35099C413.362 9.09443 413.876 8.83788 414.517 8.45302C415.544 7.93994 416.57 7.68354 417.597 7.17044C417.982 7.04219 418.367 6.91397 418.88 6.9141C420.035 6.52939 421.319 6.27306 422.345 6.01664C427.222 4.99124 430.944 5.37734 430.944 5.37734C420.932 -0.52927 412.205 1.26513 412.205 1.26513Z" fill="url(#paint111_linear_189_183)"/>
<defs>
<linearGradient id="paint0_linear_189_183" x1="615" y1="-151.795" x2="77.5" y2="406.205" gradientUnits="userSpaceOnUse">
<stop stop-color="#D2D0D0"/>
<stop offset="1" stop-color="white"/>
</linearGradient>
<linearGradient id="paint1_linear_189_183" x1="615" y1="-151.795" x2="77.5" y2="406.205" gradientUnits="userSpaceOnUse">
<stop stop-color="#D2D0D0"/>
<stop offset="1" stop-color="white"/>
</linearGradient>
<linearGradient id="paint2_linear_189_183" x1="615" y1="-151.795" x2="77.5" y2="406.205" gradientUnits="userSpaceOnUse">
<stop stop-color="#D2D0D0"/>
<stop offset="1" stop-color="white"/>
</linearGradient>
<linearGradient id="paint3_linear_189_183" x1="615" y1="-151.795" x2="77.5" y2="406.205" gradientUnits="userSpaceOnUse">
<stop stop-color="#D2D0D0"/>
<stop offset="1" stop-color="white"/>
</linearGradient>
<linearGradient id="paint4_linear_189_183" x1="615" y1="-151.795" x2="77.5" y2="406.205" gradientUnits="userSpaceOnUse">
<stop stop-color="#D2D0D0"/>
<stop offset="1" stop-color="white"/>
</linearGradient>
<linearGradient id="paint5_linear_189_183" x1="615" y1="-151.795" x2="77.5" y2="406.205" gradientUnits="userSpaceOnUse">
<stop stop-color="#D2D0D0"/>
<stop offset="1" stop-color="white"/>
</linearGradient>
<linearGradient id="paint6_linear_189_183" x1="615" y1="-151.795" x2="77.5" y2="406.205" gradientUnits="userSpaceOnUse">
<stop stop-color="#D2D0D0"/>
<stop offset="1" stop-color="white"/>
</linearGradient>
<linearGradient id="paint7_linear_189_183" x1="615" y1="-151.795" x2="77.5" y2="406.205" gradientUnits="userSpaceOnUse">
<stop stop-color="#D2D0D0"/>
<stop offset="1" stop-color="white"/>
</linearGradient>
<linearGradient id="paint8_linear_189_183" x1="615" y1="-151.795" x2="77.5" y2="406.205" gradientUnits="userSpaceOnUse">
<stop stop-color="#D2D0D0"/>
<stop offset="1" stop-color="white"/>
</linearGradient>
<linearGradient id="paint9_linear_189_183" x1="615" y1="-151.795" x2="77.5" y2="406.205" gradientUnits="userSpaceOnUse">
<stop stop-color="#D2D0D0"/>
<stop offset="1" stop-color="white"/>
</linearGradient>
<linearGradient id="paint10_linear_189_183" x1="615" y1="-151.795" x2="77.5" y2="406.205" gradientUnits="userSpaceOnUse">
<stop stop-color="#D2D0D0"/>
<stop offset="1" stop-color="white"/>
</linearGradient>
<linearGradient id="paint11_linear_189_183" x1="615" y1="-151.795" x2="77.5" y2="406.205" gradientUnits="userSpaceOnUse">
<stop stop-color="#D2D0D0"/>
<stop offset="1" stop-color="white"/>
</linearGradient>
<linearGradient id="paint12_linear_189_183" x1="615" y1="-151.795" x2="77.5" y2="406.205" gradientUnits="userSpaceOnUse">
<stop stop-color="#D2D0D0"/>
<stop offset="1" stop-color="white"/>
</linearGradient>
<linearGradient id="paint13_linear_189_183" x1="615" y1="-151.795" x2="77.5" y2="406.205" gradientUnits="userSpaceOnUse">
<stop stop-color="#D2D0D0"/>
<stop offset="1" stop-color="white"/>
</linearGradient>
<linearGradient id="paint14_linear_189_183" x1="615" y1="-151.795" x2="77.5" y2="406.205" gradientUnits="userSpaceOnUse">
<stop stop-color="#D2D0D0"/>
<stop offset="1" stop-color="white"/>
</linearGradient>
<linearGradient id="paint15_linear_189_183" x1="615" y1="-151.795" x2="77.5" y2="406.205" gradientUnits="userSpaceOnUse">
<stop stop-color="#D2D0D0"/>
<stop offset="1" stop-color="white"/>
</linearGradient>
<linearGradient id="paint16_linear_189_183" x1="615" y1="-151.795" x2="77.5" y2="406.205" gradientUnits="userSpaceOnUse">
<stop stop-color="#D2D0D0"/>
<stop offset="1" stop-color="white"/>
</linearGradient>
<linearGradient id="paint17_linear_189_183" x1="615" y1="-151.795" x2="77.5" y2="406.205" gradientUnits="userSpaceOnUse">
<stop stop-color="#D2D0D0"/>
<stop offset="1" stop-color="white"/>
</linearGradient>
<linearGradient id="paint18_linear_189_183" x1="615" y1="-151.795" x2="77.5" y2="406.205" gradientUnits="userSpaceOnUse">
<stop stop-color="#D2D0D0"/>
<stop offset="1" stop-color="white"/>
</linearGradient>
<linearGradient id="paint19_linear_189_183" x1="615" y1="-151.795" x2="77.5" y2="406.205" gradientUnits="userSpaceOnUse">
<stop stop-color="#D2D0D0"/>
<stop offset="1" stop-color="white"/>
</linearGradient>
<linearGradient id="paint20_linear_189_183" x1="615" y1="-151.795" x2="77.5" y2="406.205" gradientUnits="userSpaceOnUse">
<stop stop-color="#D2D0D0"/>
<stop offset="1" stop-color="white"/>
</linearGradient>
<linearGradient id="paint21_linear_189_183" x1="615" y1="-151.795" x2="77.5" y2="406.205" gradientUnits="userSpaceOnUse">
<stop stop-color="#D2D0D0"/>
<stop offset="1" stop-color="white"/>
</linearGradient>
<linearGradient id="paint22_linear_189_183" x1="615" y1="-151.795" x2="77.5" y2="406.205" gradientUnits="userSpaceOnUse">
<stop stop-color="#D2D0D0"/>
<stop offset="1" stop-color="white"/>
</linearGradient>
<linearGradient id="paint23_linear_189_183" x1="615" y1="-151.795" x2="77.5" y2="406.205" gradientUnits="userSpaceOnUse">
<stop stop-color="#D2D0D0"/>
<stop offset="1" stop-color="white"/>
</linearGradient>
<linearGradient id="paint24_linear_189_183" x1="615" y1="-151.795" x2="77.5" y2="406.205" gradientUnits="userSpaceOnUse">
<stop stop-color="#D2D0D0"/>
<stop offset="1" stop-color="white"/>
</linearGradient>
<linearGradient id="paint25_linear_189_183" x1="615" y1="-151.795" x2="77.5" y2="406.205" gradientUnits="userSpaceOnUse">
<stop stop-color="#D2D0D0"/>
<stop offset="1" stop-color="white"/>
</linearGradient>
<linearGradient id="paint26_linear_189_183" x1="615" y1="-151.795" x2="77.5" y2="406.205" gradientUnits="userSpaceOnUse">
<stop stop-color="#D2D0D0"/>
<stop offset="1" stop-color="white"/>
</linearGradient>
<linearGradient id="paint27_linear_189_183" x1="615" y1="-151.795" x2="77.5" y2="406.205" gradientUnits="userSpaceOnUse">
<stop stop-color="#D2D0D0"/>
<stop offset="1" stop-color="white"/>
</linearGradient>
<linearGradient id="paint28_linear_189_183" x1="615" y1="-151.795" x2="77.5" y2="406.205" gradientUnits="userSpaceOnUse">
<stop stop-color="#D2D0D0"/>
<stop offset="1" stop-color="white"/>
</linearGradient>
<linearGradient id="paint29_linear_189_183" x1="615" y1="-151.795" x2="77.5" y2="406.205" gradientUnits="userSpaceOnUse">
<stop stop-color="#D2D0D0"/>
<stop offset="1" stop-color="white"/>
</linearGradient>
<linearGradient id="paint30_linear_189_183" x1="615" y1="-151.795" x2="77.5" y2="406.205" gradientUnits="userSpaceOnUse">
<stop stop-color="#D2D0D0"/>
<stop offset="1" stop-color="white"/>
</linearGradient>
<linearGradient id="paint31_linear_189_183" x1="615" y1="-151.795" x2="77.5" y2="406.205" gradientUnits="userSpaceOnUse">
<stop stop-color="#D2D0D0"/>
<stop offset="1" stop-color="white"/>
</linearGradient>
<linearGradient id="paint32_linear_189_183" x1="615" y1="-151.795" x2="77.5" y2="406.205" gradientUnits="userSpaceOnUse">
<stop stop-color="#D2D0D0"/>
<stop offset="1" stop-color="white"/>
</linearGradient>
<linearGradient id="paint33_linear_189_183" x1="615" y1="-151.795" x2="77.5" y2="406.205" gradientUnits="userSpaceOnUse">
<stop stop-color="#D2D0D0"/>
<stop offset="1" stop-color="white"/>
</linearGradient>
<linearGradient id="paint34_linear_189_183" x1="615" y1="-151.795" x2="77.5" y2="406.205" gradientUnits="userSpaceOnUse">
<stop stop-color="#D2D0D0"/>
<stop offset="1" stop-color="white"/>
</linearGradient>
<linearGradient id="paint35_linear_189_183" x1="615" y1="-151.795" x2="77.5" y2="406.205" gradientUnits="userSpaceOnUse">
<stop stop-color="#D2D0D0"/>
<stop offset="1" stop-color="white"/>
</linearGradient>
<linearGradient id="paint36_linear_189_183" x1="615" y1="-151.795" x2="77.5" y2="406.205" gradientUnits="userSpaceOnUse">
<stop stop-color="#D2D0D0"/>
<stop offset="1" stop-color="white"/>
</linearGradient>
<linearGradient id="paint37_linear_189_183" x1="615" y1="-151.795" x2="77.5" y2="406.205" gradientUnits="userSpaceOnUse">
<stop stop-color="#D2D0D0"/>
<stop offset="1" stop-color="white"/>
</linearGradient>
<linearGradient id="paint38_linear_189_183" x1="615" y1="-151.795" x2="77.5" y2="406.205" gradientUnits="userSpaceOnUse">
<stop stop-color="#D2D0D0"/>
<stop offset="1" stop-color="white"/>
</linearGradient>
<linearGradient id="paint39_linear_189_183" x1="615" y1="-151.795" x2="77.5" y2="406.205" gradientUnits="userSpaceOnUse">
<stop stop-color="#D2D0D0"/>
<stop offset="1" stop-color="white"/>
</linearGradient>
<linearGradient id="paint40_linear_189_183" x1="615" y1="-151.795" x2="77.5" y2="406.205" gradientUnits="userSpaceOnUse">
<stop stop-color="#D2D0D0"/>
<stop offset="1" stop-color="white"/>
</linearGradient>
<linearGradient id="paint41_linear_189_183" x1="615" y1="-151.795" x2="77.5" y2="406.205" gradientUnits="userSpaceOnUse">
<stop stop-color="#D2D0D0"/>
<stop offset="1" stop-color="white"/>
</linearGradient>
<linearGradient id="paint42_linear_189_183" x1="615" y1="-151.795" x2="77.5" y2="406.205" gradientUnits="userSpaceOnUse">
<stop stop-color="#D2D0D0"/>
<stop offset="1" stop-color="white"/>
</linearGradient>
<linearGradient id="paint43_linear_189_183" x1="615" y1="-151.795" x2="77.5" y2="406.205" gradientUnits="userSpaceOnUse">
<stop stop-color="#D2D0D0"/>
<stop offset="1" stop-color="white"/>
</linearGradient>
<linearGradient id="paint44_linear_189_183" x1="615" y1="-151.795" x2="77.5" y2="406.205" gradientUnits="userSpaceOnUse">
<stop stop-color="#D2D0D0"/>
<stop offset="1" stop-color="white"/>
</linearGradient>
<linearGradient id="paint45_linear_189_183" x1="615" y1="-151.795" x2="77.5" y2="406.205" gradientUnits="userSpaceOnUse">
<stop stop-color="#D2D0D0"/>
<stop offset="1" stop-color="white"/>
</linearGradient>
<linearGradient id="paint46_linear_189_183" x1="615" y1="-151.795" x2="77.5" y2="406.205" gradientUnits="userSpaceOnUse">
<stop stop-color="#D2D0D0"/>
<stop offset="1" stop-color="white"/>
</linearGradient>
<linearGradient id="paint47_linear_189_183" x1="615" y1="-151.795" x2="77.5" y2="406.205" gradientUnits="userSpaceOnUse">
<stop stop-color="#D2D0D0"/>
<stop offset="1" stop-color="white"/>
</linearGradient>
<linearGradient id="paint48_linear_189_183" x1="615" y1="-151.795" x2="77.5" y2="406.205" gradientUnits="userSpaceOnUse">
<stop stop-color="#D2D0D0"/>
<stop offset="1" stop-color="white"/>
</linearGradient>
<linearGradient id="paint49_linear_189_183" x1="615" y1="-151.795" x2="77.5" y2="406.205" gradientUnits="userSpaceOnUse">
<stop stop-color="#D2D0D0"/>
<stop offset="1" stop-color="white"/>
</linearGradient>
<linearGradient id="paint50_linear_189_183" x1="615" y1="-151.795" x2="77.5" y2="406.205" gradientUnits="userSpaceOnUse">
<stop stop-color="#D2D0D0"/>
<stop offset="1" stop-color="white"/>
</linearGradient>
<linearGradient id="paint51_linear_189_183" x1="615" y1="-151.795" x2="77.5" y2="406.205" gradientUnits="userSpaceOnUse">
<stop stop-color="#D2D0D0"/>
<stop offset="1" stop-color="white"/>
</linearGradient>
<linearGradient id="paint52_linear_189_183" x1="615" y1="-151.795" x2="77.5" y2="406.205" gradientUnits="userSpaceOnUse">
<stop stop-color="#D2D0D0"/>
<stop offset="1" stop-color="white"/>
</linearGradient>
<linearGradient id="paint53_linear_189_183" x1="615" y1="-151.795" x2="77.5" y2="406.205" gradientUnits="userSpaceOnUse">
<stop stop-color="#D2D0D0"/>
<stop offset="1" stop-color="white"/>
</linearGradient>
<linearGradient id="paint54_linear_189_183" x1="615" y1="-151.795" x2="77.5" y2="406.205" gradientUnits="userSpaceOnUse">
<stop stop-color="#D2D0D0"/>
<stop offset="1" stop-color="white"/>
</linearGradient>
<linearGradient id="paint55_linear_189_183" x1="615" y1="-151.795" x2="77.5" y2="406.205" gradientUnits="userSpaceOnUse">
<stop stop-color="#D2D0D0"/>
<stop offset="1" stop-color="white"/>
</linearGradient>
<linearGradient id="paint56_linear_189_183" x1="615" y1="-151.795" x2="77.5" y2="406.205" gradientUnits="userSpaceOnUse">
<stop stop-color="#D2D0D0"/>
<stop offset="1" stop-color="white"/>
</linearGradient>
<linearGradient id="paint57_linear_189_183" x1="615" y1="-151.795" x2="77.5" y2="406.205" gradientUnits="userSpaceOnUse">
<stop stop-color="#D2D0D0"/>
<stop offset="1" stop-color="white"/>
</linearGradient>
<linearGradient id="paint58_linear_189_183" x1="615" y1="-151.795" x2="77.5" y2="406.205" gradientUnits="userSpaceOnUse">
<stop stop-color="#D2D0D0"/>
<stop offset="1" stop-color="white"/>
</linearGradient>
<linearGradient id="paint59_linear_189_183" x1="615" y1="-151.795" x2="77.5" y2="406.205" gradientUnits="userSpaceOnUse">
<stop stop-color="#D2D0D0"/>
<stop offset="1" stop-color="white"/>
</linearGradient>
<linearGradient id="paint60_linear_189_183" x1="615" y1="-151.795" x2="77.5" y2="406.205" gradientUnits="userSpaceOnUse">
<stop stop-color="#D2D0D0"/>
<stop offset="1" stop-color="white"/>
</linearGradient>
<linearGradient id="paint61_linear_189_183" x1="615" y1="-151.795" x2="77.5" y2="406.205" gradientUnits="userSpaceOnUse">
<stop stop-color="#D2D0D0"/>
<stop offset="1" stop-color="white"/>
</linearGradient>
<linearGradient id="paint62_linear_189_183" x1="615" y1="-151.795" x2="77.5" y2="406.205" gradientUnits="userSpaceOnUse">
<stop stop-color="#D2D0D0"/>
<stop offset="1" stop-color="white"/>
</linearGradient>
<linearGradient id="paint63_linear_189_183" x1="615" y1="-151.795" x2="77.5" y2="406.205" gradientUnits="userSpaceOnUse">
<stop stop-color="#D2D0D0"/>
<stop offset="1" stop-color="white"/>
</linearGradient>
<linearGradient id="paint64_linear_189_183" x1="615" y1="-151.795" x2="77.5" y2="406.205" gradientUnits="userSpaceOnUse">
<stop stop-color="#D2D0D0"/>
<stop offset="1" stop-color="white"/>
</linearGradient>
<linearGradient id="paint65_linear_189_183" x1="615" y1="-151.795" x2="77.5" y2="406.205" gradientUnits="userSpaceOnUse">
<stop stop-color="#D2D0D0"/>
<stop offset="1" stop-color="white"/>
</linearGradient>
<linearGradient id="paint66_linear_189_183" x1="615" y1="-151.795" x2="77.5" y2="406.205" gradientUnits="userSpaceOnUse">
<stop stop-color="#D2D0D0"/>
<stop offset="1" stop-color="white"/>
</linearGradient>
<linearGradient id="paint67_linear_189_183" x1="615" y1="-151.795" x2="77.5" y2="406.205" gradientUnits="userSpaceOnUse">
<stop stop-color="#D2D0D0"/>
<stop offset="1" stop-color="white"/>
</linearGradient>
<linearGradient id="paint68_linear_189_183" x1="615" y1="-151.795" x2="77.5" y2="406.205" gradientUnits="userSpaceOnUse">
<stop stop-color="#D2D0D0"/>
<stop offset="1" stop-color="white"/>
</linearGradient>
<linearGradient id="paint69_linear_189_183" x1="615" y1="-151.795" x2="77.5" y2="406.205" gradientUnits="userSpaceOnUse">
<stop stop-color="#D2D0D0"/>
<stop offset="1" stop-color="white"/>
</linearGradient>
<linearGradient id="paint70_linear_189_183" x1="615" y1="-151.795" x2="77.5" y2="406.205" gradientUnits="userSpaceOnUse">
<stop stop-color="#D2D0D0"/>
<stop offset="1" stop-color="white"/>
</linearGradient>
<linearGradient id="paint71_linear_189_183" x1="615" y1="-151.795" x2="77.5" y2="406.205" gradientUnits="userSpaceOnUse">
<stop stop-color="#D2D0D0"/>
<stop offset="1" stop-color="white"/>
</linearGradient>
<linearGradient id="paint72_linear_189_183" x1="615" y1="-151.795" x2="77.5" y2="406.205" gradientUnits="userSpaceOnUse">
<stop stop-color="#D2D0D0"/>
<stop offset="1" stop-color="white"/>
</linearGradient>
<linearGradient id="paint73_linear_189_183" x1="615" y1="-151.795" x2="77.5" y2="406.205" gradientUnits="userSpaceOnUse">
<stop stop-color="#D2D0D0"/>
<stop offset="1" stop-color="white"/>
</linearGradient>
<linearGradient id="paint74_linear_189_183" x1="615" y1="-151.795" x2="77.5" y2="406.205" gradientUnits="userSpaceOnUse">
<stop stop-color="#D2D0D0"/>
<stop offset="1" stop-color="white"/>
</linearGradient>
<linearGradient id="paint75_linear_189_183" x1="615" y1="-151.795" x2="77.5" y2="406.205" gradientUnits="userSpaceOnUse">
<stop stop-color="#D2D0D0"/>
<stop offset="1" stop-color="white"/>
</linearGradient>
<linearGradient id="paint76_linear_189_183" x1="615" y1="-151.795" x2="77.5" y2="406.205" gradientUnits="userSpaceOnUse">
<stop stop-color="#D2D0D0"/>
<stop offset="1" stop-color="white"/>
</linearGradient>
<linearGradient id="paint77_linear_189_183" x1="615" y1="-151.795" x2="77.5" y2="406.205" gradientUnits="userSpaceOnUse">
<stop stop-color="#D2D0D0"/>
<stop offset="1" stop-color="white"/>
</linearGradient>
<linearGradient id="paint78_linear_189_183" x1="615" y1="-151.795" x2="77.5" y2="406.205" gradientUnits="userSpaceOnUse">
<stop stop-color="#D2D0D0"/>
<stop offset="1" stop-color="white"/>
</linearGradient>
<linearGradient id="paint79_linear_189_183" x1="615" y1="-151.795" x2="77.5" y2="406.205" gradientUnits="userSpaceOnUse">
<stop stop-color="#D2D0D0"/>
<stop offset="1" stop-color="white"/>
</linearGradient>
<linearGradient id="paint80_linear_189_183" x1="615" y1="-151.795" x2="77.5" y2="406.205" gradientUnits="userSpaceOnUse">
<stop stop-color="#D2D0D0"/>
<stop offset="1" stop-color="white"/>
</linearGradient>
<linearGradient id="paint81_linear_189_183" x1="615" y1="-151.795" x2="77.5" y2="406.205" gradientUnits="userSpaceOnUse">
<stop stop-color="#D2D0D0"/>
<stop offset="1" stop-color="white"/>
</linearGradient>
<linearGradient id="paint82_linear_189_183" x1="615" y1="-151.795" x2="77.5" y2="406.205" gradientUnits="userSpaceOnUse">
<stop stop-color="#D2D0D0"/>
<stop offset="1" stop-color="white"/>
</linearGradient>
<linearGradient id="paint83_linear_189_183" x1="615" y1="-151.795" x2="77.5" y2="406.205" gradientUnits="userSpaceOnUse">
<stop stop-color="#D2D0D0"/>
<stop offset="1" stop-color="white"/>
</linearGradient>
<linearGradient id="paint84_linear_189_183" x1="615" y1="-151.795" x2="77.5" y2="406.205" gradientUnits="userSpaceOnUse">
<stop stop-color="#D2D0D0"/>
<stop offset="1" stop-color="white"/>
</linearGradient>
<linearGradient id="paint85_linear_189_183" x1="615" y1="-151.795" x2="77.5" y2="406.205" gradientUnits="userSpaceOnUse">
<stop stop-color="#D2D0D0"/>
<stop offset="1" stop-color="white"/>
</linearGradient>
<linearGradient id="paint86_linear_189_183" x1="615" y1="-151.795" x2="77.5" y2="406.205" gradientUnits="userSpaceOnUse">
<stop stop-color="#D2D0D0"/>
<stop offset="1" stop-color="white"/>
</linearGradient>
<linearGradient id="paint87_linear_189_183" x1="615" y1="-151.795" x2="77.5" y2="406.205" gradientUnits="userSpaceOnUse">
<stop stop-color="#D2D0D0"/>
<stop offset="1" stop-color="white"/>
</linearGradient>
<linearGradient id="paint88_linear_189_183" x1="615" y1="-151.795" x2="77.5" y2="406.205" gradientUnits="userSpaceOnUse">
<stop stop-color="#D2D0D0"/>
<stop offset="1" stop-color="white"/>
</linearGradient>
<linearGradient id="paint89_linear_189_183" x1="615" y1="-151.795" x2="77.5" y2="406.205" gradientUnits="userSpaceOnUse">
<stop stop-color="#D2D0D0"/>
<stop offset="1" stop-color="white"/>
</linearGradient>
<linearGradient id="paint90_linear_189_183" x1="615" y1="-151.795" x2="77.5" y2="406.205" gradientUnits="userSpaceOnUse">
<stop stop-color="#D2D0D0"/>
<stop offset="1" stop-color="white"/>
</linearGradient>
<linearGradient id="paint91_linear_189_183" x1="615" y1="-151.795" x2="77.5" y2="406.205" gradientUnits="userSpaceOnUse">
<stop stop-color="#D2D0D0"/>
<stop offset="1" stop-color="white"/>
</linearGradient>
<linearGradient id="paint92_linear_189_183" x1="615" y1="-151.795" x2="77.5" y2="406.205" gradientUnits="userSpaceOnUse">
<stop stop-color="#D2D0D0"/>
<stop offset="1" stop-color="white"/>
</linearGradient>
<linearGradient id="paint93_linear_189_183" x1="615" y1="-151.795" x2="77.5" y2="406.205" gradientUnits="userSpaceOnUse">
<stop stop-color="#D2D0D0"/>
<stop offset="1" stop-color="white"/>
</linearGradient>
<linearGradient id="paint94_linear_189_183" x1="615" y1="-151.795" x2="77.5" y2="406.205" gradientUnits="userSpaceOnUse">
<stop stop-color="#D2D0D0"/>
<stop offset="1" stop-color="white"/>
</linearGradient>
<linearGradient id="paint95_linear_189_183" x1="615" y1="-151.795" x2="77.5" y2="406.205" gradientUnits="userSpaceOnUse">
<stop stop-color="#D2D0D0"/>
<stop offset="1" stop-color="white"/>
</linearGradient>
<linearGradient id="paint96_linear_189_183" x1="615" y1="-151.795" x2="77.5" y2="406.205" gradientUnits="userSpaceOnUse">
<stop stop-color="#D2D0D0"/>
<stop offset="1" stop-color="white"/>
</linearGradient>
<linearGradient id="paint97_linear_189_183" x1="615" y1="-151.795" x2="77.5" y2="406.205" gradientUnits="userSpaceOnUse">
<stop stop-color="#D2D0D0"/>
<stop offset="1" stop-color="white"/>
</linearGradient>
<linearGradient id="paint98_linear_189_183" x1="615" y1="-151.795" x2="77.5" y2="406.205" gradientUnits="userSpaceOnUse">
<stop stop-color="#D2D0D0"/>
<stop offset="1" stop-color="white"/>
</linearGradient>
<linearGradient id="paint99_linear_189_183" x1="615" y1="-151.795" x2="77.5" y2="406.205" gradientUnits="userSpaceOnUse">
<stop stop-color="#D2D0D0"/>
<stop offset="1" stop-color="white"/>
</linearGradient>
<linearGradient id="paint100_linear_189_183" x1="615" y1="-151.795" x2="77.5" y2="406.205" gradientUnits="userSpaceOnUse">
<stop stop-color="#D2D0D0"/>
<stop offset="1" stop-color="white"/>
</linearGradient>
<linearGradient id="paint101_linear_189_183" x1="615" y1="-151.795" x2="77.5" y2="406.205" gradientUnits="userSpaceOnUse">
<stop stop-color="#D2D0D0"/>
<stop offset="1" stop-color="white"/>
</linearGradient>
<linearGradient id="paint102_linear_189_183" x1="615" y1="-151.795" x2="77.5" y2="406.205" gradientUnits="userSpaceOnUse">
<stop stop-color="#D2D0D0"/>
<stop offset="1" stop-color="white"/>
</linearGradient>
<linearGradient id="paint103_linear_189_183" x1="615" y1="-151.795" x2="77.5" y2="406.205" gradientUnits="userSpaceOnUse">
<stop stop-color="#D2D0D0"/>
<stop offset="1" stop-color="white"/>
</linearGradient>
<linearGradient id="paint104_linear_189_183" x1="615" y1="-151.795" x2="77.5" y2="406.205" gradientUnits="userSpaceOnUse">
<stop stop-color="#D2D0D0"/>
<stop offset="1" stop-color="white"/>
</linearGradient>
<linearGradient id="paint105_linear_189_183" x1="615" y1="-151.795" x2="77.5" y2="406.205" gradientUnits="userSpaceOnUse">
<stop stop-color="#D2D0D0"/>
<stop offset="1" stop-color="white"/>
</linearGradient>
<linearGradient id="paint106_linear_189_183" x1="615" y1="-151.795" x2="77.5" y2="406.205" gradientUnits="userSpaceOnUse">
<stop stop-color="#D2D0D0"/>
<stop offset="1" stop-color="white"/>
</linearGradient>
<linearGradient id="paint107_linear_189_183" x1="615" y1="-151.795" x2="77.5" y2="406.205" gradientUnits="userSpaceOnUse">
<stop stop-color="#D2D0D0"/>
<stop offset="1" stop-color="white"/>
</linearGradient>
<linearGradient id="paint108_linear_189_183" x1="615" y1="-151.795" x2="77.5" y2="406.205" gradientUnits="userSpaceOnUse">
<stop stop-color="#D2D0D0"/>
<stop offset="1" stop-color="white"/>
</linearGradient>
<linearGradient id="paint109_linear_189_183" x1="615" y1="-151.795" x2="77.5" y2="406.205" gradientUnits="userSpaceOnUse">
<stop stop-color="#D2D0D0"/>
<stop offset="1" stop-color="white"/>
</linearGradient>
<linearGradient id="paint110_linear_189_183" x1="615" y1="-151.795" x2="77.5" y2="406.205" gradientUnits="userSpaceOnUse">
<stop stop-color="#D2D0D0"/>
<stop offset="1" stop-color="white"/>
</linearGradient>
<linearGradient id="paint111_linear_189_183" x1="615" y1="-151.795" x2="77.5" y2="406.205" gradientUnits="userSpaceOnUse">
<stop stop-color="#D2D0D0"/>
<stop offset="1" stop-color="white"/>
</linearGradient>
</defs>
</svg>
